<?xml version="1.0" standalone="no"?>
<!DOCTYPE svg PUBLIC "-//W3C//DTD SVG 1.1//EN" "http://www.w3.org/Graphics/SVG/1.1/DTD/svg11.dtd" >
<svg xmlns="http://www.w3.org/2000/svg" xmlns:xlink="http://www.w3.org/1999/xlink" version="1.1">
<metadata>
Created by FontForge 20150824 at Sun Jun  5 10:31:51 2016
 By Everything Fonts
Generated in 2013 by FontLab Studio. Copyright info pending.
</metadata>
<defs>
<font id="Biko_Regular" horiz-adv-x="558" >
  <font-face 
    font-family="Biko_Regular"
    font-weight="400"
    font-stretch="normal"
    units-per-em="1000"
    panose-1="2 0 0 0 0 0 0 0 0 0"
    ascent="750"
    descent="-250"
    x-height="458"
    cap-height="712"
    bbox="-97 -262 1038 907"
    underline-thickness="50"
    underline-position="-150"
    unicode-range="U+0020-FB04"
  />
<missing-glyph horiz-adv-x="230" 
 />
    <glyph glyph-name=".notdef" horiz-adv-x="230" 
 />
    <glyph glyph-name=".null" horiz-adv-x="0" 
 />
    <glyph glyph-name="nonmarkingreturn" horiz-adv-x="333" 
 />
    <glyph glyph-name="space" unicode=" " horiz-adv-x="230" 
 />
    <glyph glyph-name="exclam" unicode="!" horiz-adv-x="267" 
d="M178 200h-89v534h89v-534zM134 117q24 0 41 -17t17 -41q0 -25 -17 -42t-41 -17t-41.5 17t-17.5 42q0 24 17.5 41t41.5 17z" />
    <glyph glyph-name="quotedbl" unicode="&#x22;" horiz-adv-x="211" 
d="M93 575h-63v138h63v-138zM182 575h-64v138h64v-138z" />
    <glyph glyph-name="numbersign" unicode="#" horiz-adv-x="530" 
d="M357 26h-66l14 70h-130l-14 -70h-67l14 70h-70l13 66h71l25 131h-70l13 66h71l14 71h66l-14 -71h131l14 71h66l-14 -71h70l-13 -66h-70l-26 -131h70l-13 -66h-71zM214 293l-26 -131h131l25 131h-130z" />
    <glyph glyph-name="dollar" unicode="$" horiz-adv-x="545" 
d="M517 193q0 -77 -58 -134.5t-147 -68.5v-28h-79v29q-85 15 -144.5 75t-59.5 139h88q0 -47 33.5 -80.5t82.5 -44.5v243q-105 31 -155 77t-50 116q0 82 58 138.5t147 64.5v34h79v-38q76 -17 128.5 -75.5t52.5 -142.5h-88q0 51 -26.5 83t-66.5 45v-237q109 -31 157 -74.5
t48 -120.5zM115 516q0 -70 118 -107v223q-52 -8 -85 -39.5t-33 -76.5zM312 303v-225q52 10 85 41.5t33 73.5q0 27 -9 46t-28 31.5t-36 19t-45 13.5z" />
    <glyph glyph-name="percent" unicode="%" horiz-adv-x="682" 
d="M427 712h96l-274 -712h-97zM291 583q0 -53 -39 -90.5t-94 -37.5t-93.5 37.5t-38.5 90.5q0 54 38.5 91.5t93.5 37.5t94 -37.5t39 -91.5zM107 583q0 -20 15 -34.5t36 -14.5t36 14.5t15 34.5t-15 35t-36 15t-36 -15t-15 -35zM518 257q55 0 93.5 -37.5t38.5 -90.5
q0 -54 -38.5 -91.5t-93.5 -37.5t-94 37.5t-39 91.5q0 53 39 90.5t94 37.5zM518 80q21 0 36 14.5t15 34.5t-15 34.5t-36 14.5t-36 -14.5t-15 -34.5t15 -34.5t36 -14.5z" />
    <glyph glyph-name="ampersand" unicode="&#x26;" horiz-adv-x="770" 
d="M523 218l218 -218h-128l-153 154l-109 -110q-53 -55 -133 -55q-78 0 -133 55t-55 133t55 133l110 110l-44 45q-44 46 -44 107t44 105q43 43 106 43t106 -43q43 -44 43 -106.5t-43 -106.5l-42 -42l139 -139q26 33 26 77q-2 28 -12 54l71 55q27 -52 28 -109v-1
q0 -84 -50 -141zM194 571q0 -26 22 -48l41 -41l44 44q19 19 19 44.5t-19 44.5t-44 19t-44 -19t-19 -44zM290 105l108 108l-143 143l-110 -110q-28 -29 -27.5 -70.5t29.5 -70.5q30 -30 71 -30q42 0 72 30z" />
    <glyph glyph-name="quotesingle" unicode="'" horiz-adv-x="160" 
d="M111 575h-63v138h63v-138z" />
    <glyph glyph-name="parenleft" unicode="(" horiz-adv-x="329" 
d="M294 774v-86q-26 0 -53 -23t-48 -63q-52 -99 -52 -244q0 -146 52 -245q21 -40 48 -63t53 -23v-86q-57 0 -106 40q-39 32 -72 93q-61 119 -61 284q0 164 61 283q31 59 72 94q50 39 106 39z" />
    <glyph glyph-name="parenright" unicode=")" horiz-adv-x="329" 
d="M35 -59v86q26 0 53 23t48 63q52 102 52 245q0 142 -52 244q-21 40 -48 63t-53 23v86q57 0 105 -39q42 -35 72 -94q62 -118 62 -283q0 -166 -62 -284q-31 -61 -72 -93q-48 -40 -105 -40z" />
    <glyph glyph-name="asterisk" unicode="*" horiz-adv-x="205" 
d="M87 563v40l-27 -28l-21 21l28 27h-40v30h40l-28 28l21 21l27 -28v39h30v-39l28 28l21 -21l-28 -28h39v-30h-39l28 -27l-21 -21l-28 28v-40h-30z" />
    <glyph glyph-name="plus" unicode="+" horiz-adv-x="400" 
d="M158 80v108h-108v84h108v108h84v-108h108v-84h-108v-108h-84z" />
    <glyph glyph-name="comma" unicode="," horiz-adv-x="180" 
d="M73 -66h-53l62 66q-17 9 -24 27.5t0 37.5q13 33 49 33q11 0 19 -4q21 -8 29 -28q13 -33 -10 -56z" />
    <glyph glyph-name="hyphen" unicode="-" horiz-adv-x="401" 
d="M351 273v-86h-301v86h301z" />
    <glyph glyph-name="period" unicode="." horiz-adv-x="182" 
d="M91 114q23 0 39.5 -17t16.5 -40t-16.5 -40t-39.5 -17q-24 0 -40.5 17t-16.5 40t16.5 40t40.5 17z" />
    <glyph glyph-name="slash" unicode="/" horiz-adv-x="386" 
d="M102 0h-96l274 712h97z" />
    <glyph glyph-name="zero" unicode="0" horiz-adv-x="600" 
d="M301 732q97 0 166 -68t69 -164v-277q0 -97 -69 -165t-166 -68q-98 0 -166.5 68t-68.5 165v277q0 97 68.5 164.5t166.5 67.5zM447 223v277q0 60 -43 103t-103 43q-61 0 -103.5 -43t-42.5 -103v-277q0 -60 42.5 -103t103.5 -43q60 0 103 43t43 103z" />
    <glyph glyph-name="one" unicode="1" horiz-adv-x="346" 
d="M267 0h-91v590l-78 -59l-53 72l146 109h76v-712z" />
    <glyph glyph-name="two" unicode="2" horiz-adv-x="487" 
d="M410 393l-258 -305h298v-88h-416v88l304 356q24 34 24 72q0 50 -35 85t-85 35q-39 0 -70.5 -23t-43.5 -59l-86 18q18 67 73.5 109.5t126.5 42.5q86 0 147 -61t61 -147q0 -68 -40 -123z" />
    <glyph glyph-name="three" unicode="3" horiz-adv-x="497" 
d="M251 -11q-93 0 -160 65q-66 68 -66 160h90q0 -56 40 -96.5t96 -40.5t96 40.5t40 96.5t-40.5 95t-97.5 39v90q44 0 75.5 30.5t31.5 73.5q0 44 -31 75t-74 31t-73.5 -31t-30.5 -75h-90q0 80 57 136t137 56q81 0 138 -56t57 -136q0 -85 -68 -145q17 -10 31 -25
q68 -68 68 -158q0 -94 -66 -160q-67 -65 -160 -65z" />
    <glyph glyph-name="four" unicode="4" horiz-adv-x="584" 
d="M352 0v185h-332v65l330 462h92v-440h122v-87h-122v-185h-90zM352 272v292l-208 -292h208z" />
    <glyph glyph-name="five" unicode="5" horiz-adv-x="507" 
d="M405 399q72 -70 72 -173q0 -98 -72 -168q-71 -69 -175 -69t-174 69q-13 12 -27 31l74 53q47 -66 127 -66q64 0 109.5 44t45.5 106q0 63 -46 109t-109 46q-35 0 -69 -17l-96 27l87 321h312v-88l-242 1l-42 -159q16 2 50 2q103 0 175 -69z" />
    <glyph glyph-name="six" unicode="6" horiz-adv-x="523" 
d="M255 453q96 0 164 -68t68 -164t-68 -163.5t-164 -67.5q-97 0 -165 67.5t-68 163.5q0 58 29 113l229 378h105l-157 -260q9 1 27 1zM255 77q58 0 100 42.5t42 101.5t-42 101.5t-100 42.5q-59 0 -101 -42.5t-42 -101.5t42 -101.5t101 -42.5z" />
    <glyph glyph-name="seven" unicode="7" horiz-adv-x="452" 
d="M27 0l289 625h-288v87h403v-50l-305 -662h-99z" />
    <glyph glyph-name="eight" unicode="8" horiz-adv-x="537" 
d="M394 425q52 -32 81.5 -85.5t29.5 -113.5q0 -98 -70 -167t-168 -69t-167.5 69t-69.5 167q0 60 29.5 113.5t80.5 85.5q-54 54 -54 128q0 75 53 127t128 52t128.5 -52t53.5 -127t-55 -128zM267 645q-37 0 -64 -27t-27 -65t27 -65t64 -27q38 0 65 27t27 65t-27 65t-65 27z
M267 78q61 0 104.5 43.5t43.5 104.5t-43.5 104.5t-104.5 43.5t-104 -43.5t-43 -104.5t43 -104.5t104 -43.5z" />
    <glyph glyph-name="nine" unicode="9" horiz-adv-x="521" 
d="M264 733q96 0 164 -68t68 -164q0 -55 -28 -111l-1 -2l-234 -388h-106l165 273q-14 -3 -28 -3q-96 0 -164.5 67.5t-68.5 163.5t68.5 164t164.5 68zM264 357q59 0 101 42.5t42 101.5t-42 101.5t-101 42.5t-101 -42.5t-42 -101.5t42 -101.5t101 -42.5z" />
    <glyph glyph-name="colon" unicode=":" horiz-adv-x="214" 
d="M107 113q23 0 40 -16.5t17 -39.5q0 -24 -17 -40.5t-40 -16.5t-40 16.5t-17 40.5q0 23 17 39.5t40 16.5zM107 301q23 0 39.5 -16.5t16.5 -40.5q0 -23 -16.5 -39.5t-39.5 -16.5q-24 0 -40.5 16.5t-16.5 39.5q0 24 16.5 40.5t40.5 16.5z" />
    <glyph glyph-name="semicolon" unicode=";" horiz-adv-x="243" 
d="M137 110q23 0 39.5 -16.5t16.5 -39.5q0 -20 -12 -35q0 -3 -11 -14l-67 -71h-53l62 66q-11 5 -20 19q-12 13 -12 35q0 23 16.5 39.5t40.5 16.5zM136 188q-23 0 -39.5 16.5t-16.5 39.5q0 24 16.5 40.5t39.5 16.5q24 0 40.5 -16.5t16.5 -40.5q0 -23 -16.5 -39.5t-40.5 -16.5
z" />
    <glyph glyph-name="less" unicode="&#x3c;" horiz-adv-x="312" 
d="M262 282l-98 -52l98 -52v-92l-212 117v53l212 118v-92z" />
    <glyph glyph-name="equal" unicode="=" horiz-adv-x="401" 
d="M351 363v-86h-301v86h301zM351 186v-86h-301v86h301z" />
    <glyph glyph-name="greater" unicode="&#x3e;" horiz-adv-x="312" 
d="M50 178l98 52l-98 51v93l212 -118v-53l-212 -117v92z" />
    <glyph glyph-name="question" unicode="?" horiz-adv-x="400" 
d="M200 0q-24 0 -41 17t-17 42q0 24 17 41t41 17t41 -17t17 -41q0 -25 -17 -42t-41 -17zM247 196h-89q0 141 100 301q33 50 23 86q-9 34 -39 51q-22 12 -42 12q-12 0 -22 -3q-33 -9 -51 -40q-10 -20 -10 -43h-89q0 47 23 87q34 60 104 79q23 6 45 6q45 0 86 -21
q62 -36 80 -105q16 -59 -13 -110l-16 -24q-16 -25 -28 -49t-28 -60.5t-25 -80t-9 -86.5z" />
    <glyph glyph-name="at" unicode="@" horiz-adv-x="1002" 
d="M959 364q20 -114 -25 -209q-23 -47 -59 -77q-59 -48 -114.5 -41.5t-94 33.5t-51.5 59q-45 -48 -126 -48q-86 0 -147 59.5t-61 143.5t61 143.5t147 59.5q69 0 122 -38v14h87l1 -284h1q0 -13 9.5 -27.5t26 -23.5t36 -10t43 17.5t43.5 54.5q34 60 15 159q-27 149 -156 235.5
t-283 58.5t-244.5 -154.5t-63.5 -275.5t156 -235.5t283 -58.5q47 9 96 29l1 1l60 -68l-2 -1q-67 -32 -139 -44q-94 -18 -185 1q-89 20 -163 69q-73 48 -124 124q-52 78 -68 168q-17 93 5 180q19 83 72 160q53 74 129 122q78 49 172 66q95 17 184 -1q90 -20 163 -69
q77 -52 125 -124q52 -78 68 -168zM489 166q51 0 86.5 34.5t35.5 83.5q0 48 -35.5 83t-86.5 35q-50 0 -86 -35t-36 -83q0 -49 36 -83.5t86 -34.5z" />
    <glyph glyph-name="A" unicode="A" horiz-adv-x="682" 
d="M565 0l-79 207h-291l-79 -207h-96l274 712h93l275 -712h-97zM451 295l-110 288l-111 -288h221z" />
    <glyph glyph-name="B" unicode="B" horiz-adv-x="635" 
d="M65 0v712h256q71 0 119 -50q50 -48 50 -119q0 -54 -30 -96l-1 -1l1 -1q44 -17 75 -50q68 -66 68 -163q0 -95 -68 -163q-69 -69 -162 -69h-308zM154 87h219q58 1 99.5 44t41.5 101q0 59 -41.5 100.5t-99.5 42.5h-219v-288zM154 462h167q33 1 56.5 24.5t23.5 56.5t-23 57
t-57 25h-167v-163z" />
    <glyph glyph-name="C" unicode="C" horiz-adv-x="742" 
d="M407 77q67 0 126.5 29.5t100.5 83.5l70 -52q-53 -71 -131 -110t-166 -39q-155 0 -264 109.5t-109 263.5t109.5 263t263.5 109q88 0 166.5 -39.5t131.5 -110.5l-71 -52q-40 55 -99.5 84.5t-127.5 29.5q-118 0 -201.5 -83t-83.5 -201t83 -201.5t202 -83.5z" />
    <glyph glyph-name="D" unicode="D" horiz-adv-x="695" 
d="M65 0v712h230q151 0 258.5 -104.5t107.5 -251.5t-107.5 -251.5t-258.5 -104.5h-230zM295 87q114 0 195.5 79t81.5 190t-81.5 190t-195.5 79h-141v-538h141z" />
    <glyph glyph-name="E" unicode="E" horiz-adv-x="572" 
d="M90 0v712h450v-86h-360v-167h314v-89h-314v-282h351v-88h-441z" />
    <glyph glyph-name="F" unicode="F" horiz-adv-x="520" 
d="M65 0v712h450v-87h-360v-167h198v-88h-198v-370h-90z" />
    <glyph glyph-name="G" unicode="G" horiz-adv-x="767" 
d="M411 458h296v-315q-54 -72 -133.5 -113t-167.5 -41q-154 0 -263 109.5t-109 263.5t109 263t263 109q156 0 264 -110l-66 -58q-80 80 -198 80t-201 -83t-83 -201t83 -201.5t201 -83.5q127 0 214 96v197h-209v88z" />
    <glyph glyph-name="H" unicode="H" horiz-adv-x="685" 
d="M530 0v371h-365v-371h-90v712h90v-254h365v254h90v-712h-90z" />
    <glyph glyph-name="I" unicode="I" horiz-adv-x="270" 
d="M90 0v712h90v-712h-90z" />
    <glyph glyph-name="J" unicode="J" horiz-adv-x="415" 
d="M78 712h275v-711q0 -110 -77 -187q-76 -76 -187 -76q-109 0 -184 73l-2 2l74 54l1 -1q49 -41 111 -41q72 0 123.5 52t51.5 124v623h-186v88z" />
    <glyph glyph-name="K" unicode="K" horiz-adv-x="736" 
d="M613 0l-295 414l-154 -145v-269h-89v712h89v-323l343 323h128l-249 -235l340 -477h-113z" />
    <glyph glyph-name="L" unicode="L" horiz-adv-x="581" 
d="M75 0v712h90v-625h390v-87h-480z" />
    <glyph glyph-name="M" unicode="M" horiz-adv-x="810" 
d="M721 0h-89v568l-227 -310l-226 310v-568h-89v712h94l221 -304l221 304h95v-712z" />
    <glyph glyph-name="N" unicode="N" horiz-adv-x="748" 
d="M561 0l-381 563v-563h-90v712h98l380 -563v563h90v-712h-97z" />
    <glyph glyph-name="O" unicode="O" horiz-adv-x="813" 
d="M406 734q154 0 263.5 -109.5t109.5 -263.5t-109.5 -262.5t-263.5 -108.5t-263 108.5t-109 262.5t109 263.5t263 109.5zM406 78q117 0 199.5 83t82.5 200t-82.5 201t-199.5 84t-199.5 -84t-82.5 -201t82.5 -200t199.5 -83z" />
    <glyph glyph-name="P" unicode="P" horiz-adv-x="527" 
d="M75 0v712h248q70 0 120 -50t50 -120t-50 -119.5t-120 -49.5h-159v-373h-89zM323 460q33 0 56.5 24t23.5 58t-23.5 58.5t-56.5 24.5h-159v-165h159z" />
    <glyph glyph-name="Q" unicode="Q" horiz-adv-x="839" 
d="M697 132l132 -132h-125l-69 69q-103 -79 -231 -79q-154 0 -263 108.5t-109 262.5t109 263.5t263 109.5t263.5 -109t109.5 -264q0 -128 -80 -229zM436 393l197 -197q54 73 54 165q0 117 -83 201t-200 84q-116 0 -199 -84t-83 -201q0 -116 83 -199.5t199 -83.5q91 0 167 55
l-198 197z" />
    <glyph glyph-name="R" unicode="R" horiz-adv-x="638" 
d="M353 379l275 -379h-103l-272 374h-102v-374h-86v712h247q69 0 119 -50t50 -119q0 -58 -36 -104t-92 -60zM151 626v-166h161q34 0 58.5 24t24.5 59t-24.5 59t-58.5 24h-161z" />
    <glyph glyph-name="S" unicode="S" horiz-adv-x="601" 
d="M315 -7q-34 0 -72 8q-113 23 -212 108l59 67q82 -71 171 -89q77 -17 138 11q71 33 71 103q0 51 -43.5 77t-114.5 40q-8 1 -35.5 7.5t-68 18.5t-60.5 24q-92 55 -92 156q0 54 33 103q32 42 84 67q76 36 169 21q101 -17 189 -90l-57 -69q-49 40 -100.5 58.5t-91 17
t-71.5 -16.5q-30 -14 -47.5 -38.5t-17.5 -51.5q0 -48 37 -72.5t113 -41.5q5 -1 34 -7.5t46 -10.5t42.5 -13t41.5 -18q99 -55 99 -161q0 -63 -34 -112q-29 -41 -89 -71q-50 -25 -121 -25z" />
    <glyph glyph-name="T" unicode="T" horiz-adv-x="520" 
d="M215 0v624h-188v88h466v-88h-188v-624h-90z" />
    <glyph glyph-name="U" unicode="U" horiz-adv-x="683" 
d="M523 712h90v-451q0 -112 -79.5 -191.5t-192.5 -79.5q-112 0 -191.5 79.5t-79.5 191.5v451h89v-451q0 -76 53.5 -130t128.5 -54q76 0 129 54t53 130v451z" />
    <glyph glyph-name="V" unicode="V" horiz-adv-x="682" 
d="M20 712h97l224 -583l225 583h96l-274 -712h-93z" />
    <glyph glyph-name="W" unicode="W" horiz-adv-x="1049" 
d="M734 0l-210 367l-209 -367h-96l-199 712h94l165 -595l195 342h101l194 -342l166 595h94l-199 -712h-96z" />
    <glyph glyph-name="X" unicode="X" horiz-adv-x="685" 
d="M556 0l-213 298l-214 -298h-109l268 374l-242 338h110l187 -261l187 261h109l-242 -338l268 -374h-109z" />
    <glyph glyph-name="Y" unicode="Y" horiz-adv-x="625" 
d="M267 0v360l-251 352h110l187 -261l187 261h109l-251 -352v-360h-91z" />
    <glyph glyph-name="Z" unicode="Z" horiz-adv-x="570" 
d="M66 0v98l359 529h-360v85h449v-110l-350 -517h351v-85h-449z" />
    <glyph glyph-name="bracketleft" unicode="[" horiz-adv-x="274" 
d="M55 0v734h164v-85h-78v-564h78v-85h-164z" />
    <glyph glyph-name="backslash" unicode="\" horiz-adv-x="386" 
d="M6 712h97l276 -712h-97z" />
    <glyph glyph-name="bracketright" unicode="]" horiz-adv-x="274" 
d="M55 0v85h78v564h-78v85h164v-734h-164z" />
    <glyph glyph-name="underscore" unicode="_" horiz-adv-x="479" 
d="M429 84v-84h-379v84h379z" />
    <glyph glyph-name="grave" unicode="`" horiz-adv-x="149" 
d="M15 635h68l51 -107h-36z" />
    <glyph glyph-name="a" unicode="a" 
d="M426 405v53h86v-458h-86v53q-75 -63 -154 -63q-99 0 -170 69q-70 72 -70 170t70 170q71 69 170 69q79 0 154 -63zM272 74q64 0 109 45.5t45 109.5t-45 109.5t-109 45.5t-109 -45.5t-45 -109.5t45 -109.5t109 -45.5z" />
    <glyph glyph-name="b" unicode="b" horiz-adv-x="577" 
d="M474 399q71 -71 71 -170t-71 -170q-69 -69 -169 -69q-79 0 -154 63v-53h-86v734h86v-329q75 63 154 63q100 0 169 -69zM305 74q64 0 109 45.5t45 109.5t-45 109.5t-109 45.5t-109 -45.5t-45 -109.5t45 -109.5t109 -45.5z" />
    <glyph glyph-name="c" unicode="c" horiz-adv-x="498" 
d="M396 139l70 -51q-16 -20 -25 -29q-69 -69 -169 -69q-101 0 -170 69q-70 72 -70 170t70 170q69 69 170 69q100 0 169 -69q15 -15 24 -28l-69 -51q-47 64 -124 64q-64 0 -109 -45.5t-45 -109.5t45 -109.5t109 -45.5q77 0 124 65z" />
    <glyph glyph-name="d" unicode="d" horiz-adv-x="564" 
d="M426 405v329h86v-734h-86v53q-75 -63 -154 -63q-99 0 -170 69q-70 72 -70 170t70 170q71 69 170 69q79 0 154 -63zM272 74q64 0 109 45.5t45 109.5t-45 109.5t-109 45.5t-109 -45.5t-45 -109.5t45 -109.5t109 -45.5z" />
    <glyph glyph-name="e" unicode="e" horiz-adv-x="499" 
d="M463 281q8 -47 5 -73h-353v-2q7 -57 45 -95t88 -39q67 3 112 48l72 -43q-28 -31 -61 -51q-51 -31 -121 -34q-93 0 -155 70q-56 61 -62 144q-1 7 -1 21q0 27 6 54q13 63 57 111q63 69 155 69t156 -69q45 -50 57 -111zM122 280h256l-1 2q-15 44 -50 71.5t-77 27.5
q-41 0 -76 -27.5t-51 -71.5z" />
    <glyph glyph-name="f" unicode="f" horiz-adv-x="364" 
d="M254 734h101l-22 -82h-77q-27 0 -47.5 -21t-20.5 -49v-124h141v-82h-141v-376h-86v376h-68v82h68v126q0 63 44.5 106.5t107.5 43.5z" />
    <glyph glyph-name="g" unicode="g" 
d="M426 458h86v-480q0 -101 -71 -170q-70 -70 -169 -70q-70 0 -129 35q-21 12 -43 33l65 57q48 -38 107 -41q64 0 109 46t45 110v75q-75 -63 -154 -63q-99 0 -170 69q-70 72 -70 170t70 170q71 69 170 69q79 0 154 -63v53zM272 74q64 0 109 45.5t45 109.5t-45 109.5
t-109 45.5t-109 -45.5t-45 -109.5t45 -109.5t109 -45.5z" />
    <glyph glyph-name="h" unicode="h" horiz-adv-x="534" 
d="M424 403q64 -66 64 -157v-246h-86v246q0 56 -39.5 96.5t-95.5 40.5q-55 0 -95 -40.5t-40 -96.5v-246h-86v734h86v-320q69 53 135 53q93 0 157 -64z" />
    <glyph glyph-name="i" unicode="i" horiz-adv-x="243" 
d="M122 532q-24 0 -40.5 17t-16.5 40t16.5 39.5t40.5 16.5q23 0 39.5 -16.5t16.5 -39.5t-16.5 -40t-39.5 -17zM79 0v458h86v-458h-86z" />
    <glyph glyph-name="j" unicode="j" horiz-adv-x="203" 
d="M97 532q-24 0 -40.5 17t-16.5 40t16.5 39.5t40.5 16.5q23 0 39.5 -16.5t16.5 -39.5t-16.5 -40t-39.5 -17zM54 -52v510h86v-499q0 -89 -62 -151q-49 -46 -118 -63l-12 85q39 9 70 37l1 1q32 32 35 80z" />
    <glyph glyph-name="k" unicode="k" horiz-adv-x="498" 
d="M276 292l212 -292h-109l-168 232l-79 -74v-158h-86v734h86v-461l199 185h123z" />
    <glyph glyph-name="l" unicode="l" horiz-adv-x="206" 
d="M141 0h-86v734h86v-734z" />
    <glyph glyph-name="m" unicode="m" horiz-adv-x="891" 
d="M780 403q65 -65 65 -157v-246h-86v246q0 56 -40 96.5t-95 40.5q-56 0 -96 -40.5t-40 -96.5v-246h-86v246q0 56 -39.5 96.5t-95.5 40.5q-55 0 -95 -40.5t-40 -96.5v-246h-86v458h86v-44q69 53 135 53q89 0 157 -68q13 -13 21 -25q11 13 22 25q68 68 157 68q92 0 156 -64z
" />
    <glyph glyph-name="n" unicode="n" horiz-adv-x="540" 
d="M430 403q64 -66 64 -157v-246h-86v246q0 56 -39.5 96.5t-95.5 40.5q-55 0 -95 -40.5t-40 -96.5v-246h-86v458h86v-44q69 53 135 53q93 0 157 -64z" />
    <glyph glyph-name="o" unicode="o" horiz-adv-x="548" 
d="M442 399q71 -71 71 -170t-71 -170q-70 -70 -169 -70q-98 0 -170 70q-70 72 -70 170t70 170q71 69 170 69q100 0 169 -69zM273 75q64 0 109 45t45 109t-45 108.5t-109 44.5t-109 -44.5t-45 -108.5t45 -109t109 -45z" />
    <glyph glyph-name="p" unicode="p" 
d="M455 399q71 -71 71 -170t-71 -170q-69 -69 -169 -69q-79 0 -154 63v-315h-86v720h86v-53q75 63 154 63q100 0 169 -69zM286 74q64 0 109 45.5t45 109.5t-45 109.5t-109 45.5t-109 -45.5t-45 -109.5t45 -109.5t109 -45.5z" />
    <glyph glyph-name="q" unicode="q" 
d="M426 405v53h86v-720h-86v315q-75 -63 -154 -63q-99 0 -170 69q-70 72 -70 170t70 170q71 69 170 69q79 0 154 -63zM272 74q64 0 109 45.5t45 109.5t-45 109.5t-109 45.5t-109 -45.5t-45 -109.5t45 -109.5t109 -45.5z" />
    <glyph glyph-name="r" unicode="r" horiz-adv-x="327" 
d="M151 458v-47q21 23 73 40t94 17l-21 -86q-60 0 -103 -40t-43 -98v-244h-86v458h86z" />
    <glyph glyph-name="s" unicode="s" horiz-adv-x="413" 
d="M358 205q21 -30 21 -70q0 -41 -22 -72q-20 -30 -61 -50q-37 -17 -82 -17q-20 0 -47 5q-78 16 -137 66l54 59q64 -54 126 -54q28 0 53 11q36 17 36 52q0 45 -89 61l-14 3q-14 3 -30 7t-34.5 10t-28.5 11q-64 37 -64 107q0 37 22 70q19 27 57 44q37 17 79 17q12 0 34 -2
q68 -11 123 -55l-50 -58q-51 40 -103 40q-29 0 -49 -10q-33 -16 -33 -46q0 -22 19.5 -35.5t65.5 -23.5q1 0 22 -5t47.5 -12.5t36.5 -13.5q29 -15 48 -39z" />
    <glyph glyph-name="t" unicode="t" horiz-adv-x="355" 
d="M237 0q-63 0 -107.5 44t-44.5 108v224h-68v82h68v177h86v-177h141v-82h-141v-222q0 -28 20.5 -50t47.5 -22h77l22 -82h-101z" />
    <glyph glyph-name="u" unicode="u" horiz-adv-x="544" 
d="M122 49q-62 60 -62 147v262h86v-262q0 -50 37 -86t89 -36t89 36t37 86v262h86v-262q0 -86 -63 -147q-61 -59 -149 -59q-89 0 -150 59z" />
    <glyph glyph-name="v" unicode="v" horiz-adv-x="507" 
d="M393 458h93l-186 -458h-93l-186 458h93l140 -344z" />
    <glyph glyph-name="w" unicode="w" horiz-adv-x="704" 
d="M590 458h87l-86 -458h-91l-148 261l-148 -261h-91l-86 458h87l64 -338l127 224h94l127 -224z" />
    <glyph glyph-name="x" unicode="x" horiz-adv-x="561" 
d="M517 458l-180 -216l203 -242h-112l-148 175l-147 -175h-112l203 242l-181 216h113l124 -149l125 149h112z" />
    <glyph glyph-name="y" unicode="y" horiz-adv-x="506" 
d="M485 458l-292 -720h-93l107 262l-186 458h93l139 -344l139 344h93z" />
    <glyph glyph-name="z" unicode="z" horiz-adv-x="407" 
d="M27 458h352v-84l-240 -292h241v-82h-352v84l240 292h-241v82z" />
    <glyph glyph-name="braceleft" unicode="{" horiz-adv-x="356" 
d="M55 315v85q23 11 27 20q17 32 17 84q0 23 11.5 57.5t20.5 53.5t13 26q28 57 72 94q48 39 105 39v-86q-26 0 -52.5 -23t-48.5 -63q-35 -70 -35 -98q0 -55 -35 -123q-4 -9 -14 -23q9 -12 14 -24q35 -68 35 -123q0 -28 35 -98q22 -40 48.5 -63t52.5 -23v-86q-57 0 -105 40
q-42 34 -72 93q-4 7 -13 26t-20.5 53.5t-11.5 57.5q0 52 -17 84q-4 9 -27 20z" />
    <glyph glyph-name="bar" unicode="|" horiz-adv-x="220" 
d="M75 -163v1040h70v-1040h-70z" />
    <glyph glyph-name="braceright" unicode="}" horiz-adv-x="356" 
d="M301 400v-85l-3 -1l-8 -4t-8.5 -6t-6.5 -9q-18 -34 -18 -84q0 -23 -11.5 -57.5t-20.5 -53.5t-13 -26q-31 -61 -72 -93q-48 -40 -105 -40v86q26 0 53 23t48 63q36 72 36 98q0 57 34 123q8 14 15 24q-10 14 -15 23q-34 66 -34 123q0 26 -36 98q-21 40 -48 63t-53 23v86
q57 0 105 -39q42 -35 72 -94q4 -7 13 -26t20.5 -53.5t11.5 -57.5q0 -50 18 -84q2 -5 6.5 -9t8.5 -6t8 -3z" />
    <glyph glyph-name="exclamdown" unicode="&#xa1;" horiz-adv-x="267" 
d="M89 272h89v-534h-89v534zM134 467q24 0 41 -17t17 -41t-17 -41.5t-41 -17.5t-41.5 17.5t-17.5 41.5t17.5 41t41.5 17z" />
    <glyph glyph-name="sterling" unicode="&#xa3;" horiz-adv-x="428" 
d="M257 198q0 -67 -23 -112h169v-86h-378l21 86q63 0 94 26.5t31 85.5v174h-68v86h68v86q0 112 68 156q24 16 54 24t49 9t61 1l-22 -86q-63 0 -93.5 -23t-30.5 -81v-86h141v-86h-141v-174z" />
    <glyph glyph-name="yen" unicode="&#xa5;" horiz-adv-x="626" 
d="M609 712l-245 -344h99v-80h-105v-39h105v-80h-105v-169h-91v169h-104v80h104v39h-104v80h98l-245 344h110l187 -261l187 261h109z" />
    <glyph glyph-name="dieresis" unicode="&#xa8;" horiz-adv-x="344" 
d="M253 520q-19 0 -33.5 14t-14.5 34q0 19 14 33t34 14q19 0 33 -13.5t14 -33.5t-14 -34t-33 -14zM91 520q-19 0 -33 14t-14 34t14 33.5t33 13.5q20 0 34 -14t14 -33q0 -20 -14.5 -34t-33.5 -14z" />
    <glyph glyph-name="copyright" unicode="&#xa9;" horiz-adv-x="762" 
d="M385 504q-61 0 -104.5 -43.5t-43.5 -104.5t43.5 -104.5t104.5 -43.5q72 0 118 59l51 -38q-64 -84 -169 -84q-88 0 -150 61.5t-62 149.5t62 150t150 62q105 0 169 -86l-51 -38q-44 60 -118 60zM699 492q27 -64 27 -135t-27 -135q-27 -63 -74 -110q-48 -48 -111 -75
t-134 -27q-72 0 -135 27t-111 75q-47 47 -74 110q-27 64 -27 135t27 135q27 61 74 110q49 49 111 74q63 27 135 27q71 0 134 -27q62 -25 111 -74q47 -49 74 -110zM380 74q116 0 199 83t83 200q0 116 -83 199t-199 83q-117 0 -200 -83t-83 -199q0 -117 83 -200t200 -83z" />
    <glyph glyph-name="registered" unicode="&#xae;" horiz-adv-x="762" 
d="M484 470q0 -31 -17.5 -56.5t-46.5 -36.5l153 -211h-77l-148 204h-44v-204h-63v405h143q41 0 71 -30q29 -29 29 -71zM304 433h80q16 0 27 11t11 26q0 16 -11 27t-27 11h-80v-75zM698 492q27 -64 27 -135t-27 -135q-27 -63 -74 -110q-48 -48 -111 -75t-134 -27
q-72 0 -135 27t-111 75q-47 47 -74 110q-27 64 -27 135t27 135q27 61 74 110q49 49 111 74q63 27 135 27q71 0 134 -27q62 -25 111 -74q47 -49 74 -110zM379 74q116 0 199 83t83 200q0 116 -83 199t-199 83q-117 0 -200 -83t-83 -199q0 -117 83 -200t200 -83z" />
    <glyph glyph-name="macron" unicode="&#xaf;" horiz-adv-x="424" 
d="M49 563v43h325v-43h-325z" />
    <glyph glyph-name="degree" unicode="&#xb0;" horiz-adv-x="335" 
d="M166 727q55 0 94 -37.5t39 -91.5q0 -53 -39 -90.5t-94 -37.5t-93.5 37.5t-38.5 90.5q0 54 38.5 91.5t93.5 37.5zM166 549q21 0 36 14.5t15 34.5t-15 35t-36 15t-36 -15t-15 -35t15 -34.5t36 -14.5z" />
    <glyph glyph-name="acute" unicode="&#xb4;" horiz-adv-x="148" 
d="M14 528l51 107h68l-83 -107h-36z" />
    <glyph glyph-name="cedilla" unicode="&#xb8;" horiz-adv-x="167" 
d="M105 4h45l-55 -115h-79z" />
    <glyph glyph-name="questiondown" unicode="&#xbf;" horiz-adv-x="386" 
d="M195 470q24 0 41 -17.5t17 -41.5t-17 -41t-41 -17t-41 17t-17 41t17 41.5t41 17.5zM148 274h90q0 -139 -101 -301q-31 -50 -23 -86q9 -34 40 -51q21 -12 41 -12q11 0 22 3q33 9 51 40q9 16 11 43h88q0 -46 -22 -87q-35 -60 -104 -79q-23 -6 -46 -6q-49 0 -85 21
q-63 36 -81 105q-16 59 13 110l16 24q15 25 27.5 49t28.5 60.5t25 79.5t9 87z" />
    <glyph glyph-name="Agrave" unicode="&#xc0;" horiz-adv-x="682" 
d="M565 0l-79 207h-291l-79 -207h-96l274 712h93l275 -712h-97zM451 295l-110 288l-111 -288h221zM236 889h68l51 -107h-36z" />
    <glyph glyph-name="Aacute" unicode="&#xc1;" horiz-adv-x="682" 
d="M565 0l-79 207h-291l-79 -207h-96l274 712h93l275 -712h-97zM451 295l-110 288l-111 -288h221zM324 782l51 107h68l-83 -107h-36z" />
    <glyph glyph-name="Acircumflex" unicode="&#xc2;" horiz-adv-x="682" 
d="M565 0l-79 207h-291l-79 -207h-96l274 712h93l275 -712h-97zM451 295l-110 288l-111 -288h221zM225 782l80 107h68l82 -107h-38l-78 72l-77 -72h-37z" />
    <glyph glyph-name="Atilde" unicode="&#xc3;" horiz-adv-x="682" 
d="M565 0l-79 207h-291l-79 -207h-96l274 712h93l275 -712h-97zM451 295l-110 288l-111 -288h221zM376 802q-18 0 -43 17q-16 9 -22 10q-18 3 -32 -22l-34 22q25 41 66 41q17 0 41 -16v1q17 -11 24 -12q17 -2 32 21l35 -22q-28 -40 -67 -40z" />
    <glyph glyph-name="Adieresis" unicode="&#xc4;" horiz-adv-x="682" 
d="M565 0l-79 207h-291l-79 -207h-96l274 712h93l275 -712h-97zM451 295l-110 288l-111 -288h221zM422 774q-20 0 -34 14t-14 34q0 19 14 33t34 14t33.5 -13.5t13.5 -33.5t-14 -34t-33 -14zM260 774q-19 0 -33 14t-14 34t13.5 33.5t33.5 13.5t34 -14t14 -33q0 -20 -14 -34
t-34 -14z" />
    <glyph glyph-name="Aring" unicode="&#xc5;" horiz-adv-x="682" 
d="M565 0l-79 207h-291l-79 -207h-96l274 712h93l275 -712h-97zM451 295l-110 288l-111 -288h221zM341 907q31 0 52.5 -21t21.5 -51t-21.5 -51t-52.5 -21t-53 21t-22 51t22 51t53 21zM341 800q15 0 25.5 10.5t10.5 24.5t-10.5 24.5t-25.5 10.5t-25.5 -10.5t-10.5 -24.5
t10.5 -24.5t25.5 -10.5z" />
    <glyph glyph-name="AE" unicode="&#xc6;" horiz-adv-x="857" 
d="M837 712v-86h-360v-199h314v-89h-314v-250h351v-88h-441v207h-192l-79 -207h-96l274 712h543zM356 626l-126 -331h157v331h-31z" />
    <glyph glyph-name="Ccedilla" unicode="&#xc7;" horiz-adv-x="742" 
d="M406 77q67 0 126.5 29.5t100.5 83.5l70 -52q-50 -67 -121.5 -105t-154.5 -43l-61 -127h-94l99 128q-142 13 -240 119.5t-98 251.5q0 154 109.5 263t263.5 109q88 0 166.5 -39.5t131.5 -110.5l-71 -52q-40 55 -99.5 84.5t-127.5 29.5q-118 0 -201.5 -83t-83.5 -201
t83.5 -201.5t201.5 -83.5z" />
    <glyph glyph-name="Egrave" unicode="&#xc8;" horiz-adv-x="572" 
d="M90 0v712h450v-86h-360v-167h314v-89h-314v-282h351v-88h-441zM213 889h68l51 -107h-36z" />
    <glyph glyph-name="Eacute" unicode="&#xc9;" horiz-adv-x="572" 
d="M90 0v712h450v-86h-360v-167h314v-89h-314v-282h351v-88h-441zM309 782l51 107h68l-83 -107h-36z" />
    <glyph glyph-name="Ecircumflex" unicode="&#xca;" horiz-adv-x="572" 
d="M90 0v712h450v-86h-360v-167h314v-89h-314v-282h351v-88h-441zM212 782l80 107h68l82 -107h-38l-78 72l-77 -72h-37z" />
    <glyph glyph-name="Edieresis" unicode="&#xcb;" horiz-adv-x="572" 
d="M90 0v712h450v-86h-360v-167h314v-89h-314v-282h351v-88h-441zM409 774q-19 0 -33.5 14t-14.5 34q0 19 14 33t34 14q19 0 33 -13.5t14 -33.5t-14 -34t-33 -14zM247 774q-19 0 -33 14t-14 34t14 33.5t33 13.5q20 0 34 -14t14 -33q0 -20 -14.5 -34t-33.5 -14z" />
    <glyph glyph-name="Igrave" unicode="&#xcc;" horiz-adv-x="261" 
d="M84 0v712h90v-712h-90zM23 889h68l51 -107h-36z" />
    <glyph glyph-name="Iacute" unicode="&#xcd;" horiz-adv-x="260" 
d="M81 0v712h90v-712h-90zM112 782l51 107h68l-83 -107h-36z" />
    <glyph glyph-name="Icircumflex" unicode="&#xce;" horiz-adv-x="310" 
d="M108 0v712h90v-712h-90zM40 782l80 107h68l82 -107h-38l-78 72l-77 -72h-37z" />
    <glyph glyph-name="Idieresis" unicode="&#xcf;" horiz-adv-x="336" 
d="M121 0v712h90v-712h-90zM249 774q-19 0 -33.5 14t-14.5 34q0 19 14 33t34 14q19 0 33 -13.5t14 -33.5t-14 -34t-33 -14zM87 774q-19 0 -33 14t-14 34t14 33.5t33 13.5q20 0 34 -14t14 -33q0 -20 -14.5 -34t-33.5 -14z" />
    <glyph glyph-name="Eth" unicode="&#xd0;" horiz-adv-x="739" 
d="M109 712h230q151 0 258.5 -104.5t107.5 -251.5t-107.5 -251.5t-258.5 -104.5h-230v318h-134v76h134v318zM198 87h141q114 0 195.5 79t81.5 190t-81.5 190t-195.5 79h-141v-231h133v-76h-133v-231z" />
    <glyph glyph-name="Ntilde" unicode="&#xd1;" horiz-adv-x="748" 
d="M561 0l-381 563v-563h-90v712h98l380 -563v563h90v-712h-97zM425 802q-18 0 -43 17q-16 9 -22 10q-18 3 -32 -22l-34 22q25 41 66 41q17 0 41 -16v1q17 -11 24 -12q17 -2 32 21l35 -22q-28 -40 -67 -40z" />
    <glyph glyph-name="Ograve" unicode="&#xd2;" horiz-adv-x="813" 
d="M406 734q154 0 263.5 -109.5t109.5 -263.5t-109.5 -262.5t-263.5 -108.5t-263 108.5t-109 262.5t109 263.5t263 109.5zM406 78q117 0 199.5 83t82.5 200t-82.5 201t-199.5 84t-199.5 -84t-82.5 -201t82.5 -200t199.5 -83zM303 889h68l51 -107h-36z" />
    <glyph glyph-name="Oacute" unicode="&#xd3;" horiz-adv-x="813" 
d="M406 734q154 0 263.5 -109.5t109.5 -263.5t-109.5 -262.5t-263.5 -108.5t-263 108.5t-109 262.5t109 263.5t263 109.5zM406 78q117 0 199.5 83t82.5 200t-82.5 201t-199.5 84t-199.5 -84t-82.5 -201t82.5 -200t199.5 -83zM388 782l51 107h68l-83 -107h-36z" />
    <glyph glyph-name="Ocircumflex" unicode="&#xd4;" horiz-adv-x="813" 
d="M406 734q154 0 263.5 -109.5t109.5 -263.5t-109.5 -262.5t-263.5 -108.5t-263 108.5t-109 262.5t109 263.5t263 109.5zM406 78q117 0 199.5 83t82.5 200t-82.5 201t-199.5 84t-199.5 -84t-82.5 -201t82.5 -200t199.5 -83zM292 782l80 107h68l82 -107h-38l-78 72l-77 -72
h-37z" />
    <glyph glyph-name="Otilde" unicode="&#xd5;" horiz-adv-x="813" 
d="M406 734q154 0 263.5 -109.5t109.5 -263.5t-109.5 -262.5t-263.5 -108.5t-263 108.5t-109 262.5t109 263.5t263 109.5zM406 78q117 0 199.5 83t82.5 200t-82.5 201t-199.5 84t-199.5 -84t-82.5 -201t82.5 -200t199.5 -83zM447 802q-18 0 -43 17q-16 9 -22 10
q-18 3 -32 -22l-34 22q25 41 66 41q17 0 41 -16v1q17 -11 24 -12q17 -2 32 21l35 -22q-28 -40 -67 -40z" />
    <glyph glyph-name="Odieresis" unicode="&#xd6;" horiz-adv-x="813" 
d="M406 734q154 0 263.5 -109.5t109.5 -263.5t-109.5 -262.5t-263.5 -108.5t-263 108.5t-109 262.5t109 263.5t263 109.5zM406 78q117 0 199.5 83t82.5 200t-82.5 201t-199.5 84t-199.5 -84t-82.5 -201t82.5 -200t199.5 -83zM492 774q-20 0 -34 14t-14 34q0 19 14 33t34 14
t33.5 -13.5t13.5 -33.5t-14 -34t-33 -14zM330 774q-19 0 -33 14t-14 34t13.5 33.5t33.5 13.5t34 -14t14 -33q0 -20 -14 -34t-34 -14z" />
    <glyph glyph-name="multiply" unicode="&#xd7;" horiz-adv-x="340" 
d="M34 153l76 76l-76 77l59 59l77 -76l76 76l60 -59l-77 -77l77 -76l-60 -59l-76 76l-77 -76z" />
    <glyph glyph-name="Oslash" unicode="&#xd8;" horiz-adv-x="813" 
d="M691 713l57 -56l-56 -57q87 -103 87 -239q0 -154 -109 -262.5t-264 -108.5q-134 0 -239 87l-76 -77l-57 57l78 77q-78 100 -78 227q0 154 109 263t263 109q127 0 228 -77zM124 361q0 -90 52 -162l394 393q-74 53 -164 53q-116 0 -199 -83.5t-83 -200.5zM406 78
q117 0 200 83.5t83 199.5q0 97 -61 176l-397 -397q76 -62 175 -62z" />
    <glyph glyph-name="Ugrave" unicode="&#xd9;" horiz-adv-x="678" 
d="M523 712h90v-451q0 -112 -79.5 -191.5t-192.5 -79.5q-112 0 -191.5 79.5t-79.5 191.5v451h89v-451q0 -76 53.5 -130t128.5 -54q76 0 129 54t53 130v451zM242 889h68l51 -107h-36z" />
    <glyph glyph-name="Uacute" unicode="&#xda;" horiz-adv-x="678" 
d="M523 712h90v-451q0 -112 -79.5 -191.5t-192.5 -79.5q-112 0 -191.5 79.5t-79.5 191.5v451h89v-451q0 -76 53.5 -130t128.5 -54q76 0 129 54t53 130v451zM333 782l51 107h68l-83 -107h-36z" />
    <glyph glyph-name="Ucircumflex" unicode="&#xdb;" horiz-adv-x="678" 
d="M523 712h90v-451q0 -112 -79.5 -191.5t-192.5 -79.5q-112 0 -191.5 79.5t-79.5 191.5v451h89v-451q0 -76 53.5 -130t128.5 -54q76 0 129 54t53 130v451zM227 782l80 107h68l82 -107h-38l-78 72l-77 -72h-37z" />
    <glyph glyph-name="Udieresis" unicode="&#xdc;" horiz-adv-x="678" 
d="M523 712h90v-451q0 -112 -79.5 -191.5t-192.5 -79.5q-112 0 -191.5 79.5t-79.5 191.5v451h89v-451q0 -76 53.5 -130t128.5 -54q76 0 129 54t53 130v451zM424 774q-20 0 -34 14t-14 34q0 19 14 33t34 14t33.5 -13.5t13.5 -33.5t-14 -34t-33 -14zM262 774q-19 0 -33 14
t-14 34t13.5 33.5t33.5 13.5t34 -14t14 -33q0 -20 -14 -34t-34 -14z" />
    <glyph glyph-name="Yacute" unicode="&#xdd;" horiz-adv-x="625" 
d="M267 0v360l-251 352h110l187 -261l187 261h109l-251 -352v-360h-91zM305 782l51 107h68l-83 -107h-36z" />
    <glyph glyph-name="Thorn" unicode="&#xde;" horiz-adv-x="527" 
d="M443 476q50 -52 50 -121q0 -70 -50 -119.5t-120 -49.5h-158v-186h-90v712h90v-187h158q71 0 120 -49zM165 274h158q33 0 56.5 24t23.5 57q0 34 -23.5 58.5t-56.5 24.5h-158v-164z" />
    <glyph glyph-name="germandbls" unicode="&#xdf;" horiz-adv-x="513" 
d="M407 385q67 -65 67 -159q0 -95 -67 -160q-68 -66 -161 -66v87q58 0 99.5 41t41.5 98t-41 97t-100 40v87q39 0 66.5 27t27.5 65t-27.5 64.5t-66.5 26.5q-38 0 -65.5 -27t-27.5 -64v-542h-88v542q0 73 53.5 125.5t127.5 52.5q75 0 128 -52t53 -126q0 -76 -55 -129
q21 -14 35 -28z" />
    <glyph glyph-name="agrave" unicode="&#xe0;" 
d="M426 405v53h86v-458h-86v53q-75 -63 -154 -63q-99 0 -170 69q-70 72 -70 170t70 170q71 69 170 69q79 0 154 -63zM272 74q64 0 109 45.5t45 109.5t-45 109.5t-109 45.5t-109 -45.5t-45 -109.5t45 -109.5t109 -45.5zM162 640h68l51 -107h-36z" />
    <glyph glyph-name="aacute" unicode="&#xe1;" 
d="M426 405v53h86v-458h-86v53q-75 -63 -154 -63q-99 0 -170 69q-70 72 -70 170t70 170q71 69 170 69q79 0 154 -63zM272 74q64 0 109 45.5t45 109.5t-45 109.5t-109 45.5t-109 -45.5t-45 -109.5t45 -109.5t109 -45.5zM259 528l51 107h68l-83 -107h-36z" />
    <glyph glyph-name="acircumflex" unicode="&#xe2;" 
d="M426 405v53h86v-458h-86v53q-75 -63 -154 -63q-99 0 -170 69q-70 72 -70 170t70 170q71 69 170 69q79 0 154 -63zM272 74q64 0 109 45.5t45 109.5t-45 109.5t-109 45.5t-109 -45.5t-45 -109.5t45 -109.5t109 -45.5zM161 528l80 107h68l82 -107h-38l-78 72l-77 -72h-37z
" />
    <glyph glyph-name="atilde" unicode="&#xe3;" 
d="M426 405v53h86v-458h-86v53q-75 -63 -154 -63q-99 0 -170 69q-70 72 -70 170t70 170q71 69 170 69q79 0 154 -63zM272 74q64 0 109 45.5t45 109.5t-45 109.5t-109 45.5t-109 -45.5t-45 -109.5t45 -109.5t109 -45.5zM309 548q-18 0 -43 17q-16 9 -22 10q-18 3 -32 -22
l-34 22q25 41 66 41q17 0 41 -16v1q17 -11 24 -12q17 -2 32 21l35 -22q-28 -40 -67 -40z" />
    <glyph glyph-name="adieresis" unicode="&#xe4;" 
d="M426 405v53h86v-458h-86v53q-75 -63 -154 -63q-99 0 -170 69q-70 72 -70 170t70 170q71 69 170 69q79 0 154 -63zM272 74q64 0 109 45.5t45 109.5t-45 109.5t-109 45.5t-109 -45.5t-45 -109.5t45 -109.5t109 -45.5zM354 520q-20 0 -34 14t-14 34q0 19 14 33t34 14
t33.5 -13.5t13.5 -33.5t-14 -34t-33 -14zM192 520q-19 0 -33 14t-14 34t13.5 33.5t33.5 13.5t34 -14t14 -33q0 -20 -14 -34t-34 -14z" />
    <glyph glyph-name="aring" unicode="&#xe5;" 
d="M426 405v53h86v-458h-86v53q-75 -63 -154 -63q-99 0 -170 69q-70 72 -70 170t70 170q71 69 170 69q79 0 154 -63zM272 74q64 0 109 45.5t45 109.5t-45 109.5t-109 45.5t-109 -45.5t-45 -109.5t45 -109.5t109 -45.5zM274 653q31 0 52.5 -21t21.5 -51t-21.5 -51t-52.5 -21
t-53 21t-22 51t22 51t53 21zM274 546q15 0 25.5 10.5t10.5 24.5t-10.5 24.5t-25.5 10.5t-25.5 -10.5t-10.5 -24.5t10.5 -24.5t25.5 -10.5z" />
    <glyph glyph-name="ae" unicode="&#xe6;" horiz-adv-x="860" 
d="M843 208h-348v-28q14 -47 49 -77t79 -31h2h2q63 3 108 48l71 -43q-26 -30 -60 -51q-51 -31 -120 -34h-1q-57 0 -130 57v-48h-86v52q-75 -63 -154 -63q-100 0 -169 69q-70 70 -70 170t70 170q69 69 169 69q79 0 154 -63v53h86v-52q70 55 130 55q92 0 156 -69
q44 -48 57 -111q6 -27 6 -54q0 -4 -0.5 -10t-0.5 -9zM498 282l-1 -2h256l-1 2q-15 44 -50 71.5t-77 27.5q-41 0 -76 -27.5t-51 -71.5zM255 74q58 0 101.5 38t51.5 95q-1 6 -1 20q0 15 1 23q-8 57 -51.5 95.5t-101.5 38.5q-63 0 -108 -45.5t-45 -109.5t45 -109.5t108 -45.5z
" />
    <glyph glyph-name="ccedilla" unicode="&#xe7;" horiz-adv-x="498" 
d="M466 88q-16 -20 -25 -29q-64 -64 -156 -69l-49 -101h-79l81 103q-80 11 -136 67q-70 72 -70 170t70 170q69 69 170 69q100 0 169 -69q15 -15 24 -28l-69 -51q-47 64 -124 64q-64 0 -109 -45.5t-45 -109.5t45 -109.5t109 -45.5q77 0 124 65z" />
    <glyph glyph-name="egrave" unicode="&#xe8;" horiz-adv-x="499" 
d="M463 281q8 -47 5 -73h-353v-2q7 -57 45 -95t88 -39q67 3 112 48l72 -43q-28 -31 -61 -51q-51 -31 -121 -34q-93 0 -155 70q-56 61 -62 144q-1 7 -1 21q0 27 6 54q13 63 57 111q63 69 155 69t156 -69q45 -50 57 -111zM122 280h256l-1 2q-15 44 -50 71.5t-77 27.5
q-41 0 -76 -27.5t-51 -71.5zM150 635h68l51 -107h-36z" />
    <glyph glyph-name="eacute" unicode="&#xe9;" horiz-adv-x="499" 
d="M463 281q8 -47 5 -73h-353v-2q7 -57 45 -95t88 -39q67 3 112 48l72 -43q-28 -31 -61 -51q-51 -31 -121 -34q-93 0 -155 70q-56 61 -62 144q-1 7 -1 21q0 27 6 54q13 63 57 111q63 69 155 69t156 -69q45 -50 57 -111zM122 280h256l-1 2q-15 44 -50 71.5t-77 27.5
q-41 0 -76 -27.5t-51 -71.5zM239 528l51 107h68l-83 -107h-36z" />
    <glyph glyph-name="ecircumflex" unicode="&#xea;" horiz-adv-x="499" 
d="M463 281q8 -47 5 -73h-353v-2q7 -57 45 -95t88 -39q67 3 112 48l72 -43q-28 -31 -61 -51q-51 -31 -121 -34q-93 0 -155 70q-56 61 -62 144q-1 7 -1 21q0 27 6 54q13 63 57 111q63 69 155 69t156 -69q45 -50 57 -111zM122 280h256l-1 2q-15 44 -50 71.5t-77 27.5
q-41 0 -76 -27.5t-51 -71.5zM136 528l80 107h68l82 -107h-38l-78 72l-77 -72h-37z" />
    <glyph glyph-name="edieresis" unicode="&#xeb;" horiz-adv-x="499" 
d="M463 281q8 -47 5 -73h-353v-2q7 -57 45 -95t88 -39q67 3 112 48l72 -43q-28 -31 -61 -51q-51 -31 -121 -34q-93 0 -155 70q-56 61 -62 144q-1 7 -1 21q0 27 6 54q13 63 57 111q63 69 155 69t156 -69q45 -50 57 -111zM122 280h256l-1 2q-15 44 -50 71.5t-77 27.5
q-41 0 -76 -27.5t-51 -71.5zM331 520q-19 0 -33.5 14t-14.5 34q0 19 14 33t34 14q19 0 33 -13.5t14 -33.5t-14 -34t-33 -14zM169 520q-19 0 -33 14t-14 34t14 33.5t33 13.5q20 0 34 -14t14 -33q0 -20 -14.5 -34t-33.5 -14z" />
    <glyph glyph-name="igrave" unicode="&#xec;" horiz-adv-x="245" 
d="M79 0v458h86v-458h-86zM20 635h68l51 -107h-36z" />
    <glyph glyph-name="iacute" unicode="&#xed;" horiz-adv-x="247" 
d="M80 0v458h86v-458h-86zM108 528l51 107h68l-83 -107h-36z" />
    <glyph glyph-name="icircumflex" unicode="&#xee;" horiz-adv-x="310" 
d="M110 0v458h86v-458h-86zM40 528l80 107h68l82 -107h-38l-78 72l-77 -72h-37z" />
    <glyph glyph-name="idieresis" unicode="&#xef;" horiz-adv-x="316" 
d="M117 0v458h86v-458h-86zM239 520q-19 0 -33.5 14t-14.5 34q0 19 14 33t34 14q19 0 33 -13.5t14 -33.5t-14 -34t-33 -14zM77 520q-19 0 -33 14t-14 34t14 33.5t33 13.5q20 0 34 -14t14 -33q0 -20 -14.5 -34t-33.5 -14z" />
    <glyph glyph-name="eth" unicode="&#xf0;" horiz-adv-x="534" 
d="M259 -9q-98 0 -168 70t-70 168t70 168t168 70q72 0 131 -52q-36 64 -114 148l-63 -62l-27 28l63 62l-22.5 22.5t-27 26.5t-23.5 24l57 58q38 -37 74 -74l63 63l28 -28l-64 -63q58 -62 93 -117q38 -60 54 -115q19 -60 19 -146q0 -108 -73 -181q-70 -70 -168 -70zM259 385
q-65 0 -110.5 -45.5t-45.5 -110.5t45.5 -110.5t110.5 -45.5t110.5 45.5t45.5 110.5t-45.5 110.5t-110.5 45.5z" />
    <glyph glyph-name="ntilde" unicode="&#xf1;" horiz-adv-x="540" 
d="M430 403q64 -66 64 -157v-246h-86v246q0 56 -39.5 96.5t-95.5 40.5q-55 0 -95 -40.5t-40 -96.5v-246h-86v458h86v-44q69 53 135 53q93 0 157 -64zM309 548q-18 0 -43 17q-16 9 -22 10q-18 3 -32 -22l-34 22q25 41 66 41q17 0 41 -16v1q17 -11 24 -12q17 -2 32 21l35 -22
q-28 -40 -67 -40z" />
    <glyph glyph-name="ograve" unicode="&#xf2;" horiz-adv-x="548" 
d="M442 399q71 -71 71 -170t-71 -170q-70 -70 -169 -70q-98 0 -170 70q-70 72 -70 170t70 170q71 69 170 69q100 0 169 -69zM273 75q64 0 109 45t45 109t-45 108.5t-109 44.5t-109 -44.5t-45 -108.5t45 -109t109 -45zM173 635h68l51 -107h-36z" />
    <glyph glyph-name="oacute" unicode="&#xf3;" horiz-adv-x="548" 
d="M442 399q71 -71 71 -170t-71 -170q-70 -70 -169 -70q-98 0 -170 70q-70 72 -70 170t70 170q71 69 170 69q100 0 169 -69zM273 75q64 0 109 45t45 109t-45 108.5t-109 44.5t-109 -44.5t-45 -108.5t45 -109t109 -45zM260 528l51 107h68l-83 -107h-36z" />
    <glyph glyph-name="ocircumflex" unicode="&#xf4;" horiz-adv-x="548" 
d="M442 399q71 -71 71 -170t-71 -170q-70 -70 -169 -70q-98 0 -170 70q-70 72 -70 170t70 170q71 69 170 69q100 0 169 -69zM273 75q64 0 109 45t45 109t-45 108.5t-109 44.5t-109 -44.5t-45 -108.5t45 -109t109 -45zM159 528l80 107h68l82 -107h-38l-78 72l-77 -72h-37z
" />
    <glyph glyph-name="otilde" unicode="&#xf5;" horiz-adv-x="548" 
d="M442 399q71 -71 71 -170t-71 -170q-70 -70 -169 -70q-98 0 -170 70q-70 72 -70 170t70 170q71 69 170 69q100 0 169 -69zM273 75q64 0 109 45t45 109t-45 108.5t-109 44.5t-109 -44.5t-45 -108.5t45 -109t109 -45zM308 548q-18 0 -43 17q-16 9 -22 10q-18 3 -32 -22
l-34 22q25 41 66 41q17 0 41 -16v1q17 -11 24 -12q17 -2 32 21l35 -22q-28 -40 -67 -40z" />
    <glyph glyph-name="odieresis" unicode="&#xf6;" horiz-adv-x="548" 
d="M442 399q71 -71 71 -170t-71 -170q-70 -70 -169 -70q-98 0 -170 70q-70 72 -70 170t70 170q71 69 170 69q100 0 169 -69zM273 75q64 0 109 45t45 109t-45 108.5t-109 44.5t-109 -44.5t-45 -108.5t45 -109t109 -45zM355 520q-19 0 -33.5 14t-14.5 34q0 19 14 33t34 14
q19 0 33 -13.5t14 -33.5t-14 -34t-33 -14zM193 520q-19 0 -33 14t-14 34t14 33.5t33 13.5q20 0 34 -14t14 -33q0 -20 -14.5 -34t-33.5 -14z" />
    <glyph glyph-name="divide" unicode="&#xf7;" horiz-adv-x="329" 
d="M164 141q23 0 40 -17t17 -40t-17 -39.5t-40 -16.5t-39.5 16.5t-16.5 39.5t16.5 40t39.5 17zM164 431q23 0 40 -16.5t17 -39.5q0 -24 -17 -40.5t-40 -16.5t-39.5 16.5t-16.5 40.5q0 23 16.5 39.5t39.5 16.5zM315 272v-86h-301v86h301z" />
    <glyph glyph-name="oslash" unicode="&#xf8;" horiz-adv-x="548" 
d="M494 412l-33 -33q53 -67 53 -150q0 -99 -71 -170q-70 -70 -169 -70q-85 0 -150 53l-41 -41l-48 48l42 42q-43 61 -43 138q0 98 70 170q72 70 170 70q77 0 138 -44l34 35zM120 229q0 -41 20 -75l209 209q-34 20 -75 20q-64 0 -109 -45t-45 -109zM274 75q64 0 109 45
t45 109q0 47 -28 88l-215 -214q39 -28 89 -28z" />
    <glyph glyph-name="ugrave" unicode="&#xf9;" horiz-adv-x="522" 
d="M108 49q-62 60 -62 147v262h86v-262q0 -50 37 -86t89 -36t89 36t37 86v262h86v-262q0 -86 -63 -147q-61 -59 -149 -59q-89 0 -150 59zM155 635h68l51 -107h-36z" />
    <glyph glyph-name="uacute" unicode="&#xfa;" horiz-adv-x="522" 
d="M108 49q-62 60 -62 147v262h86v-262q0 -50 37 -86t89 -36t89 36t37 86v262h86v-262q0 -86 -63 -147q-61 -59 -149 -59q-89 0 -150 59zM245 528l51 107h68l-83 -107h-36z" />
    <glyph glyph-name="ucircumflex" unicode="&#xfb;" horiz-adv-x="522" 
d="M108 49q-62 60 -62 147v262h86v-262q0 -50 37 -86t89 -36t89 36t37 86v262h86v-262q0 -86 -63 -147q-61 -59 -149 -59q-89 0 -150 59zM142 528l80 107h68l82 -107h-38l-78 72l-77 -72h-37z" />
    <glyph glyph-name="udieresis" unicode="&#xfc;" horiz-adv-x="522" 
d="M108 49q-62 60 -62 147v262h86v-262q0 -50 37 -86t89 -36t89 36t37 86v262h86v-262q0 -86 -63 -147q-61 -59 -149 -59q-89 0 -150 59zM340 520q-20 0 -34 14t-14 34q0 19 14 33t34 14t33.5 -13.5t13.5 -33.5t-14 -34t-33 -14zM178 520q-19 0 -33 14t-14 34t13.5 33.5
t33.5 13.5t34 -14t14 -33q0 -20 -14 -34t-34 -14z" />
    <glyph glyph-name="yacute" unicode="&#xfd;" horiz-adv-x="504" 
d="M484 458l-292 -720h-93l107 262l-186 458h93l139 -344l139 344h93zM241 528l51 107h68l-83 -107h-36z" />
    <glyph glyph-name="thorn" unicode="&#xfe;" 
d="M455 399q71 -71 71 -170t-71 -170q-69 -69 -169 -69q-79 0 -154 63v-315h-86v974h86v-307q75 63 154 63q100 0 169 -69zM286 74q64 0 109 45.5t45 109.5t-45 109.5t-109 45.5t-109 -45.5t-45 -109.5t45 -109.5t109 -45.5z" />
    <glyph glyph-name="ydieresis" unicode="&#xff;" horiz-adv-x="504" 
d="M484 458l-292 -720h-93l107 262l-186 458h93l139 -344l139 344h93zM334 520q-20 0 -34 14t-14 34q0 19 14 33t34 14t33.5 -13.5t13.5 -33.5t-14 -34t-33 -14zM172 520q-19 0 -33 14t-14 34t13.5 33.5t33.5 13.5t34 -14t14 -33q0 -20 -14 -34t-34 -14z" />
    <glyph glyph-name="Amacron" unicode="&#x100;" horiz-adv-x="682" 
d="M565 0l-79 207h-291l-79 -207h-96l274 712h93l275 -712h-97zM451 295l-110 288l-111 -288h221zM179 817v43h325v-43h-325z" />
    <glyph glyph-name="amacron" unicode="&#x101;" 
d="M426 405v53h86v-458h-86v53q-75 -63 -154 -63q-99 0 -170 69q-70 72 -70 170t70 170q71 69 170 69q79 0 154 -63zM272 74q64 0 109 45.5t45 109.5t-45 109.5t-109 45.5t-109 -45.5t-45 -109.5t45 -109.5t109 -45.5zM107 563v43h325v-43h-325z" />
    <glyph glyph-name="Abreve" unicode="&#x102;" horiz-adv-x="682" 
d="M565 0l-79 207h-291l-79 -207h-96l274 712h93l275 -712h-97zM451 295l-110 288l-111 -288h221zM342 799q-30 0 -57 20q-27 21 -27 54h42q0 -12 13 -23.5t29 -11.5t29 11.5t13 23.5h41q0 -36 -26 -54q-28 -20 -57 -20z" />
    <glyph glyph-name="abreve" unicode="&#x103;" 
d="M426 405v53h86v-458h-86v53q-75 -63 -154 -63q-99 0 -170 69q-70 72 -70 170t70 170q71 69 170 69q79 0 154 -63zM272 74q64 0 109 45.5t45 109.5t-45 109.5t-109 45.5t-109 -45.5t-45 -109.5t45 -109.5t109 -45.5zM273 545q-30 0 -57 20q-27 21 -27 54h42
q0 -12 13 -23.5t29 -11.5t29 11.5t13 23.5h41q0 -36 -26 -54q-28 -20 -57 -20z" />
    <glyph glyph-name="Aogonek" unicode="&#x104;" horiz-adv-x="682" 
d="M723 -71l56 -54q-45 -48 -82 -63q-31 -13 -59 -13q-10 0 -28 4q-30 7 -54.5 29t-32.5 51q-19 68 33 133l-73 191h-291l-79 -207h-96l274 712h93l275 -712q-34 -32 -45.5 -53t-1.5 -41q14 -25 47 -18t64 41zM227 295h221l-110 288z" />
    <glyph glyph-name="aogonek" unicode="&#x105;" horiz-adv-x="567" 
d="M576 -71l56 -54q-45 -49 -81 -63q-33 -13 -59 -13q-10 0 -28 4q-30 7 -55 29t-33 51q-12 41 0 75.5t50 76.5v14q-70 -59 -154 -59q-99 0 -170 69q-70 72 -70 170t70 170q71 69 170 69q84 0 154 -59v49h86v-457h-1v-1q-33 -33 -44.5 -53.5t-0.5 -40.5q14 -25 46.5 -18
t63.5 41zM272 74q64 0 109 45.5t45 109.5t-45 109.5t-109 45.5t-109 -45.5t-45 -109.5t45 -109.5t109 -45.5z" />
    <glyph glyph-name="Cacute" unicode="&#x106;" horiz-adv-x="742" 
d="M407 77q67 0 126.5 29.5t100.5 83.5l70 -52q-53 -71 -131 -110t-166 -39q-155 0 -264 109.5t-109 263.5t109.5 263t263.5 109q88 0 166.5 -39.5t131.5 -110.5l-71 -52q-40 55 -99.5 84.5t-127.5 29.5q-118 0 -201.5 -83t-83.5 -201t83 -201.5t202 -83.5zM388 782l51 107
h68l-83 -107h-36z" />
    <glyph glyph-name="cacute" unicode="&#x107;" horiz-adv-x="498" 
d="M396 139l70 -51q-16 -20 -25 -29q-69 -69 -169 -69q-101 0 -170 69q-70 72 -70 170t70 170q69 69 170 69q100 0 169 -69q15 -15 24 -28l-69 -51q-47 64 -124 64q-64 0 -109 -45.5t-45 -109.5t45 -109.5t109 -45.5q77 0 124 65zM258 528l51 107h68l-83 -107h-36z" />
    <glyph glyph-name="Ccircumflex" unicode="&#x108;" horiz-adv-x="742" 
d="M407 77q67 0 126.5 29.5t100.5 83.5l70 -52q-53 -71 -131 -110t-166 -39q-155 0 -264 109.5t-109 263.5t109.5 263t263.5 109q88 0 166.5 -39.5t131.5 -110.5l-71 -52q-40 55 -99.5 84.5t-127.5 29.5q-118 0 -201.5 -83t-83.5 -201t83 -201.5t202 -83.5zM294 782l80 107
h68l82 -107h-38l-78 72l-77 -72h-37z" />
    <glyph glyph-name="ccircumflex" unicode="&#x109;" horiz-adv-x="498" 
d="M396 139l70 -51q-16 -20 -25 -29q-69 -69 -169 -69q-101 0 -170 69q-70 72 -70 170t70 170q69 69 170 69q100 0 169 -69q15 -15 24 -28l-69 -51q-47 64 -124 64q-64 0 -109 -45.5t-45 -109.5t45 -109.5t109 -45.5q77 0 124 65zM159 528l80 107h68l82 -107h-38l-78 72
l-77 -72h-37z" />
    <glyph glyph-name="Ccaron" unicode="&#x10c;" horiz-adv-x="742" 
d="M407 77q67 0 126.5 29.5t100.5 83.5l70 -52q-53 -71 -131 -110t-166 -39q-155 0 -264 109.5t-109 263.5t109.5 263t263.5 109q88 0 166.5 -39.5t131.5 -110.5l-71 -52q-40 55 -99.5 84.5t-127.5 29.5q-118 0 -201.5 -83t-83.5 -201t83 -201.5t202 -83.5zM522 880
l-81 -107h-68l-81 107h37l78 -72l77 72h38z" />
    <glyph glyph-name="ccaron" unicode="&#x10d;" horiz-adv-x="498" 
d="M396 139l70 -51q-16 -20 -25 -29q-69 -69 -169 -69q-101 0 -170 69q-70 72 -70 170t70 170q69 69 170 69q100 0 169 -69q15 -15 24 -28l-69 -51q-47 64 -124 64q-64 0 -109 -45.5t-45 -109.5t45 -109.5t109 -45.5q77 0 124 65zM385 626l-81 -107h-68l-81 107h37l78 -72
l77 72h38z" />
    <glyph glyph-name="Dcaron" unicode="&#x10e;" horiz-adv-x="695" 
d="M65 0v712h230q151 0 258.5 -104.5t107.5 -251.5t-107.5 -251.5t-258.5 -104.5h-230zM295 87q114 0 195.5 79t81.5 190t-81.5 190t-195.5 79h-141v-538h141zM395 880l-81 -107h-68l-81 107h37l78 -72l77 72h38z" />
    <glyph glyph-name="dcaron" unicode="&#x10f;" horiz-adv-x="704" 
d="M592 628h-36l51 107h68zM423 405v329h86v-734h-86v53q-75 -63 -154 -63q-99 0 -170 69q-70 72 -70 170t70 170q71 69 170 69q79 0 154 -63zM269 74q64 0 109 45.5t45 109.5t-45 109.5t-109 45.5t-109 -45.5t-45 -109.5t45 -109.5t109 -45.5z" />
    <glyph glyph-name="Emacron" unicode="&#x112;" horiz-adv-x="572" 
d="M90 0v712h450v-86h-360v-167h314v-89h-314v-282h351v-88h-441zM152 817v43h325v-43h-325z" />
    <glyph glyph-name="emacron" unicode="&#x113;" horiz-adv-x="499" 
d="M463 281q8 -47 5 -73h-353v-2q7 -57 45 -95t88 -39q67 3 112 48l72 -43q-28 -31 -61 -51q-51 -31 -121 -34q-93 0 -155 70q-56 61 -62 144q-1 7 -1 21q0 27 6 54q13 63 57 111q63 69 155 69t156 -69q45 -50 57 -111zM122 280h256l-1 2q-15 44 -50 71.5t-77 27.5
q-41 0 -76 -27.5t-51 -71.5zM88 563v43h325v-43h-325z" />
    <glyph glyph-name="Ebreve" unicode="&#x114;" horiz-adv-x="572" 
d="M90 0v712h450v-86h-360v-167h314v-89h-314v-282h351v-88h-441zM317 799q-30 0 -57 20q-27 21 -27 54h42q0 -12 13 -23.5t29 -11.5t29 11.5t13 23.5h41q0 -36 -26 -54q-28 -20 -57 -20z" />
    <glyph glyph-name="ebreve" unicode="&#x115;" horiz-adv-x="499" 
d="M463 281q8 -47 5 -73h-353v-2q7 -57 45 -95t88 -39q67 3 112 48l72 -43q-28 -31 -61 -51q-51 -31 -121 -34q-93 0 -155 70q-56 61 -62 144q-1 7 -1 21q0 27 6 54q13 63 57 111q63 69 155 69t156 -69q45 -50 57 -111zM122 280h256l-1 2q-15 44 -50 71.5t-77 27.5
q-41 0 -76 -27.5t-51 -71.5zM251 545q-30 0 -57 20q-27 21 -27 54h42q0 -12 13 -23.5t29 -11.5t29 11.5t13 23.5h41q0 -36 -26 -54q-28 -20 -57 -20z" />
    <glyph glyph-name="Eogonek" unicode="&#x118;" horiz-adv-x="571" 
d="M593 -71l56 -54q-45 -48 -82 -63q-31 -13 -59 -13q-10 0 -28 4q-30 7 -54.5 29t-32.5 51q-18 59 21 117h-324v712h450v-87h-360v-166h314v-88h-314v-283h351v-88q-35 -31 -47.5 -52.5t-1.5 -41.5q14 -25 47 -18t64 41z" />
    <glyph glyph-name="eogonek" unicode="&#x119;" horiz-adv-x="499" 
d="M461 281q8 -47 5 -73h-353v-2q7 -57 45 -95t88 -39q67 3 112 48l72 -43q-28 -31 -61 -51q-29 -18 -67 -27q-33 -33 -44 -53t-1 -40q14 -25 47 -18t64 41l56 -54q-45 -48 -81 -63q-32 -13 -59 -13q-11 0 -29 4q-30 7 -54.5 29t-32.5 51q-17 61 22 118q-56 15 -97 61
q-56 61 -62 144q-1 7 -1 21q0 27 6 54q13 63 57 111q63 69 155 69t156 -69q45 -50 57 -111zM120 280h256l-1 2q-15 44 -50 71.5t-77 27.5q-41 0 -76 -27.5t-51 -71.5z" />
    <glyph glyph-name="Ecaron" unicode="&#x11a;" horiz-adv-x="572" 
d="M90 0v712h450v-86h-360v-167h314v-89h-314v-282h351v-88h-441zM432 880l-81 -107h-68l-81 107h37l78 -72l77 72h38z" />
    <glyph glyph-name="ecaron" unicode="&#x11b;" horiz-adv-x="499" 
d="M463 281q8 -47 5 -73h-353v-2q7 -57 45 -95t88 -39q67 3 112 48l72 -43q-28 -31 -61 -51q-51 -31 -121 -34q-93 0 -155 70q-56 61 -62 144q-1 7 -1 21q0 27 6 54q13 63 57 111q63 69 155 69t156 -69q45 -50 57 -111zM122 280h256l-1 2q-15 44 -50 71.5t-77 27.5
q-41 0 -76 -27.5t-51 -71.5zM363 626l-81 -107h-68l-81 107h37l78 -72l77 72h38z" />
    <glyph glyph-name="Gcircumflex" unicode="&#x11c;" horiz-adv-x="769" 
d="M413 458h296v-315q-54 -72 -133.5 -113t-167.5 -41q-154 0 -263 109.5t-109 263.5t109 263t263 109q156 0 264 -110l-66 -58q-80 80 -198 80t-201 -83t-83 -201t83 -201.5t201 -83.5q127 0 214 96v197h-209v88zM294 782l80 107h68l82 -107h-38l-78 72l-77 -72h-37z" />
    <glyph glyph-name="gcircumflex" unicode="&#x11d;" horiz-adv-x="548" 
d="M426 458h86v-480q0 -101 -71 -170q-70 -70 -169 -70q-70 0 -129 35q-21 12 -43 33l65 57q48 -38 107 -41q64 0 109 46t45 110v75q-75 -63 -154 -63q-99 0 -170 69q-70 72 -70 170t70 170q71 69 170 69q79 0 154 -63v53zM272 74q64 0 109 45.5t45 109.5t-45 109.5
t-109 45.5t-109 -45.5t-45 -109.5t45 -109.5t109 -45.5zM157 528l80 107h68l82 -107h-38l-78 72l-77 -72h-37z" />
    <glyph glyph-name="Gbreve" unicode="&#x11e;" horiz-adv-x="767" 
d="M411 458h296v-315q-54 -72 -133.5 -113t-167.5 -41q-154 0 -263 109.5t-109 263.5t109 263t263 109q156 0 264 -110l-66 -58q-80 80 -198 80t-201 -83t-83 -201t83 -201.5t201 -83.5q127 0 214 96v197h-209v88zM410 799q-30 0 -57 20q-27 21 -27 54h42q0 -12 13 -23.5
t29 -11.5t29 11.5t13 23.5h41q0 -36 -26 -54q-28 -20 -57 -20z" />
    <glyph glyph-name="gbreve" unicode="&#x11f;" 
d="M426 458h86v-480q0 -101 -71 -170q-70 -70 -169 -70q-70 0 -129 35q-21 12 -43 33l65 57q48 -38 107 -41q64 0 109 46t45 110v75q-75 -63 -154 -63q-99 0 -170 69q-70 72 -70 170t70 170q71 69 170 69q79 0 154 -63v53zM272 74q64 0 109 45.5t45 109.5t-45 109.5
t-109 45.5t-109 -45.5t-45 -109.5t45 -109.5t109 -45.5zM279 545q-30 0 -57 20q-27 21 -27 54h42q0 -12 13 -23.5t29 -11.5t29 11.5t13 23.5h41q0 -36 -26 -54q-28 -20 -57 -20z" />
    <glyph glyph-name="Gcedilla" unicode="&#x122;" horiz-adv-x="769" 
d="M414 458h296v-315q-50 -66 -121.5 -106.5t-152.5 -46.5l-61 -127h-94l99 127q-144 11 -243.5 118t-99.5 254q0 154 109 263t263 109q156 0 264 -110l-66 -58q-80 80 -198 80t-201 -83t-83 -201t83 -201.5t201 -83.5q127 0 214 96v197h-209v88z" />
    <glyph glyph-name="imacron" unicode="&#x12b;" horiz-adv-x="313" 
d="M113 0v458h86v-458h-86zM-6 563v43h325v-43h-325z" />
    <glyph glyph-name="Ibreve" unicode="&#x12c;" horiz-adv-x="247" 
d="M79 0v712h90v-712h-90zM124 799q-30 0 -57 20q-27 21 -27 54h42q0 -12 13 -23.5t29 -11.5t29 11.5t13 23.5h41q0 -36 -26 -54q-28 -20 -57 -20z" />
    <glyph glyph-name="dotlessi" unicode="&#x131;" horiz-adv-x="206" 
d="M55 0v458h86v-458h-86z" />
    <glyph glyph-name="Lslash" unicode="&#x141;" horiz-adv-x="710" 
d="M301 84h392v-84h-478v228l-142 -148l-57 54l199 208v370h86v-280l193 203l57 -55l-250 -262v-234z" />
    <glyph glyph-name="lslash" unicode="&#x142;" horiz-adv-x="314" 
d="M305 455l-109 -114v-341h-78v259l-52 -54l-57 54l109 114v361h78v-279l52 54z" />
    <glyph glyph-name="Nacute" unicode="&#x143;" horiz-adv-x="748" 
d="M561 0l-381 563v-563h-90v712h98l380 -563v563h90v-712h-97zM389 782l51 107h68l-83 -107h-36z" />
    <glyph glyph-name="nacute" unicode="&#x144;" horiz-adv-x="540" 
d="M430 403q64 -66 64 -157v-246h-86v246q0 56 -39.5 96.5t-95.5 40.5q-55 0 -95 -40.5t-40 -96.5v-246h-86v458h86v-44q69 53 135 53q93 0 157 -64zM260 528l51 107h68l-83 -107h-36z" />
    <glyph glyph-name="Ncaron" unicode="&#x147;" horiz-adv-x="748" 
d="M561 0l-381 563v-563h-90v712h98l380 -563v563h90v-712h-97zM496 880l-81 -107h-68l-81 107h37l78 -72l77 72h38z" />
    <glyph glyph-name="ncaron" unicode="&#x148;" horiz-adv-x="540" 
d="M430 403q64 -66 64 -157v-246h-86v246q0 56 -39.5 96.5t-95.5 40.5q-55 0 -95 -40.5t-40 -96.5v-246h-86v458h86v-44q69 53 135 53q93 0 157 -64zM388 626l-81 -107h-68l-81 107h37l78 -72l77 72h38z" />
    <glyph glyph-name="Omacron" unicode="&#x14c;" horiz-adv-x="813" 
d="M406 734q154 0 263.5 -109.5t109.5 -263.5t-109.5 -262.5t-263.5 -108.5t-263 108.5t-109 262.5t109 263.5t263 109.5zM406 78q117 0 199.5 83t82.5 200t-82.5 201t-199.5 84t-199.5 -84t-82.5 -201t82.5 -200t199.5 -83zM244 817v43h325v-43h-325z" />
    <glyph glyph-name="omacron" unicode="&#x14d;" horiz-adv-x="548" 
d="M442 399q71 -71 71 -170t-71 -170q-70 -70 -169 -70q-98 0 -170 70q-70 72 -70 170t70 170q71 69 170 69q100 0 169 -69zM273 75q64 0 109 45t45 109t-45 108.5t-109 44.5t-109 -44.5t-45 -108.5t45 -109t109 -45zM109 563v43h325v-43h-325z" />
    <glyph glyph-name="Obreve" unicode="&#x14e;" horiz-adv-x="813" 
d="M406 734q154 0 263.5 -109.5t109.5 -263.5t-109.5 -262.5t-263.5 -108.5t-263 108.5t-109 262.5t109 263.5t263 109.5zM406 78q117 0 199.5 83t82.5 200t-82.5 201t-199.5 84t-199.5 -84t-82.5 -201t82.5 -200t199.5 -83zM410 799q-30 0 -57 20q-27 21 -27 54h42
q0 -12 13 -23.5t29 -11.5t29 11.5t13 23.5h41q0 -36 -26 -54q-28 -20 -57 -20z" />
    <glyph glyph-name="obreve" unicode="&#x14f;" horiz-adv-x="548" 
d="M442 399q71 -71 71 -170t-71 -170q-70 -70 -169 -70q-98 0 -170 70q-70 72 -70 170t70 170q71 69 170 69q100 0 169 -69zM273 75q64 0 109 45t45 109t-45 108.5t-109 44.5t-109 -44.5t-45 -108.5t45 -109t109 -45zM275 545q-30 0 -57 20q-27 21 -27 54h42q0 -12 13 -23.5
t29 -11.5t29 11.5t13 23.5h41q0 -36 -26 -54q-28 -20 -57 -20z" />
    <glyph glyph-name="Ohungarumlaut" unicode="&#x150;" horiz-adv-x="813" 
d="M406 734q154 0 263.5 -109.5t109.5 -263.5t-109.5 -262.5t-263.5 -108.5t-263 108.5t-109 262.5t109 263.5t263 109.5zM406 78q117 0 199.5 83t82.5 200t-82.5 201t-199.5 84t-199.5 -84t-82.5 -201t82.5 -200t199.5 -83zM352 783l51 106h68l-83 -107zM437 783l52 106h68
l-83 -107z" />
    <glyph glyph-name="ohungarumlaut" unicode="&#x151;" horiz-adv-x="548" 
d="M442 399q71 -71 71 -170t-71 -170q-70 -70 -169 -70q-98 0 -170 70q-70 72 -70 170t70 170q71 69 170 69q100 0 169 -69zM273 75q64 0 109 45t45 109t-45 108.5t-109 44.5t-109 -44.5t-45 -108.5t45 -109t109 -45zM223 529l51 106h68l-83 -107zM308 529l52 106h68
l-83 -107z" />
    <glyph glyph-name="OE" unicode="&#x152;" horiz-adv-x="1058" 
d="M1038 712v-86h-360v-199h314v-89h-314v-250h351v-88h-441v37q-85 -47 -182 -47q-154 0 -263 108.5t-109 262.5t109 263t263 109q97 0 182 -47v26h450zM588 145v433q-78 67 -182 67q-116 0 -199 -83.5t-83 -200.5q0 -116 83 -199.5t199 -83.5q104 0 182 67z" />
    <glyph glyph-name="oe" unicode="&#x153;" horiz-adv-x="895" 
d="M862 208h-349q-1 -2 -1 -7t-1 -8q11 -52 47.5 -86t83.5 -35h2h2q63 3 108 48l71 -43q-25 -30 -60 -51q-51 -31 -120 -34h-2q-91 0 -155 70q-11 13 -20 26q-16 -20 -25 -29q-70 -70 -169 -70q-98 0 -170 70q-70 72 -70 170t70 170q72 70 170 70q99 0 169 -70
q17 -17 26 -31q3 4 9.5 12t9.5 12q64 69 156 69t156 -69q44 -48 57 -111q6 -27 6 -54q0 -4 -0.5 -10t-0.5 -9zM517 282l-1 -2h256l-1 2q-15 44 -50 71.5t-77 27.5q-41 0 -76 -27.5t-51 -71.5zM274 75q58 0 101.5 38.5t50.5 95.5v18q0 13 1 20q-7 57 -50.5 96.5t-102.5 39.5
q-64 0 -109 -45t-45 -109t45 -109t109 -45z" />
    <glyph glyph-name="Racute" unicode="&#x154;" horiz-adv-x="638" 
d="M353 379l275 -379h-103l-272 374h-102v-374h-86v712h247q69 0 119 -50t50 -119q0 -58 -36 -104t-92 -60zM151 626v-166h161q34 0 58.5 24t24.5 59t-24.5 59t-58.5 24h-161zM239 782l51 107h68l-83 -107h-36z" />
    <glyph glyph-name="racute" unicode="&#x155;" horiz-adv-x="327" 
d="M151 458v-47q21 23 73 40t94 17l-21 -86q-60 0 -103 -40t-43 -98v-244h-86v458h86zM158 528l51 107h68l-83 -107h-36z" />
    <glyph glyph-name="Rcaron" unicode="&#x158;" horiz-adv-x="638" 
d="M353 379l275 -379h-103l-272 374h-102v-374h-86v712h247q69 0 119 -50t50 -119q0 -58 -36 -104t-92 -60zM151 626v-166h161q34 0 58.5 24t24.5 59t-24.5 59t-58.5 24h-161zM342 880l-81 -107h-68l-81 107h37l78 -72l77 72h38z" />
    <glyph glyph-name="rcaron" unicode="&#x159;" horiz-adv-x="332" 
d="M156 458v-47q21 23 73 40t94 17l-21 -86q-60 0 -103 -40t-43 -98v-244h-86v458h86zM295 626l-81 -107h-68l-81 107h37l78 -72l77 72h38z" />
    <glyph glyph-name="Sacute" unicode="&#x15a;" horiz-adv-x="601" 
d="M315 -7q-34 0 -72 8q-113 23 -212 108l59 67q82 -71 171 -89q77 -17 138 11q71 33 71 103q0 51 -43.5 77t-114.5 40q-8 1 -35.5 7.5t-68 18.5t-60.5 24q-92 55 -92 156q0 54 33 103q32 42 84 67q76 36 169 21q101 -17 189 -90l-57 -69q-49 40 -100.5 58.5t-91 17
t-71.5 -16.5q-30 -14 -47.5 -38.5t-17.5 -51.5q0 -48 37 -72.5t113 -41.5q5 -1 34 -7.5t46 -10.5t42.5 -13t41.5 -18q99 -55 99 -161q0 -63 -34 -112q-29 -41 -89 -71q-50 -25 -121 -25zM280 782l51 107h68l-83 -107h-36z" />
    <glyph glyph-name="sacute" unicode="&#x15b;" horiz-adv-x="417" 
d="M360 205q21 -30 21 -70q0 -41 -22 -72q-20 -30 -61 -50q-37 -17 -82 -17q-20 0 -47 5q-78 16 -137 66l54 59q64 -54 126 -54q28 0 53 11q36 17 36 52q0 45 -89 61l-14 3q-14 3 -30 7t-34.5 10t-28.5 11q-64 37 -64 107q0 37 22 70q19 27 57 44q37 17 79 17q12 0 34 -2
q68 -11 123 -55l-50 -58q-51 40 -103 40q-29 0 -49 -10q-33 -16 -33 -46q0 -22 19.5 -35.5t65.5 -23.5q1 0 22 -5t47.5 -12.5t36.5 -13.5q29 -15 48 -39zM189 528l51 107h68l-83 -107h-36z" />
    <glyph glyph-name="Scedilla" unicode="&#x15e;" horiz-adv-x="601" 
d="M460 362q99 -55 99 -161q0 -63 -34 -112q-29 -41 -89 -71q-40 -21 -91 -24l-63 -131h-94l101 131q-13 1 -46 7q-113 23 -212 108l59 67q82 -71 171 -89q77 -17 138 11q71 33 71 103q0 51 -43.5 77t-114.5 40q-8 1 -35.5 7.5t-68 18.5t-60.5 24q-92 55 -92 156
q0 54 33 103q32 42 84 67q76 36 169 21q101 -17 189 -90l-57 -69q-49 40 -100.5 58.5t-91 17t-71.5 -16.5q-30 -14 -47.5 -38.5t-17.5 -51.5q0 -48 37 -72.5t113 -41.5q5 -1 34 -7.5t46 -10.5t42.5 -13t41.5 -18z" />
    <glyph glyph-name="scedilla" unicode="&#x15f;" horiz-adv-x="417" 
d="M359 205q21 -30 21 -70q0 -41 -22 -72q-20 -30 -61 -50q-25 -12 -58 -15l-63 -131h-94l102 131q-10 2 -16 3q-78 16 -137 66l54 59q64 -54 126 -54q28 0 53 11q36 17 36 52q0 45 -89 61l-14 3q-14 3 -30 7t-34.5 10t-28.5 11q-64 37 -64 107q0 37 22 70q19 27 57 44
q37 17 79 17q12 0 34 -2q68 -11 123 -55l-50 -58q-51 40 -103 40q-29 0 -49 -10q-33 -16 -33 -46q0 -22 19.5 -35.5t65.5 -23.5q1 0 22 -5t47.5 -12.5t36.5 -13.5q29 -15 48 -39z" />
    <glyph glyph-name="Scaron" unicode="&#x160;" horiz-adv-x="601" 
d="M315 -7q-34 0 -72 8q-113 23 -212 108l59 67q82 -71 171 -89q77 -17 138 11q71 33 71 103q0 51 -43.5 77t-114.5 40q-8 1 -35.5 7.5t-68 18.5t-60.5 24q-92 55 -92 156q0 54 33 103q32 42 84 67q76 36 169 21q101 -17 189 -90l-57 -69q-49 40 -100.5 58.5t-91 17
t-71.5 -16.5q-30 -14 -47.5 -38.5t-17.5 -51.5q0 -48 37 -72.5t113 -41.5q5 -1 34 -7.5t46 -10.5t42.5 -13t41.5 -18q99 -55 99 -161q0 -63 -34 -112q-29 -41 -89 -71q-50 -25 -121 -25zM412 880l-81 -107h-68l-81 107h37l78 -72l77 72h38z" />
    <glyph glyph-name="scaron" unicode="&#x161;" horiz-adv-x="417" 
d="M360 205q21 -30 21 -70q0 -41 -22 -72q-20 -30 -61 -50q-37 -17 -82 -17q-20 0 -47 5q-78 16 -137 66l54 59q64 -54 126 -54q28 0 53 11q36 17 36 52q0 45 -89 61l-14 3q-14 3 -30 7t-34.5 10t-28.5 11q-64 37 -64 107q0 37 22 70q19 27 57 44q37 17 79 17q12 0 34 -2
q68 -11 123 -55l-50 -58q-51 40 -103 40q-29 0 -49 -10q-33 -16 -33 -46q0 -22 19.5 -35.5t65.5 -23.5q1 0 22 -5t47.5 -12.5t36.5 -13.5q29 -15 48 -39zM321 626l-81 -107h-68l-81 107h37l78 -72l77 72h38z" />
    <glyph glyph-name="Tcaron" unicode="&#x164;" horiz-adv-x="498" 
d="M204 0v624h-188v88h466v-88h-188v-624h-90zM364 880l-81 -107h-68l-81 107h37l78 -72l77 72h38z" />
    <glyph glyph-name="tcaron" unicode="&#x165;" horiz-adv-x="355" 
d="M239 608h-36l51 107h68zM237 0q-63 0 -107.5 44t-44.5 108v224h-68v82h68v177h86v-177h141v-82h-141v-222q0 -28 20.5 -50t47.5 -22h77l22 -82h-101z" />
    <glyph glyph-name="Umacron" unicode="&#x16a;" horiz-adv-x="678" 
d="M523 712h90v-451q0 -112 -79.5 -191.5t-192.5 -79.5q-112 0 -191.5 79.5t-79.5 191.5v451h89v-451q0 -76 53.5 -130t128.5 -54q76 0 129 54t53 130v451zM180 817v43h325v-43h-325z" />
    <glyph glyph-name="umacron" unicode="&#x16b;" horiz-adv-x="522" 
d="M108 49q-62 60 -62 147v262h86v-262q0 -50 37 -86t89 -36t89 36t37 86v262h86v-262q0 -86 -63 -147q-61 -59 -149 -59q-89 0 -150 59zM92 563v43h325v-43h-325z" />
    <glyph glyph-name="Ubreve" unicode="&#x16c;" horiz-adv-x="678" 
d="M523 712h90v-451q0 -112 -79.5 -191.5t-192.5 -79.5q-112 0 -191.5 79.5t-79.5 191.5v451h89v-451q0 -76 53.5 -130t128.5 -54q76 0 129 54t53 130v451zM346 799q-30 0 -57 20q-27 21 -27 54h42q0 -12 13 -23.5t29 -11.5t29 11.5t13 23.5h41q0 -36 -26 -54
q-28 -20 -57 -20z" />
    <glyph glyph-name="ubreve" unicode="&#x16d;" horiz-adv-x="522" 
d="M108 49q-62 60 -62 147v262h86v-262q0 -50 37 -86t89 -36t89 36t37 86v262h86v-262q0 -86 -63 -147q-61 -59 -149 -59q-89 0 -150 59zM261 545q-30 0 -57 20q-27 21 -27 54h42q0 -12 13 -23.5t29 -11.5t29 11.5t13 23.5h41q0 -36 -26 -54q-28 -20 -57 -20z" />
    <glyph glyph-name="Uring" unicode="&#x16e;" horiz-adv-x="678" 
d="M523 712h90v-451q0 -112 -79.5 -191.5t-192.5 -79.5q-112 0 -191.5 79.5t-79.5 191.5v451h89v-451q0 -76 53.5 -130t128.5 -54q76 0 129 54t53 130v451zM343 907q31 0 52.5 -21t21.5 -51t-21.5 -51t-52.5 -21t-53 21t-22 51t22 51t53 21zM343 800q15 0 25.5 10.5
t10.5 24.5t-10.5 24.5t-25.5 10.5t-25.5 -10.5t-10.5 -24.5t10.5 -24.5t25.5 -10.5z" />
    <glyph glyph-name="uring" unicode="&#x16f;" horiz-adv-x="522" 
d="M108 49q-62 60 -62 147v262h86v-262q0 -50 37 -86t89 -36t89 36t37 86v262h86v-262q0 -86 -63 -147q-61 -59 -149 -59q-89 0 -150 59zM261 653q31 0 52.5 -21t21.5 -51t-21.5 -51t-52.5 -21t-53 21t-22 51t22 51t53 21zM261 546q15 0 25.5 10.5t10.5 24.5t-10.5 24.5
t-25.5 10.5t-25.5 -10.5t-10.5 -24.5t10.5 -24.5t25.5 -10.5z" />
    <glyph glyph-name="Ydieresis" unicode="&#x178;" horiz-adv-x="625" 
d="M267 0v360l-251 352h110l187 -261l187 261h109l-251 -352v-360h-91zM394 774q-20 0 -34 14t-14 34q0 19 14 33t34 14t33.5 -13.5t13.5 -33.5t-14 -34t-33 -14zM232 774q-19 0 -33 14t-14 34t13.5 33.5t33.5 13.5t34 -14t14 -33q0 -20 -14 -34t-34 -14z" />
    <glyph glyph-name="Zacute" unicode="&#x179;" horiz-adv-x="570" 
d="M66 0v98l359 529h-360v85h449v-110l-350 -517h351v-85h-449zM279 782l51 107h68l-83 -107h-36z" />
    <glyph glyph-name="zacute" unicode="&#x17a;" horiz-adv-x="407" 
d="M27 458h352v-84l-240 -292h241v-82h-352v84l240 292h-241v82zM190 528l51 107h68l-83 -107h-36z" />
    <glyph glyph-name="Zdotaccent" unicode="&#x17b;" horiz-adv-x="570" 
d="M66 0v98l359 529h-360v85h449v-110l-350 -517h351v-85h-449zM291 875q23 0 39.5 -17t16.5 -40t-16.5 -40t-39.5 -17q-24 0 -40.5 17t-16.5 40t16.5 40t40.5 17z" />
    <glyph glyph-name="zdotaccent" unicode="&#x17c;" horiz-adv-x="407" 
d="M27 458h352v-84l-240 -292h241v-82h-352v84l240 292h-241v82zM205 621q23 0 39.5 -17t16.5 -40t-16.5 -40t-39.5 -17q-24 0 -40.5 17t-16.5 40t16.5 40t40.5 17z" />
    <glyph glyph-name="Zcaron" unicode="&#x17d;" horiz-adv-x="570" 
d="M66 0v98l359 529h-360v85h449v-110l-350 -517h351v-85h-449zM413 880l-81 -107h-68l-81 107h37l78 -72l77 72h38z" />
    <glyph glyph-name="zcaron" unicode="&#x17e;" horiz-adv-x="407" 
d="M27 458h352v-84l-240 -292h241v-82h-352v84l240 292h-241v82zM322 626l-81 -107h-68l-81 107h37l78 -72l77 72h38z" />
    <glyph glyph-name="gacute" unicode="&#x1f5;" horiz-adv-x="548" 
d="M426 458h86v-480q0 -101 -71 -170q-70 -70 -169 -70q-70 0 -129 35q-21 12 -43 33l65 57q48 -38 107 -41q64 0 109 46t45 110v75q-75 -63 -154 -63q-99 0 -170 69q-70 72 -70 170t70 170q71 69 170 69q79 0 154 -63v53zM272 74q64 0 109 45.5t45 109.5t-45 109.5
t-109 45.5t-109 -45.5t-45 -109.5t45 -109.5t109 -45.5zM256 528l51 107h68l-83 -107h-36z" />
    <glyph glyph-name="circumflex" unicode="&#x2c6;" horiz-adv-x="283" 
d="M26 528l80 107h68l82 -107h-38l-78 72l-77 -72h-37z" />
    <glyph glyph-name="caron" unicode="&#x2c7;" horiz-adv-x="278" 
d="M254 626l-81 -107h-68l-81 107h37l78 -72l77 72h38z" />
    <glyph glyph-name="breve" unicode="&#x2d8;" horiz-adv-x="233" 
d="M117 545q-30 0 -57 20q-27 21 -27 54h42q0 -12 13 -23.5t29 -11.5t29 11.5t13 23.5h41q0 -36 -26 -54q-28 -20 -57 -20z" />
    <glyph glyph-name="dotaccent" unicode="&#x2d9;" horiz-adv-x="181" 
d="M91 621q23 0 39.5 -17t16.5 -40t-16.5 -40t-39.5 -17q-24 0 -40.5 17t-16.5 40t16.5 40t40.5 17z" />
    <glyph glyph-name="ring" unicode="&#x2da;" horiz-adv-x="219" 
d="M109 653q31 0 52.5 -21t21.5 -51t-21.5 -51t-52.5 -21t-53 21t-22 51t22 51t53 21zM109 546q15 0 25.5 10.5t10.5 24.5t-10.5 24.5t-25.5 10.5t-25.5 -10.5t-10.5 -24.5t10.5 -24.5t25.5 -10.5z" />
    <glyph glyph-name="ogonek" unicode="&#x2db;" horiz-adv-x="312" 
d="M147 -201l-28 4q-30 7 -55 29t-33 51q-13 47 4.5 86.5t70.5 91.5l60 -61q-33 -33 -44.5 -53.5t-0.5 -40.5q14 -25 46.5 -18t63.5 41l56 -54q-45 -49 -81 -63q-33 -13 -59 -13z" />
    <glyph glyph-name="tilde" unicode="&#x2dc;" horiz-adv-x="267" 
d="M168 548q-18 0 -43 17q-16 9 -22 10q-18 3 -32 -22l-34 22q25 41 66 41q17 0 41 -16v1q17 -11 24 -12q17 -2 32 21l35 -22q-28 -40 -67 -40z" />
    <glyph glyph-name="hungarumlaut" unicode="&#x2dd;" horiz-adv-x="258" 
d="M26 529l51 106h68l-83 -107zM111 529l52 106h68l-83 -107z" />
    <glyph glyph-name="endash" unicode="&#x2013;" horiz-adv-x="542" 
d="M492 274v-86h-442v86h442z" />
    <glyph glyph-name="emdash" unicode="&#x2014;" horiz-adv-x="899" 
d="M849 274v-86h-799v86h799z" />
    <glyph glyph-name="quotesinglbase" unicode="&#x201a;" horiz-adv-x="161" 
d="M112 -178h-64v139h64v-139z" />
    <glyph glyph-name="quotedblbase" unicode="&#x201e;" horiz-adv-x="242" 
d="M109 -178h-64v139h64v-139zM196 -178h-63v139h63v-139z" />
    <glyph glyph-name="dagger" unicode="&#x2020;" horiz-adv-x="404" 
d="M159 0v235h-109v85h109v138h85v-138h110v-85h-110v-235h-85z" />
    <glyph glyph-name="bullet" unicode="&#x2022;" horiz-adv-x="266" 
d="M133 328q41 0 69.5 -29t28.5 -69t-28.5 -69t-69.5 -29t-69.5 29t-28.5 69t28.5 69t69.5 29z" />
    <glyph glyph-name="ellipsis" unicode="&#x2026;" horiz-adv-x="491" 
d="M102 114q23 0 40 -17t17 -40t-17 -40t-40 -17t-40 17t-17 40t17 40t40 17zM246 114q23 0 39.5 -17t16.5 -40t-16.5 -40t-39.5 -17q-24 0 -40.5 17t-16.5 40t16.5 40t40.5 17zM389 114q23 0 40 -17t17 -40t-17 -40t-40 -17t-40 17t-17 40t17 40t40 17z" />
    <glyph glyph-name="perthousand" unicode="&#x2030;" horiz-adv-x="957" 
d="M428 712h97l-275 -712h-96zM292 583q0 -53 -38.5 -90.5t-93.5 -37.5t-94 37.5t-39 90.5q0 54 39 91.5t94 37.5t93.5 -37.5t38.5 -91.5zM109 583q0 -20 15 -34.5t36 -14.5t36 14.5t15 34.5t-15 35t-36 15t-36 -15t-15 -35zM519 257q55 0 94 -37.5t39 -90.5
q0 -54 -39 -91.5t-94 -37.5t-93.5 37.5t-38.5 91.5q0 53 38.5 90.5t93.5 37.5zM519 80q21 0 36 14.5t15 34.5t-15 34.5t-36 14.5t-36 -14.5t-15 -34.5t15 -34.5t36 -14.5zM798 257q55 0 94 -37.5t39 -90.5q0 -54 -39 -91.5t-94 -37.5t-93.5 37.5t-38.5 91.5q0 53 38.5 90.5
t93.5 37.5zM798 80q21 0 36 14.5t15 34.5t-15 34.5t-36 14.5t-36 -14.5t-15 -34.5t15 -34.5t36 -14.5z" />
    <glyph glyph-name="fraction" unicode="&#x2044;" horiz-adv-x="386" 
d="M102 0h-96l274 712h97z" />
    <glyph glyph-name="Euro" unicode="&#x20ac;" horiz-adv-x="623" 
d="M488 79q37 0 70 9l38 -80q-51 -16 -108 -16q-126 0 -226 76.5t-133 196.5h-104v80h91v19v20h-91v80h104q33 119 133 196t226 77q56 0 110 -17l-38 -80q-34 9 -72 9q-90 0 -163 -51.5t-104 -133.5h209v-80h-226q0 -4 -0.5 -10t-0.5 -10q0 -3 0.5 -9.5t0.5 -9.5h226v-80
h-209q31 -82 104 -134t163 -52z" />
    <glyph glyph-name="trademark" unicode="&#x2122;" horiz-adv-x="318" 
d="M79 497v112h-36v26h99v-26h-36v-112h-27zM249 497v91l-36 -48l-35 48v-91h-27v138h25l37 -51l37 51h25v-138h-26z" />
    <glyph glyph-name="minus" unicode="&#x2212;" horiz-adv-x="400" 
d="M49 274h301v-86h-301v86z" />
    <glyph glyph-name="ff" unicode="&#xfb00;" horiz-adv-x="647" 
d="M520 652q-28 0 -48.5 -21t-20.5 -49v-124h142v-82h-142v-376h-86v376h-183v-376h-86v376h-68v82h68v126q0 63 44.5 106.5t107.5 43.5h85l-22 -82h-61q-27 0 -47.5 -21t-20.5 -49v-124h183v126q0 63 45 106.5t108 43.5h100l-21 -82h-77z" />
    <glyph glyph-name="fi" unicode="&#xfb01;" horiz-adv-x="497" 
d="M183 458h268v-457h-86v375h-182v-376h-86v376h-68v82h68v126q0 63 44.5 106.5t107.5 43.5h101l-22 -82h-77q-27 0 -47.5 -21t-20.5 -49v-124z" />
    <glyph glyph-name="fl" unicode="&#xfb02;" horiz-adv-x="547" 
d="M302 737q83 0 141 -57t58 -139v-541h-86v541q0 46 -33 78t-80 32t-79.5 -32t-32.5 -78v-83h141v-82h-141v-376h-86v376h-68v82h68v83q0 82 58 139t140 57z" />
    <glyph glyph-name="ffi" unicode="&#xfb03;" horiz-adv-x="774" 
d="M459 458h269v-458h-86v376h-183v-376h-86v376h-183v-376h-86v376h-68v82h68v126q0 63 44.5 106.5t107.5 43.5h85l-22 -82h-61q-27 0 -47.5 -21t-20.5 -49v-124h183v126q0 63 45 106.5t108 43.5h100l-21 -82h-77q-28 0 -48.5 -21t-20.5 -49v-124z" />
    <glyph glyph-name="ffl" unicode="&#xfb04;" horiz-adv-x="821" 
d="M577 737q82 0 140 -57t58 -139v-541h-86v541q0 46 -32.5 78t-79.5 32t-80 -32t-33 -78v-83h141v-3v-79h-141v-376h-86v376h-183v-376h-86v376h-68v82h68v126q0 63 44.5 106.5t107.5 43.5h85l-22 -82h-61q-27 0 -47.5 -21t-20.5 -49v-124h183v83q0 82 58 139t141 57z" />
    <glyph glyph-name="ibreve" horiz-adv-x="207" 
d="M58 0v458h86v-458h-86zM104 545q-30 0 -57 20q-27 21 -27 54h42q0 -12 13 -23.5t29 -11.5t29 11.5t13 23.5h41q0 -36 -26 -54q-28 -20 -57 -20z" />
    <glyph glyph-name="Imacron" horiz-adv-x="405" 
d="M156 0v712h90v-712h-90zM40 817v43h325v-43h-325z" />
    <glyph glyph-name="W_2" horiz-adv-x="1002" 
d="M885 712h97l-275 -712h-93l-113 294l-114 -294h-93l-274 712h96l225 -583l112 290l-113 293h96l65 -168l65 168h96l-113 -293l112 -290z" />
    <glyph glyph-name="S_2" horiz-adv-x="551" 
d="M439 399q70 -72 70 -170t-70 -170q-70 -70 -170 -70q-99 0 -169 70q-70 72 -70 170h86q0 -64 45 -109t108 -45q64 0 109 45t45 109q0 116 -154 154q-77 18 -126 62.5t-49 113.5q0 73 51.5 124t123.5 51q73 0 124.5 -51t51.5 -124h-86q0 37 -26.5 63t-63.5 26t-63 -26
t-26 -63q0 -63 89 -90q12 -3 45 -11.5t48.5 -13.5t38 -17t38.5 -28z" />
    <glyph glyph-name="Q_2" horiz-adv-x="789" 
d="M405 -10q-116 0 -209 63q-38 26 -68 59q-96 107 -96 249q0 76 29 146q29 67 80 118q51 50 119 79q73 30 145 30q76 0 146 -29q67 -29 118 -80q52 -50 81 -118q29 -70 29 -146q0 -141 -95 -247q45 -51 69 -112l1 -3h-103v1q-17 29 -37 52q-94 -62 -209 -62zM275 114
q62 -34 130 -34q69 0 131 34q-63 33 -131 33q-67 0 -130 -33zM405 644q-115 0 -197 -83.5t-82 -199.5q0 -107 71 -186q94 62 208 62q115 0 209 -62q71 79 71 186q0 117 -82 200t-198 83z" />
    </font>
</defs>
</svg>
