<?xml version="1.0" standalone="no"?>
<!DOCTYPE svg PUBLIC "-//W3C//DTD SVG 1.1//EN" "http://www.w3.org/Graphics/SVG/1.1/DTD/svg11.dtd" >
<svg xmlns="http://www.w3.org/2000/svg" xmlns:xlink="http://www.w3.org/1999/xlink" version="1.1">
<metadata>
Created by FontForge 20150824 at Sun Jun  5 10:36:17 2016
 By Everything Fonts
Copyright (c) 2013 by Marco Ugolini. All rights reserved.
</metadata>
<defs>
<font id="Biko_Bold" horiz-adv-x="558" >
  <font-face 
    font-family="Biko_Bold"
    font-weight="700"
    font-stretch="normal"
    units-per-em="1000"
    panose-1="2 0 0 0 0 0 0 0 0 0"
    ascent="750"
    descent="-250"
    x-height="458"
    cap-height="712"
    bbox="-96 -266 1024 951"
    underline-thickness="50"
    underline-position="-150"
    unicode-range="U+0020-2212"
  />
<missing-glyph horiz-adv-x="230" 
 />
    <glyph glyph-name=".notdef" horiz-adv-x="230" 
 />
    <glyph glyph-name=".null" horiz-adv-x="0" 
 />
    <glyph glyph-name="nonmarkingreturn" horiz-adv-x="333" 
 />
    <glyph glyph-name="space" unicode=" " horiz-adv-x="230" 
 />
    <glyph glyph-name="exclam" unicode="!" horiz-adv-x="309" 
d="M155 -10q-33 0 -56.5 23.5t-23.5 57.5q0 32 24 56q23 23 56 23t56 -23.5t23 -55.5q0 -34 -23 -57q-24 -24 -56 -24zM221 187h-133v547h133v-547z" />
    <glyph glyph-name="quotedbl" unicode="&#x22;" horiz-adv-x="252" 
d="M30 551v162h84v-162h-84zM138 551v162h84v-162h-84z" />
    <glyph glyph-name="numbersign" unicode="#" horiz-adv-x="487" 
d="M333 48h-97l11 55h-57l-11 -55h-97l11 55h-55l19 95h55l12 59h-56l19 96h56l10 55h98l-11 -55h57l11 55h97l-11 -55h55l-19 -96h-55l-12 -59h55l-19 -95h-55zM209 198h57l12 59h-57z" />
    <glyph glyph-name="dollar" unicode="$" horiz-adv-x="564" 
d="M344 -59h-125v48q-73 18 -126 71q-65 65 -65 150v25h133v-25q0 -53 58 -82v174q-88 28 -136 71q-27 25 -42 57q-13 32 -13 71q0 87 61 148q51 50 130 64v51h125v-57q67 -22 112 -71q57 -66 57 -153v-25h-133v25q0 52 -36 79v-162q93 -29 137 -69q55 -49 55 -133
q0 -76 -54 -135t-138 -76v-46zM344 268v-144q23 10 37 24q23 23 23 50q0 35 -24 52q-12 9 -36 18zM219 437v140q-59 -23 -59 -76q0 -40 59 -64z" />
    <glyph glyph-name="percent" unicode="%" horiz-adv-x="686" 
d="M134 0h144l274 712h-143zM612 237q44 -44 44 -103t-44 -103q-44 -42 -104 -42q-62 0 -105.5 42.5t-43.5 102.5t43.5 102.5t105.5 42.5q60 0 104 -42zM461 134q0 -20 13.5 -33.5t33.5 -13.5q19 0 32.5 14t13.5 33t-13.5 33t-32.5 14q-21 0 -33 -14q-14 -14 -14 -33z
M283 684q44 -42 44 -103q0 -60 -44 -102t-104 -42q-61 0 -105 42.5t-44 101.5q0 60 43.5 102.5t105.5 42.5q60 0 104 -42zM132 582q0 -20 14 -33.5t33 -13.5t32.5 14t13.5 33t-13.5 32.5t-32.5 13.5t-34 -13q-13 -15 -13 -33z" />
    <glyph glyph-name="ampersand" unicode="&#x26;" horiz-adv-x="807" 
d="M230 -10q-84 0 -142 58q-58 60 -58 142q0 83 58 141l85 85l-24 24q-48 50 -47.5 117t48.5 116q47 47 116 47t116 -47l1 -1q47 -49 47 -116q0 -68 -47 -117l-22 -21l88 -88q5 15 5 29q-2 23 -9 42l-8 17l105 82l14 -27q27 -53 29 -112v-1v-1q0 -74 -38 -129l230 -230h-190
l-132 133l-84 -85q-56 -58 -141 -58zM264 321l-84 -85q-19 -20 -18.5 -48t20.5 -48t48 -20q29 0 49 20l83 83zM266 590q-13 0 -23 -10v-1q-10 -9 -10 -23t13 -27l20 -20l23 23q10 10 10 24t-10 23q-11 11 -23 11z" />
    <glyph glyph-name="quotesingle" unicode="'" horiz-adv-x="180" 
d="M132 551h-84v162h84v-162z" />
    <glyph glyph-name="parenleft" unicode="(" horiz-adv-x="365" 
d="M330 -64h-25q-62 0 -116 43q-38 31 -74 95v1q-60 115 -60 278q0 162 60 277q31 59 74 96v1h1q53 42 115 42h25v-132h-25q-16 0 -35.5 -17t-36.5 -50q-46 -86 -46 -217q0 -132 46 -218q17 -33 36.5 -50.5t35.5 -17.5h25v-131z" />
    <glyph glyph-name="parenright" unicode=")" horiz-adv-x="365" 
d="M35 -64v131h26q15 0 35 17.5t37 49.5q46 90 46 219q0 128 -46 217q-17 33 -37 50t-35 17h-26v132h26q63 0 114 -42q43 -36 74 -97q61 -114 61 -277q0 -165 -61 -279q-32 -62 -74 -95q-51 -43 -114 -43h-26z" />
    <glyph glyph-name="asterisk" unicode="*" horiz-adv-x="205" 
d="M117 563h-30v40l-27 -28l-21 21l28 27h-40v30h40l-28 28l21 21l27 -28v39h30v-39l28 28l21 -21l-28 -28h39v-30h-39l28 -27l-21 -21l-28 28v-40z" />
    <glyph glyph-name="plus" unicode="+" horiz-adv-x="400" 
d="M259 79h-117v91h-92v117h92v92h117v-92h91v-117h-91v-91z" />
    <glyph glyph-name="comma" unicode="," horiz-adv-x="250" 
d="M230 68q0 -19 -8 -35q-7 -14 -19 -26l-3 -3l-67 -71h-113l75 80q-5 5 -8 11q-14 19 -14 44q0 34 23 55q23 23 56 23q32 0 55 -23t23 -55z" />
    <glyph glyph-name="hyphen" unicode="-" horiz-adv-x="413" 
d="M363 171h-313v116h313v-116z" />
    <glyph glyph-name="period" unicode="." horiz-adv-x="225" 
d="M113 -10q-33 0 -56 23t-23 55q0 34 23 55q23 23 56 23q32 0 55 -23t23 -55t-23 -55t-55 -23z" />
    <glyph glyph-name="slash" unicode="/" horiz-adv-x="433" 
d="M149 0h-143l274 712h144z" />
    <glyph glyph-name="zero" unicode="0" horiz-adv-x="618" 
d="M309 -10q-102 0 -173 71t-71 171v259q0 100 71 171q72 70 173 70q100 0 172 -70t72 -171v-259q0 -100 -71.5 -171t-172.5 -71zM309 601q-46 0 -78.5 -32t-32.5 -78v-259q0 -46 32.5 -78.5t78.5 -32.5t78.5 32.5t32.5 78.5v259q0 46 -32.5 78t-78.5 32z" />
    <glyph glyph-name="one" unicode="1" horiz-adv-x="362" 
d="M282 0h-135v523l-52 -39l-79 107l162 121h104v-712z" />
    <glyph glyph-name="two" unicode="2" horiz-adv-x="509" 
d="M472 0h-438v116l289 338q17 25 17 51q0 36 -25.5 62.5t-61.5 26.5q-28 0 -50.5 -17.5t-31.5 -44.5l-7 -21l-128 27l7 26q19 70 77.5 114t132.5 44q91 0 155 -62q64 -64 64 -155q0 -70 -42 -129l-1 -1l-206 -243h249v-132z" />
    <glyph glyph-name="three" unicode="3" horiz-adv-x="532" 
d="M260 -9q-100 0 -166 66h-1q-68 71 -68 167v25h134v-25q0 -43 29.5 -74t71.5 -31t72 31t30 74q0 41 -30 70.5t-73 29.5h-26v134h26q30 0 52 21.5t22 50.5q0 30 -21.5 52.5t-51.5 22.5q-28 0 -49.5 -22.5t-21.5 -52.5v-25h-135v25q0 84 61 145q58 57 145 57q88 0 146 -57
q61 -59 61 -145q0 -74 -50 -133q3 -2 9 -8q34 -34 52 -75q18 -44 18 -90q0 -100 -69 -167q-32 -32 -76 -51q-40 -15 -91 -15z" />
    <glyph glyph-name="four" unicode="4" horiz-adv-x="596" 
d="M462 0h-134v172h-308v94l319 446h123v-409h114v-131h-114v-172zM201 303h127v176z" />
    <glyph glyph-name="five" unicode="5" horiz-adv-x="537" 
d="M252 -8q-110 0 -179 69q-15 14 -28 32l-15 21l110 78l14 -20q38 -53 98 -53q48 0 83.5 34.5t35.5 81.5q0 49 -35.5 85t-83.5 36q-25 0 -53 -15l-9 -4l-122 34l92 342h335v-133l-231 1l-26 -95h14q105 0 180 -72q36 -35 56 -82q19 -49 19 -97q0 -101 -75 -174
q-36 -34 -83 -54q-41 -15 -97 -15z" />
    <glyph glyph-name="six" unicode="6" horiz-adv-x="541" 
d="M264 -8q-100 0 -171 69t-71 170q0 59 30 117h1l220 365h157l-146 -242q93 -8 157 -77t64 -163q0 -101 -71 -170q-69 -69 -170 -69zM264 340q-44 0 -76 -32t-32 -77q0 -44 32.5 -77t75.5 -33t75 33t32 77q0 45 -31.5 77t-75.5 32z" />
    <glyph glyph-name="seven" unicode="7" horiz-adv-x="488" 
d="M174 0h-147l269 581h-254v131h425v-77z" />
    <glyph glyph-name="eight" unicode="8" horiz-adv-x="555" 
d="M276 -9q-103 0 -174 71q-72 72 -72 173q0 55 24 105.5t67 84.5q-39 51 -39 115q0 79 57 136q57 55 137 55q81 0 138 -55t57 -136q0 -39 -15 -75q-14 -28 -24 -40q37 -29 61 -72q30 -54 30 -118q0 -102 -72 -174q-72 -70 -175 -70zM276 350q-46 0 -78.5 -34t-32.5 -81
t32.5 -80.5t78.5 -33.5q47 0 80 33.5t33 80.5t-33 81t-80 34zM276 602q-24 0 -41.5 -18.5t-17.5 -43.5t17.5 -44t41.5 -19q25 0 43 19t18 44t-18 43.5t-43 18.5z" />
    <glyph glyph-name="nine" unicode="9" horiz-adv-x="541" 
d="M260 0h-158l153 252q-94 8 -158.5 76.5t-64.5 162.5q0 100 71 170.5t172 70.5q100 0 170.5 -70.5t70.5 -170.5q0 -58 -29 -114l-1 -3zM275 601q-45 0 -76.5 -32.5t-31.5 -77.5q0 -44 32 -77t76 -33q43 0 75.5 33t32.5 77q0 45 -32 77.5t-76 32.5z" />
    <glyph glyph-name="colon" unicode=":" horiz-adv-x="257" 
d="M129 -10q-33 0 -56 23t-23 55q0 34 23 55q23 23 56 23q32 0 55 -23t23 -55t-23 -55t-55 -23zM129 189q-33 0 -56 23t-23 55q0 34 23 55q23 23 56 23q32 0 55 -23t23 -55t-23 -55t-55 -23z" />
    <glyph glyph-name="semicolon" unicode=";" horiz-adv-x="310" 
d="M260 68q0 -19 -8 -35q-7 -14 -19 -26l-3 -3l-67 -71h-113l75 80q-5 5 -8 11q-14 19 -14 44q0 34 23 55q23 23 56 23q32 0 55 -23t23 -55zM182 189q-33 0 -56 23t-23 55q0 34 23 55q23 23 56 23q32 0 55 -23t23 -55t-23 -55t-55 -23z" />
    <glyph glyph-name="less" unicode="&#x3c;" horiz-adv-x="310" 
d="M260 80l-210 116v67l210 117v-121l-65 -29l65 -28v-122z" />
    <glyph glyph-name="equal" unicode="=" horiz-adv-x="413" 
d="M363 83h-313v116h313v-116zM363 262h-313v116h313v-116z" />
    <glyph glyph-name="greater" unicode="&#x3e;" horiz-adv-x="310" 
d="M50 379l210 -116v-67l-210 -117v121l65 29l-65 28v122z" />
    <glyph glyph-name="question" unicode="?" horiz-adv-x="425" 
d="M212 -8q-33 0 -56 23t-23 57q0 33 23.5 56t55.5 23q33 0 56 -23t23 -56q0 -34 -23 -57t-56 -23zM281 188h-133v26q0 86 41 186q23 54 54 100q1 0 1 1t1 2v1q25 37 18 59q-4 21 -24 32q-13 8 -27 8q-9 0 -13 -1h-1q-19 -6 -32 -25q-6 -12 -6 -28v-26h-133v26q0 51 25 93
q35 65 112 85q22 7 48 7q47 0 93 -23q65 -38 86 -113q18 -66 -14 -122q-1 -1 -4 -6t-5 -8q-87 -134 -87 -248v-26z" />
    <glyph glyph-name="at" unicode="@" horiz-adv-x="1001" 
d="M490 -171q-42 0 -94 10q-91 20 -162 68q-73 48 -125 124q-52 79 -68 168q-16 92 5 181q20 82 72 159v1q55 75 129 121q76 48 172 65q40 8 90 8q48 0 93 -9q91 -20 163 -68q76 -51 125 -124q51 -77 68 -168q20 -116 -26 -213q-25 -50 -62 -81q-56 -45 -119 -45
q-65 0 -115 35q-25 17 -42 39q-23 -13 -40 -19q-33 -13 -73 -13q-93 0 -156 63q-66 64 -66 154t66 154q63 63 156 63q52 0 100 -23h123l1 -268h1v-25q0 -8 12 -20t27 -12q17 0 36.5 14.5t33.5 40.5q28 48 12 132v1q-21 114 -112.5 188.5t-211.5 74.5q-28 0 -61 -5
q-136 -24 -218 -140q-75 -109 -52 -237q20 -115 111.5 -189.5t210.5 -74.5q32 0 62 6q35 5 81 24l17 17l96 -109l-32 -16q-64 -31 -137 -43q-47 -9 -91 -9zM481 371q-36 0 -62.5 -25.5t-26.5 -60.5t26 -60.5t63 -25.5t63.5 25.5t26.5 60.5t-26.5 60.5t-63.5 25.5z" />
    <glyph glyph-name="A" unicode="A" horiz-adv-x="710" 
d="M690 0h-144l-73 192h-236l-74 -192h-143l274 712h121zM289 324h132l-66 173z" />
    <glyph glyph-name="B" unicode="B" horiz-adv-x="648" 
d="M377 0h-312v712h264q76 0 128 -54q54 -52 54 -128q0 -41 -18 -80q32 -18 52 -40q71 -69 71 -169q0 -99 -71 -170q-34 -34 -77 -52q-42 -19 -91 -19zM198 131h178q44 2 75.5 34t31.5 76t-31.5 75.5t-74.5 32.5h-179v-218zM198 480h130q21 0 35.5 15t14.5 35t-14.5 34.5
t-35.5 16.5h-130v-101z" />
    <glyph glyph-name="C" unicode="C" horiz-adv-x="758" 
d="M407 -11q-75 0 -145 29q-67 29 -118 80q-53 51 -80 119q-30 69 -30 145q0 154 109.5 263t263.5 109q89 0 167 -40q78 -38 131 -110l16 -20l-107 -79l-15 20q-71 96 -192 96q-99 0 -169.5 -70t-70.5 -169q0 -100 70.5 -170.5t169.5 -70.5q57 0 107 25t85 71l15 19l106 -78
l-16 -20q-53 -71 -131 -110q-76 -39 -166 -39z" />
    <glyph glyph-name="D" unicode="D" horiz-adv-x="703" 
d="M304 0h-239v712h239q151 0 258 -104.5t107 -251.5t-107 -251.5t-258 -104.5zM198 131h106q96 0 164 66t68 159t-68 159t-164 66h-106v-450z" />
    <glyph glyph-name="E" unicode="E" horiz-adv-x="591" 
d="M550 0h-460v712h469v-130h-335v-105h292v-133h-292v-212h326v-132z" />
    <glyph glyph-name="F" unicode="F" horiz-adv-x="538" 
d="M198 0h-133v712h468v-131h-335v-105h185v-132h-185v-344z" />
    <glyph glyph-name="G" unicode="G" horiz-adv-x="772" 
d="M406 -11q-154 0 -263 109.5t-109 263.5t109 263t263 109q75 0 144 -29q70 -30 120 -81l19 -19l-99 -87l-17 16q-65 67 -167 67q-99 0 -169 -70t-70 -169q0 -100 70 -170.5t169 -70.5q102 0 175 75v148h-195v133h326v-328l-5 -6q-54 -73 -133.5 -113.5t-167.5 -40.5z" />
    <glyph glyph-name="H" unicode="H" horiz-adv-x="697" 
d="M632 0h-134v345h-289v-345h-134v712h134v-236h289v236h134v-712z" />
    <glyph glyph-name="I" unicode="I" horiz-adv-x="314" 
d="M224 0h-134v712h134v-712z" />
    <glyph glyph-name="J" unicode="J" horiz-adv-x="457" 
d="M119 -261q-114 0 -192 76l-23 24l112 81l15 -15q39 -33 88 -33q57 0 98.5 42t41.5 100v564h-176v135h312v-699q0 -115 -81 -196q-34 -36 -89 -59q-51 -20 -106 -20z" />
    <glyph glyph-name="K" unicode="K" horiz-adv-x="764" 
d="M754 0h-167l-265 372l-114 -108v-264h-133v712h133v-267l284 267h192l-261 -247z" />
    <glyph glyph-name="L" unicode="L" horiz-adv-x="598" 
d="M572 0h-497v712h134v-581h363v-131z" />
    <glyph glyph-name="M" unicode="M" horiz-adv-x="807" 
d="M717 0h-133v476l-186 -254l-185 254v-476h-133v712h125l193 -265l193 265h126v-712z" />
    <glyph glyph-name="N" unicode="N" horiz-adv-x="759" 
d="M669 0h-129l-316 467v-467h-134v712h130l315 -466v466h134v-712z" />
    <glyph glyph-name="O" unicode="O" horiz-adv-x="813" 
d="M406 -10q-154 0 -263 108.5t-109 262.5t109 263.5t263 109.5t263.5 -109t109.5 -264q0 -154 -109 -262.5t-264 -108.5zM406 601q-98 0 -168 -70t-70 -170q0 -99 70 -169t168 -70t168 70t70 169q0 100 -70 170t-168 70z" />
    <glyph glyph-name="P" unicode="P" horiz-adv-x="548" 
d="M208 0h-133v712h255q76 0 130 -54q54 -56 54 -129q0 -76 -54 -129t-130 -53h-122v-347zM208 478h122q21 0 35.5 15t14.5 36t-15 36.5t-35 15.5h-122v-103z" />
    <glyph glyph-name="Q" unicode="Q" horiz-adv-x="871" 
d="M404 -9q-154 0 -263 108.5t-109 262.5t109 263.5t263 109.5q75 0 145 -29q67 -29 118 -80q54 -54 80 -119q30 -69 30 -145q0 -66 -22 -123q-16 -47 -45 -88l151 -151h-188l-57 57q-39 -28 -88 -45q-60 -21 -124 -21zM404 602q-98 0 -168 -70t-70 -170q0 -99 70 -169
t168 -70q61 0 115 31l-180 179l95 94l179 -179q29 52 29 114q0 100 -70 170t-168 70z" />
    <glyph glyph-name="R" unicode="R" horiz-adv-x="673" 
d="M663 0h-158l-253 348h-57v-348h-130v712h255q74 0 128 -54t54 -128q0 -53 -28.5 -97.5t-75.5 -67.5zM195 478h125q21 0 36.5 15t15.5 37t-15.5 37t-36.5 15h-125v-104z" />
    <glyph glyph-name="S" unicode="S" horiz-adv-x="625" 
d="M331 -6q-32 0 -72 8q-114 23 -209 106l-19 17l88 100l19 -17q71 -62 147 -77h1q25 -5 45 -5q37 0 67 14q52 22 52 73q0 32 -34 53q-33 20 -93 31q-24 4 -77.5 18t-83.5 31q-46 28 -72 71q-25 43 -25 96q0 58 35 111q34 44 88 70q55 26 119 26q17 0 53 -4q103 -19 188 -90
l19 -16l-85 -103l-19 16q-80 65 -157 65q-33 0 -62 -13q-46 -21 -46 -61q0 -31 27 -49t94 -33q6 -1 22 -5q95 -18 137 -43q50 -26 78 -72q27 -43 27 -99q0 -68 -36 -119q-32 -44 -93 -74q-51 -26 -123 -26z" />
    <glyph glyph-name="T" unicode="T" horiz-adv-x="538" 
d="M336 0h-134v580h-175v132h484v-132h-175v-580z" />
    <glyph glyph-name="U" unicode="U" horiz-adv-x="695" 
d="M347 -10q-115 0 -196 81t-81 196v445h133v-445q0 -60 42.5 -103t101.5 -43q60 0 102 43t42 103v445h134v-445q0 -115 -81 -196q-83 -81 -197 -81z" />
    <glyph glyph-name="V" unicode="V" horiz-adv-x="710" 
d="M416 0h-121l-275 712h144l191 -497l192 497h143z" />
    <glyph glyph-name="W" unicode="W" horiz-adv-x="1044" 
d="M825 0h-123l-180 316l-180 -316h-123l-199 712h140l142 -513l159 278h123l158 -278l143 513h139z" />
    <glyph glyph-name="X" unicode="X" horiz-adv-x="737" 
d="M717 -1h-163l-185 259l-186 -259h-163l267 373l-243 339h164l161 -224l161 224h163l-243 -339z" />
    <glyph glyph-name="Y" unicode="Y" horiz-adv-x="681" 
d="M408 0h-135v352l-257 360h164l161 -225l161 225h163l-257 -360v-352z" />
    <glyph glyph-name="Z" unicode="Z" horiz-adv-x="588" 
d="M533 0h-467v120l315 467h-316v125h467v-131l-307 -456h308v-125z" />
    <glyph glyph-name="bracketleft" unicode="[" horiz-adv-x="313" 
d="M258 1h-203v734h203v-130h-72v-475h72v-129z" />
    <glyph glyph-name="backslash" unicode="\" horiz-adv-x="434" 
d="M427 -1h-144l-276 712h144z" />
    <glyph glyph-name="bracketright" unicode="]" horiz-adv-x="313" 
d="M258 1h-203v129h73v475h-73v130h203v-734z" />
    <glyph glyph-name="underscore" unicode="_" horiz-adv-x="479" 
d="M429 0h-379v116h379v-116z" />
    <glyph glyph-name="grave" unicode="`" horiz-adv-x="243" 
d="M34 662h107l68 -140h-67z" />
    <glyph glyph-name="a" unicode="a" 
d="M272 -9q-98 0 -169 69q-70 72 -70 169t70 169q69 69 169 69q64 0 113 -45l5 -4v40h121v-458h-121v36l-5 -5q-41 -40 -113 -40zM272 350q-48 0 -83 -36t-35 -85t35 -85t83 -36t83 36t35 85t-35 85t-83 36z" />
    <glyph glyph-name="b" unicode="b" horiz-adv-x="577" 
d="M307 -9q-72 0 -113 40l-5 5v-36h-121v734h121v-316l5 4q50 45 113 45q100 0 169 -69q70 -72 70 -169t-70 -169q-71 -69 -169 -69zM189 229q0 -49 35 -85t83 -36t83 36t35 85t-35 85t-83 36t-83 -36t-35 -85z" />
    <glyph glyph-name="c" unicode="c" horiz-adv-x="513" 
d="M272 -10q-98 0 -169 69l-1 1q-69 71 -69 169q0 99 69 170q71 69 170 69q103 0 169 -69q15 -14 25 -28l12 -18l-98 -73l-14 19q-39 52 -94 52q-47 0 -82 -36.5t-35 -85.5t35 -85.5t82 -36.5q56 0 94 54l13 18l102 -73l-15 -19q-2 -3 -8 -9q-10 -12 -17 -19
q-69 -69 -169 -69z" />
    <glyph glyph-name="d" unicode="d" horiz-adv-x="564" 
d="M272 -9q-98 0 -169 69q-70 72 -70 169t70 169q69 69 169 69q64 0 113 -45l5 -4v316h121v-734h-121v36l-5 -5q-41 -40 -113 -40zM272 350q-48 0 -83 -36t-35 -85t35 -85t83 -36t83 36t35 85t-35 85t-83 36z" />
    <glyph glyph-name="e" unicode="e" horiz-adv-x="509" 
d="M257 -11h-1q-44 0 -87 20q-37 16 -72 52q-53 58 -61 140q-2 18 -2 28q0 28 8 62q14 63 55 105q30 33 72 53q39 19 88 19t88 -19q44 -21 72 -53q41 -44 56 -105q7 -27 7 -62v-23h-336l1 -7q10 -47 41.5 -77t70.5 -30h1q41 3 80 36l11 9l83 -72l-15 -13q-23 -21 -40 -30h-1
q-54 -32 -119 -33zM257 364q-29 0 -56 -19t-43 -50l-4 -8h207l-4 8q-37 69 -100 69z" />
    <glyph glyph-name="f" unicode="f" horiz-adv-x="400" 
d="M223 0h-121v351h-65v103h65v118q0 68 47 115q50 47 116 47h122l-32 -118h-88q-17 0 -30.5 -13.5t-13.5 -32.5v-116h133v-103h-133v-351z" />
    <glyph glyph-name="g" unicode="g" 
d="M266 -266q-75 0 -132 36q-16 8 -44 33l-16 16l90 79l13 -11q44 -33 89 -36v0q51 1 87.5 39t36.5 90v58l-5 -5q-24 -23 -48 -31t-57 -10h-17q-95 3 -160 68q-70 72 -70 169t70 169q71 69 169 69q70 0 113 -43l5 -4v38h121v-479q0 -102 -73 -173q-69 -72 -172 -72zM272 351
q-48 0 -83 -36t-35 -86q0 -49 35 -85t83 -36t83 36t35 85q0 50 -35 86t-83 36z" />
    <glyph glyph-name="h" unicode="h" horiz-adv-x="537" 
d="M491 0h-126v245q0 40 -28 68t-69 28q-39 0 -68 -28.5t-29 -67.5v-245h-125v734h125v-309q42 42 97 42q92 0 158 -64q65 -67 65 -158v-245z" />
    <glyph glyph-name="i" unicode="i" horiz-adv-x="285" 
d="M208 0h-130v458h130v-458zM143 513q-32 0 -55 22.5t-23 54.5q0 33 23 54q23 23 55 23q31 0 54 -22.5t23 -54.5t-23 -54.5t-54 -22.5z" />
    <glyph glyph-name="j" unicode="j" horiz-adv-x="244" 
d="M-34 -256l-18 130l22 6q29 6 54 28q23 23 26 58v492h131v-482q0 -93 -65 -160q-52 -49 -123 -65zM116 514q-33 0 -56 23t-23 55q0 34 23 55q23 23 56 23q32 0 55 -23t23 -55t-23 -55t-55 -23z" />
    <glyph glyph-name="k" unicode="k" horiz-adv-x="542" 
d="M532 0h-156l-159 203l-41 -42v-161h-130v734h130v-397l126 121h177l-172 -164z" />
    <glyph glyph-name="l" unicode="l" horiz-adv-x="250" 
d="M185 0h-130v734h130v-734z" />
    <glyph glyph-name="m" unicode="m" horiz-adv-x="856" 
d="M810 0h-125v245q0 40 -29 70t-68 30q-40 0 -69 -29.5t-29 -70.5v-245h-125v245q0 41 -28.5 70.5t-68.5 29.5q-39 0 -68 -30t-29 -70v-245h-125v458h125v-33q42 42 97 42q44 0 86 -18q38 -18 72 -50l2 -2l2 2q32 32 72 50q42 18 86 18q91 0 157 -64q65 -67 65 -158v-245z
" />
    <glyph glyph-name="n" unicode="n" horiz-adv-x="543" 
d="M497 0h-126v245q0 40 -28 68t-69 28q-39 0 -68 -28.5t-29 -67.5v-245h-125v458h125v-33q42 42 97 42q92 0 158 -64q65 -67 65 -158v-245z" />
    <glyph glyph-name="o" unicode="o" horiz-adv-x="548" 
d="M273 -11q-97 0 -170 70q-70 73 -70 170q0 98 70 170q72 69 170 69q102 0 169 -69q71 -71 71 -170t-71 -170q-70 -70 -169 -70zM273 354q-50 0 -86 -36.5t-36 -88.5t36 -88.5t86 -36.5q51 0 87 36.5t36 88.5t-36 88.5t-87 36.5z" />
    <glyph glyph-name="p" unicode="p" 
d="M289 467q98 0 169 -69q70 -72 70 -169t-70 -169q-69 -69 -169 -69q-63 0 -113 45l-5 4v-306h-121v724h121v-36l5 5q41 40 113 40zM289 108q48 0 83 36t35 85t-35 85t-83 36t-83 -36t-35 -85t35 -85t83 -36z" />
    <glyph glyph-name="q" unicode="q" 
d="M272 467q72 0 113 -40l5 -5v36h121v-724h-121v306l-5 -4q-49 -45 -113 -45q-100 0 -169 69q-70 72 -70 169t70 169q71 69 169 69zM390 229q0 49 -35 85t-83 36t-83 -36t-35 -85t35 -85t83 -36t83 36t35 85z" />
    <glyph glyph-name="r" unicode="r" horiz-adv-x="356" 
d="M191 0h-126v458h126v-37q48 48 126 48h30l-30 -125h-19q-44 0 -75.5 -30t-31.5 -71v-243z" />
    <glyph glyph-name="s" unicode="s" horiz-adv-x="436" 
d="M230 -4q-17 0 -47 5q-79 16 -134 65l-15 12l75 83l14 -13q52 -44 103 -44q25 0 41 8q22 9 22 30q0 26 -66 37q-77 16 -104 31q-32 18 -50 48t-18 67q0 39 24 74q19 27 60 48q33 16 80 16q12 0 32 -2q69 -11 124 -54l15 -12l-71 -82l-14 11q-41 33 -83 33q-21 0 -36 -7
q-20 -11 -20 -25q0 -11 12.5 -19.5t49.5 -16.5q75 -18 104 -30q32 -18 50 -42q22 -31 22 -75t-23 -76q-24 -34 -64 -53q-36 -17 -83 -17z" />
    <glyph glyph-name="t" unicode="t" horiz-adv-x="387" 
d="M367 0h-120q-68 0 -115 47t-47 115v190h-64v103h64v180h119v-180h133v-103h-133v-188q0 -19 13.5 -33.5t30.5 -14.5h87z" />
    <glyph glyph-name="u" unicode="u" horiz-adv-x="549" 
d="M274 -11q-91 0 -151 60q-63 60 -63 149v260h126v-260q0 -35 25.5 -60t62.5 -25t63 25t26 60v260h126v-260q0 -87 -64 -149q-62 -60 -151 -60z" />
    <glyph glyph-name="v" unicode="v" horiz-adv-x="530" 
d="M320 0h-110l-186 458h129l112 -274l111 274h130z" />
    <glyph glyph-name="w" unicode="w" horiz-adv-x="696" 
d="M583 0h-110l-125 220l-124 -220h-111l-86 458h119l52 -274l96 169h108l97 -169l52 274h118z" />
    <glyph glyph-name="x" unicode="x" horiz-adv-x="610" 
d="M587 0h-159l-123 148l-122 -148h-160l205 241l-185 217h160l102 -123l102 123h159l-183 -217z" />
    <glyph glyph-name="y" unicode="y" horiz-adv-x="548" 
d="M230 -266h-131l109 265l-183 459h134l114 -285l116 285h133z" />
    <glyph glyph-name="z" unicode="z" horiz-adv-x="418" 
d="M393 0h-362v105l214 248h-215v105h362v-105l-209 -245h210v-108z" />
    <glyph glyph-name="braceleft" unicode="{" horiz-adv-x="390" 
d="M355 -61h-25q-64 0 -115 43q-44 36 -74 95q-45 90 -45 141q0 41 -13 67q-4 4 -10 6q-2 0 -4 2l-14 7v111l14 7q1 1 4 1q5 2 8 5l2 1v1q13 24 13 67q0 34 16.5 77t28.5 63q29 59 74 96q54 43 115 43h25v-132h-25q-37 0 -73 -67q-30 -60 -30 -80q0 -58 -35 -127
q-1 -2 -3 -5.5t-3 -5.5q1 -1 6 -11q35 -67 35 -126q0 -21 30 -81q37 -67 73 -67h25v-131z" />
    <glyph glyph-name="bar" unicode="|" horiz-adv-x="267" 
d="M192 -165h-117v1040h117v-1040z" />
    <glyph glyph-name="braceright" unicode="}" horiz-adv-x="390" 
d="M35 772h25q63 0 115 -44q44 -36 74 -95q45 -83 45 -140q0 -43 13 -67v-1q2 -2 10 -6q3 0 4 -1l14 -7v-111l-14 -7q-2 -2 -4 -2q-10 -4 -10 -6q-13 -26 -13 -67q0 -50 -45 -140q-28 -57 -74 -97q-53 -42 -115 -42h-25v131h25q36 0 72 67q30 60 30 81q0 57 36 126
q1 1 2.5 5t2.5 6q-4 8 -5 11q-36 70 -36 127q0 20 -30 80q-35 67 -72 67h-25v132z" />
    <glyph glyph-name="exclamdown" unicode="&#xa1;" horiz-adv-x="309" 
d="M221 -266h-133v547h133v-547zM155 318q-32 0 -56 24t-24 56q0 33 24 57q25 23 56 23q33 0 56 -23.5t23 -56.5t-23 -56q-24 -24 -56 -24z" />
    <glyph glyph-name="sterling" unicode="&#xa3;" horiz-adv-x="467" 
d="M435 1h-410l32 127h20q49 0 70 18t21 61v129h-63v122h63v71q0 54 16 92q18 48 59 74q25 17 55 25.5t49 9.5t53 1h42l-33 -130h-20q-51 0 -70 -15q-20 -16 -20 -57v-71h131v-122h-131v-129q0 -41 -10 -79h146v-127z" />
    <glyph glyph-name="yen" unicode="&#xa5;" horiz-adv-x="681" 
d="M410 252h104v-94h-106v-157h-135v157h-104v94h102v39h-102v102h75l-228 320h164l161 -225l161 225h163l-228 -320h77v-102h-104v-39z" />
    <glyph glyph-name="dieresis" unicode="&#xa8;" horiz-adv-x="378" 
d="M270 528q-23 0 -42 17q-17 19 -17 42t17 40t42 17q24 0 41 -17t17 -40q0 -25 -17 -42t-41 -17zM107 528q-23 0 -40 17t-17 42q0 23 17 40t40 17q24 0 41.5 -17t17.5 -40q0 -26 -17 -41l-1 -1q-15 -17 -41 -17z" />
    <glyph glyph-name="macron" unicode="&#xaf;" horiz-adv-x="422" 
d="M372 554h-322v79h322v-79z" />
    <glyph glyph-name="degree" unicode="&#xb0;" horiz-adv-x="333" 
d="M166 727q55 0 94 -37.5t39 -91.5q0 -53 -39 -90.5t-94 -37.5t-93.5 37.5t-38.5 90.5q0 54 38.5 91.5t93.5 37.5zM166 549q21 0 36 14.5t15 34.5t-15 35t-36 15t-36 -15t-15 -35t15 -34.5t36 -14.5z" />
    <glyph glyph-name="acute" unicode="&#xb4;" horiz-adv-x="243" 
d="M101 662h108l-108 -140h-67z" />
    <glyph glyph-name="cedilla" unicode="&#xb8;" horiz-adv-x="276" 
d="M156 92h104l-86 -182h-158z" />
    <glyph glyph-name="questiondown" unicode="&#xbf;" horiz-adv-x="413" 
d="M208 477q35 0 56 -24q24 -24 24 -56q0 -33 -23.5 -56t-56.5 -23q-32 0 -55.5 23t-23.5 56t23 56q22 24 56 24zM139 280h134v-25q0 -89 -42 -186q-22 -54 -53 -100l-3 -4q-25 -38 -18 -59v-1q7 -21 25 -32q16 -8 26 -8q6 0 14 2q21 7 32 25q7 14 7 28v25h133v-25
q0 -51 -25 -93q-38 -66 -112 -86q-24 -6 -49 -6q-50 0 -91 22l-1 1q-68 39 -86 113q-18 64 14 121q1 2 9 14q86 133 86 249v25z" />
    <glyph glyph-name="Agrave" unicode="&#xc0;" horiz-adv-x="710" 
d="M690 0h-144l-73 192h-236l-74 -192h-143l274 712h121zM289 324h132l-66 173zM204 916h107l68 -140h-67z" />
    <glyph glyph-name="Aacute" unicode="&#xc1;" horiz-adv-x="710" 
d="M690 0h-144l-73 192h-236l-74 -192h-143l274 712h121zM289 324h132l-66 173zM390 916h108l-108 -140h-67z" />
    <glyph glyph-name="Acircumflex" unicode="&#xc2;" horiz-adv-x="710" 
d="M690 0h-144l-73 192h-236l-74 -192h-143l274 712h121zM289 324h132l-66 173zM497 780h-86l-56 70l-55 -70h-87l102 135h80z" />
    <glyph glyph-name="Atilde" unicode="&#xc3;" horiz-adv-x="710" 
d="M546 0h144l-275 712h-121l-274 -712h143l74 192h236zM421 324h-132l66 173zM436 886l55 -36l-5 -8q-36 -55 -91 -55q-28 0 -65 26q-14 8 -21 8q-12 0 -29 -23l-5 -7l-59 38q19 30 38 43q23 19 56 19q21 0 40 -11q24 -15 41 -24q15 -7 45 30z" />
    <glyph glyph-name="Adieresis" unicode="&#xc4;" horiz-adv-x="710" 
d="M690 0h-144l-73 192h-236l-74 -192h-143l274 712h121zM289 324h132l-66 173zM436 782q-23 0 -42 17q-17 19 -17 42t17 40t42 17q24 0 41 -17t17 -40q0 -25 -17 -42t-41 -17zM273 782q-23 0 -40 17t-17 42q0 23 17 40t40 17q24 0 41.5 -17t17.5 -40q0 -26 -17 -41l-1 -1
q-15 -17 -41 -17z" />
    <glyph glyph-name="Aring" unicode="&#xc5;" horiz-adv-x="710" 
d="M546 0h144l-275 712h-121l-274 -712h143l74 192h236zM421 324h-132l66 173zM354 951q37 0 63 -25t26 -62t-26 -62.5t-63 -25.5t-63 25.5t-26 62.5t26 62t63 25zM354 836q11 0 19.5 8t8.5 19q0 12 -8.5 20t-19.5 8t-19.5 -8t-8.5 -20q0 -11 8.5 -19t19.5 -8z" />
    <glyph glyph-name="AE" unicode="&#xc6;" horiz-adv-x="861" 
d="M833 0h-461v192h-136l-73 -192h-143l274 712h547v-130h-335v-135h292v-133h-292v-182h327v-132zM288 324h84v222z" />
    <glyph glyph-name="Ccedilla" unicode="&#xc7;" horiz-adv-x="764" 
d="M388 -137h-157l99 128q-117 25 -198 113q-99 108 -99 255q0 155 110.5 265t265.5 110q91 0 169 -39q78 -40 132 -112l16 -21l-108 -79l-15 21q-73 97 -194 97q-100 0 -171.5 -71t-71.5 -171q0 -101 71 -172t172 -71q120 0 194 96l15 20l107 -79l-16 -21
q-50 -66 -123 -106q-64 -34 -140 -42z" />
    <glyph glyph-name="Egrave" unicode="&#xc8;" horiz-adv-x="591" 
d="M550 0h-460v712h469v-130h-335v-105h292v-133h-292v-212h326v-132zM178 916h107l68 -140h-67z" />
    <glyph glyph-name="Eacute" unicode="&#xc9;" horiz-adv-x="591" 
d="M550 0h-460v712h469v-130h-335v-105h292v-133h-292v-212h326v-132zM367 916h108l-108 -140h-67z" />
    <glyph glyph-name="Ecircumflex" unicode="&#xca;" horiz-adv-x="591" 
d="M550 0h-460v712h469v-130h-335v-105h292v-133h-292v-212h326v-132zM465 780h-86l-56 70l-55 -70h-87l102 135h80z" />
    <glyph glyph-name="Edieresis" unicode="&#xcb;" horiz-adv-x="591" 
d="M550 0h-460v712h469v-130h-335v-105h292v-133h-292v-212h326v-132zM409 782q-23 0 -42 17q-17 19 -17 42t17 40t42 17q24 0 41 -17t17 -40q0 -25 -17 -42t-41 -17zM246 782q-23 0 -40 17t-17 42q0 23 17 40t40 17q24 0 41.5 -17t17.5 -40q0 -26 -17 -41l-1 -1
q-15 -17 -41 -17z" />
    <glyph glyph-name="Igrave" unicode="&#xcc;" horiz-adv-x="290" 
d="M225 0h-134v712h134v-712zM10 916h107l68 -140h-67z" />
    <glyph glyph-name="Iacute" unicode="&#xcd;" horiz-adv-x="292" 
d="M215 0h-134v712h134v-712zM182 916h108l-108 -140h-67z" />
    <glyph glyph-name="Icircumflex" unicode="&#xce;" horiz-adv-x="324" 
d="M231 0h-134v712h134v-712zM304 780h-86l-56 70l-55 -70h-87l102 135h80z" />
    <glyph glyph-name="Idieresis" unicode="&#xcf;" horiz-adv-x="318" 
d="M226 0h-134v712h134v-712zM240 782q-23 0 -42 17q-17 19 -17 42t17 40t42 17q24 0 41 -17t17 -40q0 -25 -17 -42t-41 -17zM77 782q-23 0 -40 17t-17 42q0 23 17 40t40 17q24 0 41.5 -17t17.5 -40q0 -26 -17 -41l-1 -1q-15 -17 -41 -17z" />
    <glyph glyph-name="Eth" unicode="&#xd0;" horiz-adv-x="744" 
d="M345 -2h-239v295h-106v121h106v296h239q151 0 258 -104.5t107 -251.5q0 -148 -107 -252t-258 -104zM239 129h106q96 0 164 66t68 159t-68 159t-164 66h-106v-165h124v-121h-124v-164z" />
    <glyph glyph-name="Ntilde" unicode="&#xd1;" horiz-adv-x="759" 
d="M540 0h129v712h-134v-466l-315 466h-130v-712h134v467zM461 886l55 -36l-5 -8q-36 -55 -91 -55q-28 0 -65 26q-14 8 -21 8q-12 0 -29 -23l-5 -7l-59 38q19 30 38 43q23 19 56 19q21 0 40 -11q24 -15 41 -24q15 -7 45 30z" />
    <glyph glyph-name="Ograve" unicode="&#xd2;" horiz-adv-x="813" 
d="M406 -10q-154 0 -263 108.5t-109 262.5t109 263.5t263 109.5t263.5 -109t109.5 -264q0 -154 -109 -262.5t-264 -108.5zM406 601q-98 0 -168 -70t-70 -170q0 -99 70 -169t168 -70t168 70t70 169q0 100 -70 170t-168 70zM260 916h107l68 -140h-67z" />
    <glyph glyph-name="Oacute" unicode="&#xd3;" horiz-adv-x="813" 
d="M406 -10q-154 0 -263 108.5t-109 262.5t109 263.5t263 109.5t263.5 -109t109.5 -264q0 -154 -109 -262.5t-264 -108.5zM406 601q-98 0 -168 -70t-70 -170q0 -99 70 -169t168 -70t168 70t70 169q0 100 -70 170t-168 70zM447 916h108l-108 -140h-67z" />
    <glyph glyph-name="Ocircumflex" unicode="&#xd4;" horiz-adv-x="813" 
d="M406 -10q-154 0 -263 108.5t-109 262.5t109 263.5t263 109.5t263.5 -109t109.5 -264q0 -154 -109 -262.5t-264 -108.5zM406 601q-98 0 -168 -70t-70 -170q0 -99 70 -169t168 -70t168 70t70 169q0 100 -70 170t-168 70zM548 780h-86l-56 70l-55 -70h-87l102 135h80z" />
    <glyph glyph-name="Otilde" unicode="&#xd5;" horiz-adv-x="813" 
d="M406 -10q155 0 264 108.5t109 262.5q0 155 -109.5 264t-263.5 109t-263 -109.5t-109 -263.5t109 -262.5t263 -108.5zM406 601q98 0 168 -70t70 -170q0 -99 -70 -169t-168 -70t-168 70t-70 169q0 100 70 170t168 70zM490 886l55 -36l-5 -8q-36 -55 -91 -55q-28 0 -65 26
q-14 8 -21 8q-12 0 -29 -23l-5 -7l-59 38q19 30 38 43q23 19 56 19q21 0 40 -11q24 -15 41 -24q15 -7 45 30z" />
    <glyph glyph-name="Odieresis" unicode="&#xd6;" horiz-adv-x="813" 
d="M406 -10q-154 0 -263 108.5t-109 262.5t109 263.5t263 109.5t263.5 -109t109.5 -264q0 -154 -109 -262.5t-264 -108.5zM406 601q-98 0 -168 -70t-70 -170q0 -99 70 -169t168 -70t168 70t70 169q0 100 -70 170t-168 70zM488 782q-23 0 -42 17q-17 19 -17 42t17 40t42 17
q24 0 41 -17t17 -40q0 -25 -17 -42t-41 -17zM325 782q-23 0 -40 17t-17 42q0 23 17 40t40 17q24 0 41.5 -17t17.5 -40q0 -26 -17 -41l-1 -1q-15 -17 -41 -17z" />
    <glyph glyph-name="multiply" unicode="&#xd7;" horiz-adv-x="340" 
d="M110 96l-76 76l60 59l-60 60l76 75l60 -59l59 59l76 -75l-59 -60l60 -59l-77 -76l-59 59z" />
    <glyph glyph-name="Oslash" unicode="&#xd8;" horiz-adv-x="822" 
d="M123 -17l-89 89l75 74q-26 38 -44 87q-21 59 -21 122q0 75 30 144q26 65 79 118q51 51 118 80q70 29 145 29q64 0 122 -21q44 -14 87 -43l56 56l88 -88l-54 -55q33 -44 50 -91q23 -63 23 -129q0 -75 -29 -145q-28 -65 -80 -117q-51 -51 -119 -80q-69 -29 -144 -29
q-66 0 -129 23q-49 18 -92 50zM619 479l-328 -327q58 -36 125 -36q98 0 168 70t70 169q0 66 -35 124zM416 594q-98 0 -168 -70.5t-70 -168.5q0 -58 28 -111l322 321q-52 29 -112 29z" />
    <glyph glyph-name="Ugrave" unicode="&#xd9;" horiz-adv-x="690" 
d="M347 -10q-115 0 -196 81t-81 196v445h133v-445q0 -60 42.5 -103t101.5 -43q60 0 102 43t42 103v445h134v-445q0 -115 -81 -196q-83 -81 -197 -81zM205 916h107l68 -140h-67z" />
    <glyph glyph-name="Uacute" unicode="&#xda;" horiz-adv-x="690" 
d="M347 -10q-115 0 -196 81t-81 196v445h133v-445q0 -60 42.5 -103t101.5 -43q60 0 102 43t42 103v445h134v-445q0 -115 -81 -196q-83 -81 -197 -81zM391 916h108l-108 -140h-67z" />
    <glyph glyph-name="Ucircumflex" unicode="&#xdb;" horiz-adv-x="690" 
d="M347 -10q-115 0 -196 81t-81 196v445h133v-445q0 -60 42.5 -103t101.5 -43q60 0 102 43t42 103v445h134v-445q0 -115 -81 -196q-83 -81 -197 -81zM493 780h-86l-56 70l-55 -70h-87l102 135h80z" />
    <glyph glyph-name="Udieresis" unicode="&#xdc;" horiz-adv-x="690" 
d="M347 -10q-115 0 -196 81t-81 196v445h133v-445q0 -60 42.5 -103t101.5 -43q60 0 102 43t42 103v445h134v-445q0 -115 -81 -196q-83 -81 -197 -81zM433 782q-23 0 -42 17q-17 19 -17 42t17 40t42 17q24 0 41 -17t17 -40q0 -25 -17 -42t-41 -17zM270 782q-23 0 -40 17
t-17 42q0 23 17 40t40 17q24 0 41.5 -17t17.5 -40q0 -26 -17 -41l-1 -1q-15 -17 -41 -17z" />
    <glyph glyph-name="Yacute" unicode="&#xdd;" horiz-adv-x="681" 
d="M408 0h-135v352l-257 360h164l161 -225l161 225h163l-257 -360v-352zM388 916h108l-108 -140h-67z" />
    <glyph glyph-name="Thorn" unicode="&#xde;" horiz-adv-x="547" 
d="M208 1h-133v712h133v-174h122q75 0 130 -53q53 -55 53 -130t-54 -129q-53 -53 -129 -53h-122v-173zM208 306h122q20 0 34.5 15t14.5 35q0 21 -14.5 36.5t-34.5 15.5h-122v-102z" />
    <glyph glyph-name="germandbls" unicode="&#xdf;" horiz-adv-x="535" 
d="M258 1h-25v131h25q44 0 75 30.5t31 73.5q0 42 -31 72t-75 30h-25v131h25q26 0 44.5 18t18.5 43t-18.5 42t-44.5 17q-25 0 -43 -17t-18 -42v-529h-132v529q0 80 57 135q58 56 136 56q80 0 137 -56t57 -135q0 -65 -39 -116q2 -2 6.5 -6t6.5 -6q70 -68 70 -166
q0 -48 -18 -90q-18 -43 -52 -77q-71 -68 -168 -68z" />
    <glyph glyph-name="agrave" unicode="&#xe0;" 
d="M272 -9q-98 0 -169 69q-70 72 -70 169t70 169q69 69 169 69q64 0 113 -45l5 -4v40h121v-458h-121v36l-5 -5q-41 -40 -113 -40zM272 350q-48 0 -83 -36t-35 -85t35 -85t83 -36t83 36t35 85t-35 85t-83 36zM116 667h107l68 -140h-67z" />
    <glyph glyph-name="aacute" unicode="&#xe1;" 
d="M272 -9q-98 0 -169 69q-70 72 -70 169t70 169q69 69 169 69q64 0 113 -45l5 -4v40h121v-458h-121v36l-5 -5q-41 -40 -113 -40zM272 350q-48 0 -83 -36t-35 -85t35 -85t83 -36t83 36t35 85t-35 85t-83 36zM309 662h108l-108 -140h-67z" />
    <glyph glyph-name="acircumflex" unicode="&#xe2;" 
d="M272 -9q-98 0 -169 69q-70 72 -70 169t70 169q69 69 169 69q64 0 113 -45l5 -4v40h121v-458h-121v36l-5 -5q-41 -40 -113 -40zM272 350q-48 0 -83 -36t-35 -85t35 -85t83 -36t83 36t35 85t-35 85t-83 36zM417 526h-86l-56 70l-55 -70h-87l102 135h80z" />
    <glyph glyph-name="atilde" unicode="&#xe3;" 
d="M272 -9q72 0 113 40l5 5v-36h121v458h-121v-40l-5 4q-49 45 -113 45q-100 0 -169 -69q-70 -72 -70 -169t70 -169q71 -69 169 -69zM272 350q48 0 83 -36t35 -85t-35 -85t-83 -36t-83 36t-35 85t35 85t83 36zM358 632l55 -36l-5 -8q-36 -55 -91 -55q-28 0 -65 26
q-14 8 -21 8q-12 0 -29 -23l-5 -7l-59 38q19 30 38 43q23 19 56 19q21 0 40 -11q24 -15 41 -24q15 -8 45 30z" />
    <glyph glyph-name="adieresis" unicode="&#xe4;" 
d="M272 -9q-98 0 -169 69q-70 72 -70 169t70 169q69 69 169 69q64 0 113 -45l5 -4v40h121v-458h-121v36l-5 -5q-41 -40 -113 -40zM272 350q-48 0 -83 -36t-35 -85t35 -85t83 -36t83 36t35 85t-35 85t-83 36zM359 528q-23 0 -42 17q-17 19 -17 42t17 40t42 17q24 0 41 -17
t17 -40q0 -25 -17 -42t-41 -17zM196 528q-23 0 -40 17t-17 42q0 23 17 40t40 17q24 0 41.5 -17t17.5 -40q0 -26 -17 -41l-1 -1q-15 -17 -41 -17z" />
    <glyph glyph-name="aring" unicode="&#xe5;" 
d="M272 -9q72 0 113 40l5 5v-36h121v458h-121v-40l-5 4q-49 45 -113 45q-100 0 -169 -69q-70 -72 -70 -169t70 -169q71 -69 169 -69zM272 350q48 0 83 -36t35 -85t-35 -85t-83 -36t-83 36t-35 85t35 85t83 36zM274 697q37 0 63 -25t26 -62t-26 -62.5t-63 -25.5t-63 25.5
t-26 62.5t26 62t63 25zM274 582q11 0 19.5 8t8.5 19q0 12 -8.5 20t-19.5 8t-19.5 -8t-8.5 -20q0 -11 8.5 -19t19.5 -8z" />
    <glyph glyph-name="ae" unicode="&#xe6;" horiz-adv-x="840" 
d="M605 -12h-1q-44 0 -81 17q-16 8 -21 21l-11 -2v-24h-118v41l-9 -10q-41 -40 -113 -40q-98 0 -170 69q-70 72 -70 170t70 170q71 69 170 69q63 0 113 -45l9 -8v44h118v-47l11 14q17 19 22 21q37 17 81 17q45 0 88 -19q43 -21 71 -53q41 -44 56 -104q7 -33 7 -62
q0 -16 -1 -23h-334l1 -7q10 -46 41.5 -76t70.5 -30h1q39 3 80 35l11 9l82 -71l-15 -13q-19 -19 -40 -30q-54 -32 -119 -33zM251 356q-50 0 -86.5 -37.5t-36.5 -88.5t36.5 -88.5t86.5 -37.5q49 0 85.5 37.5t36.5 88.5t-36.5 88.5t-85.5 37.5zM605 362q-29 0 -56 -19t-43 -50
l-4 -8h207l-4 8q-17 32 -44 50.5t-56 18.5z" />
    <glyph glyph-name="ccedilla" unicode="&#xe7;" horiz-adv-x="521" 
d="M383 179l102 -73l-15 -19q-2 -1 -4.5 -4t-3.5 -5q-10 -12 -17 -19q-49 -49 -117 -63l-59 -126h-158l99 129q-60 17 -103 60l-1 1q-69 69 -69 169q0 101 69 170t170 69q102 0 169 -69q1 -1 25 -28l12 -18l-98 -73l-14 19q-39 52 -94 52q-48 0 -82.5 -36t-34.5 -86
t34.5 -86t82.5 -36q56 0 94 54z" />
    <glyph glyph-name="egrave" unicode="&#xe8;" horiz-adv-x="509" 
d="M257 -11h-1q-44 0 -87 20q-37 16 -72 52q-53 58 -61 140q-2 18 -2 28q0 28 8 62q14 63 55 105q30 33 72 53q39 19 88 19t88 -19q44 -21 72 -53q41 -44 56 -105q7 -27 7 -62v-23h-336l1 -7q10 -47 41.5 -77t70.5 -30h1q41 3 80 36l11 9l83 -72l-15 -13q-23 -21 -40 -30h-1
q-54 -32 -119 -33zM257 364q-29 0 -56 -19t-43 -50l-4 -8h207l-4 8q-37 69 -100 69zM104 662h107l68 -140h-67z" />
    <glyph glyph-name="eacute" unicode="&#xe9;" horiz-adv-x="509" 
d="M257 -11h-1q-44 0 -87 20q-37 16 -72 52q-53 58 -61 140q-2 18 -2 28q0 28 8 62q14 63 55 105q30 33 72 53q39 19 88 19t88 -19q44 -21 72 -53q41 -44 56 -105q7 -27 7 -62v-23h-336l1 -7q10 -47 41.5 -77t70.5 -30h1q41 3 80 36l11 9l83 -72l-15 -13q-23 -21 -40 -30h-1
q-54 -32 -119 -33zM257 364q-29 0 -56 -19t-43 -50l-4 -8h207l-4 8q-37 69 -100 69zM303 662h108l-108 -140h-67z" />
    <glyph glyph-name="ecircumflex" unicode="&#xea;" horiz-adv-x="509" 
d="M257 -11h-1q-44 0 -87 20q-37 16 -72 52q-53 58 -61 140q-2 18 -2 28q0 28 8 62q14 63 55 105q30 33 72 53q39 19 88 19t88 -19q44 -21 72 -53q41 -44 56 -105q7 -27 7 -62v-23h-336l1 -7q10 -47 41.5 -77t70.5 -30h1q41 3 80 36l11 9l83 -72l-15 -13q-23 -21 -40 -30h-1
q-54 -32 -119 -33zM257 364q-29 0 -56 -19t-43 -50l-4 -8h207l-4 8q-37 69 -100 69zM398 526h-86l-56 70l-55 -70h-87l102 135h80z" />
    <glyph glyph-name="edieresis" unicode="&#xeb;" horiz-adv-x="509" 
d="M257 -11h-1q-44 0 -87 20q-37 16 -72 52q-53 58 -61 140q-2 18 -2 28q0 28 8 62q14 63 55 105q30 33 72 53q39 19 88 19t88 -19q44 -21 72 -53q41 -44 56 -105q7 -27 7 -62v-23h-336l1 -7q10 -47 41.5 -77t70.5 -30h1q41 3 80 36l11 9l83 -72l-15 -13q-23 -21 -40 -30h-1
q-54 -32 -119 -33zM257 364q-29 0 -56 -19t-43 -50l-4 -8h207l-4 8q-37 69 -100 69zM337 528q-23 0 -42 17q-17 19 -17 42t17 40t42 17q24 0 41 -17t17 -40q0 -25 -17 -42t-41 -17zM174 528q-23 0 -40 17t-17 42q0 23 17 40t40 17q24 0 41.5 -17t17.5 -40q0 -26 -17 -41
l-1 -1q-15 -17 -41 -17z" />
    <glyph glyph-name="igrave" unicode="&#xec;" horiz-adv-x="340" 
d="M245 0h-130v458h130v-458zM33 662h107l68 -140h-67z" />
    <glyph glyph-name="iacute" unicode="&#xed;" horiz-adv-x="319" 
d="M223 0h-130v458h130v-458zM196 662h108l-108 -140h-67z" />
    <glyph glyph-name="icircumflex" unicode="&#xee;" horiz-adv-x="264" 
d="M198 0h-130v458h130v-458zM274 526h-86l-56 70l-55 -70h-87l102 135h80z" />
    <glyph glyph-name="idieresis" unicode="&#xef;" horiz-adv-x="258" 
d="M195 0h-130v458h130v-458zM210 528q-23 0 -42 17q-17 19 -17 42t17 40t42 17q24 0 41 -17t17 -40q0 -25 -17 -42t-41 -17zM47 528q-23 0 -40 17t-17 42q0 23 17 40t40 17q24 0 41.5 -17t17.5 -40q0 -26 -17 -41l-1 -1q-15 -17 -41 -17z" />
    <glyph glyph-name="eth" unicode="&#xf0;" horiz-adv-x="564" 
d="M272 -12q-97 0 -169 70q-69 71 -69 167q0 98 69 169q71 69 169 69q19 0 28 -1l22 -2l-15 17q-1 2 -56 62l-6 6l-60 -57l-39 39l60 56l-7 7q-14 12 -26 26h-1l-22 22l78 80l22 -22q2 -1 3.5 -3t3.5 -4l3 -3q2 -2 6 -6.5t7.5 -7.5t6.5 -6l7 -5l64 61l39 -38l-66 -63l6 -6
q67 -69 103 -127q73 -116 76 -247v-1v-1q1 -4 1 -14q0 -97 -70 -167t-168 -70zM272 351q-52 0 -89 -37t-37 -89t37 -88.5t89 -36.5t89 36.5t37 88.5t-37 89t-89 37z" />
    <glyph glyph-name="ntilde" unicode="&#xf1;" horiz-adv-x="543" 
d="M371 0h126v245q0 91 -65 158q-66 64 -158 64q-55 0 -97 -42v33h-125v-458h125v245q0 39 29 67.5t68 28.5q41 0 69 -28t28 -68v-245zM358 632l55 -36l-5 -8q-36 -55 -91 -55q-28 0 -65 26q-14 8 -21 8q-12 0 -29 -23l-5 -7l-59 38q19 30 38 43q23 19 56 19q21 0 40 -11
q24 -15 41 -24q15 -8 45 30z" />
    <glyph glyph-name="ograve" unicode="&#xf2;" horiz-adv-x="548" 
d="M273 -11q-97 0 -170 70q-70 73 -70 170q0 98 70 170q72 69 170 69q102 0 169 -69q71 -71 71 -170t-71 -170q-70 -70 -169 -70zM273 354q-50 0 -86 -36.5t-36 -88.5t36 -88.5t86 -36.5q51 0 87 36.5t36 88.5t-36 88.5t-87 36.5zM121 662h107l68 -140h-67z" />
    <glyph glyph-name="oacute" unicode="&#xf3;" horiz-adv-x="548" 
d="M273 -11q-97 0 -170 70q-70 73 -70 170q0 98 70 170q72 69 170 69q102 0 169 -69q71 -71 71 -170t-71 -170q-70 -70 -169 -70zM273 354q-50 0 -86 -36.5t-36 -88.5t36 -88.5t86 -36.5q51 0 87 36.5t36 88.5t-36 88.5t-87 36.5zM314 662h108l-108 -140h-67z" />
    <glyph glyph-name="ocircumflex" unicode="&#xf4;" horiz-adv-x="548" 
d="M273 -11q-97 0 -170 70q-70 73 -70 170q0 98 70 170q72 69 170 69q102 0 169 -69q71 -71 71 -170t-71 -170q-70 -70 -169 -70zM273 354q-50 0 -86 -36.5t-36 -88.5t36 -88.5t86 -36.5q51 0 87 36.5t36 88.5t-36 88.5t-87 36.5zM417 526h-86l-56 70l-55 -70h-87l102 135
h80z" />
    <glyph glyph-name="otilde" unicode="&#xf5;" horiz-adv-x="548" 
d="M273 -11q99 0 169 70q71 71 71 170t-71 170q-67 69 -169 69q-98 0 -170 -69q-70 -72 -70 -170q0 -97 70 -170q73 -70 170 -70zM273 354q51 0 87 -36.5t36 -88.5t-36 -88.5t-87 -36.5q-50 0 -86 36.5t-36 88.5t36 88.5t86 36.5zM352 632l55 -36l-5 -8q-36 -55 -91 -55
q-28 0 -65 26q-14 8 -21 8q-12 0 -29 -23l-5 -7l-59 38q19 30 38 43q23 19 56 19q21 0 40 -11q24 -15 41 -24q15 -8 45 30z" />
    <glyph glyph-name="odieresis" unicode="&#xf6;" horiz-adv-x="548" 
d="M273 -11q-97 0 -170 70q-70 73 -70 170q0 98 70 170q72 69 170 69q102 0 169 -69q71 -71 71 -170t-71 -170q-70 -70 -169 -70zM273 354q-50 0 -86 -36.5t-36 -88.5t36 -88.5t86 -36.5q51 0 87 36.5t36 88.5t-36 88.5t-87 36.5zM356 528q-23 0 -42 17q-17 19 -17 42t17 40
t42 17q24 0 41 -17t17 -40q0 -25 -17 -42t-41 -17zM193 528q-23 0 -40 17t-17 42q0 23 17 40t40 17q24 0 41.5 -17t17.5 -40q0 -26 -17 -41l-1 -1q-15 -17 -41 -17z" />
    <glyph glyph-name="divide" unicode="&#xf7;" horiz-adv-x="341" 
d="M327 171h-313v116h313v-116zM168 -10q-33 0 -56 23t-23 55q0 34 23 55q23 23 56 23q32 0 55 -23t23 -55t-23 -55t-55 -23zM168 308q-33 0 -56 23t-23 55q0 34 23 55q23 23 56 23q32 0 55 -23t23 -55t-23 -55t-55 -23z" />
    <glyph glyph-name="oslash" unicode="&#xf8;" horiz-adv-x="555" 
d="M466 369q46 -61 46 -140q0 -99 -71 -170q-70 -70 -169 -70q-73 0 -139 44l-43 -43l-57 56l44 44q-45 64 -45 139q0 98 70 170q69 69 170 69q76 0 137 -42l45 45l57 -57zM149 229q0 -25 12 -54l165 166q-28 13 -54 13q-51 0 -87 -36.5t-36 -88.5zM272 104q51 0 87 36.5
t36 88.5q0 29 -13 55l-165 -166q25 -14 55 -14z" />
    <glyph glyph-name="ugrave" unicode="&#xf9;" horiz-adv-x="527" 
d="M260 -11q-91 0 -151 60q-63 60 -63 149v260h126v-260q0 -35 25.5 -60t62.5 -25t63 25t26 60v260h126v-260q0 -87 -64 -149q-62 -60 -151 -60zM106 662h107l68 -140h-67z" />
    <glyph glyph-name="uacute" unicode="&#xfa;" horiz-adv-x="527" 
d="M260 -11q-91 0 -151 60q-63 60 -63 149v260h126v-260q0 -35 25.5 -60t62.5 -25t63 25t26 60v260h126v-260q0 -87 -64 -149q-62 -60 -151 -60zM303 662h108l-108 -140h-67z" />
    <glyph glyph-name="ucircumflex" unicode="&#xfb;" horiz-adv-x="527" 
d="M260 -11q-91 0 -151 60q-63 60 -63 149v260h126v-260q0 -35 25.5 -60t62.5 -25t63 25t26 60v260h126v-260q0 -87 -64 -149q-62 -60 -151 -60zM402 526h-86l-56 70l-55 -70h-87l102 135h80z" />
    <glyph glyph-name="udieresis" unicode="&#xfc;" horiz-adv-x="527" 
d="M260 -11q-91 0 -151 60q-63 60 -63 149v260h126v-260q0 -35 25.5 -60t62.5 -25t63 25t26 60v260h126v-260q0 -87 -64 -149q-62 -60 -151 -60zM341 528q-23 0 -42 17q-17 19 -17 42t17 40t42 17q24 0 41 -17t17 -40q0 -25 -17 -42t-41 -17zM178 528q-23 0 -40 17t-17 42
q0 23 17 40t40 17q24 0 41.5 -17t17.5 -40q0 -26 -17 -41l-1 -1q-15 -17 -41 -17z" />
    <glyph glyph-name="yacute" unicode="&#xfd;" horiz-adv-x="546" 
d="M229 -266h-131l109 265l-183 459h134l114 -285l116 285h133zM321 662h108l-108 -140h-67z" />
    <glyph glyph-name="thorn" unicode="&#xfe;" horiz-adv-x="584" 
d="M295 -9q-72 0 -113 40l-5 5v-302h-121v979h121v-295l5 4q50 45 113 45q100 0 169 -69q70 -72 70 -169t-70 -169q-71 -69 -169 -69zM177 229q0 -49 35 -85t83 -36t83 36t35 85t-35 85t-83 36t-83 -36t-35 -85z" />
    <glyph glyph-name="ydieresis" unicode="&#xff;" horiz-adv-x="546" 
d="M229 -266h-131l109 265l-183 459h134l114 -285l116 285h133zM358 528q-23 0 -42 17q-17 19 -17 42t17 40t42 17q24 0 41 -17t17 -40q0 -25 -17 -42t-41 -17zM195 528q-23 0 -40 17t-17 42q0 23 17 40t40 17q24 0 41.5 -17t17.5 -40q0 -26 -17 -41l-1 -1q-15 -17 -41 -17z
" />
    <glyph glyph-name="Amacron" unicode="&#x100;" horiz-adv-x="710" 
d="M690 0h-144l-73 192h-236l-74 -192h-143l274 712h121zM289 324h132l-66 173zM517 808h-322v79h322v-79z" />
    <glyph glyph-name="amacron" unicode="&#x101;" 
d="M272 -9q-98 0 -169 69q-70 72 -70 169t70 169q69 69 169 69q64 0 113 -45l5 -4v40h121v-458h-121v36l-5 -5q-41 -40 -113 -40zM272 350q-48 0 -83 -36t-35 -85t35 -85t83 -36t83 36t35 85t-35 85t-83 36zM455 554h-322v79h322v-79z" />
    <glyph glyph-name="Abreve" unicode="&#x102;" horiz-adv-x="710" 
d="M690 0h-144l-73 192h-236l-74 -192h-143l274 712h121zM289 324h132l-66 173zM358 778q-38 0 -71 27q-34 26 -34 68v10h71v-10q0 -9 10 -18t24 -9q13 0 22.5 8t11.5 16l1 2v11h69v-10q0 -42 -34 -68q-33 -27 -70 -27z" />
    <glyph glyph-name="abreve" unicode="&#x103;" 
d="M272 -9q-98 0 -169 69q-70 72 -70 169t70 169q69 69 169 69q64 0 113 -45l5 -4v40h121v-458h-121v36l-5 -5q-41 -40 -113 -40zM272 350q-48 0 -83 -36t-35 -85t35 -85t83 -36t83 36t35 85t-35 85t-83 36zM285 524q-38 0 -71 27q-34 26 -34 68v10h71v-10q0 -9 10 -18
t24 -9q13 0 22.5 8t11.5 16l1 2v11h69v-10q0 -42 -34 -68q-33 -27 -70 -27z" />
    <glyph glyph-name="Aogonek" unicode="&#x104;" horiz-adv-x="692" 
d="M708 -27l81 -79l-16 -16q-42 -46 -77 -60q-42 -16 -88 -8q-28 5 -57 29q-26 24 -35 55q-13 48 6 91q6 13 15 27l-68 180h-236l-74 -192h-143l274 712h121l275 -712l-16 -16q-41 -41 -35 -53q3 -5 9 -5q20 0 48 29zM285 324h132l-66 173z" />
    <glyph glyph-name="aogonek" unicode="&#x105;" horiz-adv-x="550" 
d="M436 -190q-34 8 -56 29q-28 23 -34 54q-15 47 4 89q2 4 6 14q1 2 2 5t2 5.5t2 5.5t2 4l-4 3q-16 -17 -34.5 -21.5t-48.5 -4.5h-6q-98 0 -169 68q-70 72 -70 170q0 97 70 169q69 69 169 69q68 0 113 -45l5 -4v38h121v-458l-15 -15q-42 -44 -35 -57q3 -7 11 -7q23 0 50 30
l15 16l77 -75l-13 -14q-40 -45 -77 -60q-29 -11 -58 -11q-15 0 -29 3zM271 350q-49 0 -83.5 -35t-34.5 -84t34.5 -84t83.5 -35t83.5 35t34.5 84t-34.5 84t-83.5 35z" />
    <glyph glyph-name="Cacute" unicode="&#x106;" horiz-adv-x="758" 
d="M407 -11q-75 0 -145 29q-67 29 -118 80q-53 51 -80 119q-30 69 -30 145q0 154 109.5 263t263.5 109q89 0 167 -40q78 -38 131 -110l16 -20l-107 -79l-15 20q-71 96 -192 96q-99 0 -169.5 -70t-70.5 -169q0 -100 70.5 -170.5t169.5 -70.5q57 0 107 25t85 71l15 19l106 -78
l-16 -20q-53 -71 -131 -110q-76 -39 -166 -39zM445 916h108l-108 -140h-67z" />
    <glyph glyph-name="cacute" unicode="&#x107;" horiz-adv-x="513" 
d="M272 -10q-98 0 -169 69l-1 1q-69 71 -69 169q0 99 69 170q71 69 170 69q103 0 169 -69q15 -14 25 -28l12 -18l-98 -73l-14 19q-39 52 -94 52q-47 0 -82 -36.5t-35 -85.5t35 -85.5t82 -36.5q56 0 94 54l13 18l102 -73l-15 -19q-2 -3 -8 -9q-10 -12 -17 -19
q-69 -69 -169 -69zM315 662h108l-108 -140h-67z" />
    <glyph glyph-name="Ccircumflex" unicode="&#x108;" horiz-adv-x="758" 
d="M407 -11q-75 0 -145 29q-67 29 -118 80q-53 51 -80 119q-30 69 -30 145q0 154 109.5 263t263.5 109q89 0 167 -40q78 -38 131 -110l16 -20l-107 -79l-15 20q-71 96 -192 96q-99 0 -169.5 -70t-70.5 -169q0 -100 70.5 -170.5t169.5 -70.5q57 0 107 25t85 71l15 19l106 -78
l-16 -20q-53 -71 -131 -110q-76 -39 -166 -39zM544 780h-86l-56 70l-55 -70h-87l102 135h80z" />
    <glyph glyph-name="ccircumflex" unicode="&#x109;" horiz-adv-x="494" 
d="M267 -10q-98 0 -169 69l-1 1q-69 71 -69 169q0 99 69 170q71 69 170 69q103 0 169 -69q15 -14 25 -28l12 -18l-98 -73l-14 19q-39 52 -94 52q-47 0 -82 -36.5t-35 -85.5t35 -85.5t82 -36.5q56 0 94 54l13 18l102 -73l-15 -19q-2 -3 -8 -9q-10 -12 -17 -19
q-69 -69 -169 -69zM410 526h-86l-56 70l-55 -70h-87l102 135h80z" />
    <glyph glyph-name="Ccaron" unicode="&#x10c;" horiz-adv-x="758" 
d="M407 -11q-75 0 -145 29q-67 29 -118 80q-53 51 -80 119q-30 69 -30 145q0 154 109.5 263t263.5 109q89 0 167 -40q78 -38 131 -110l16 -20l-107 -79l-15 20q-71 96 -192 96q-99 0 -169.5 -70t-70.5 -169q0 -100 70.5 -170.5t169.5 -70.5q57 0 107 25t85 71l15 19l106 -78
l-16 -20q-53 -71 -131 -110q-76 -39 -166 -39zM261 915h86l56 -70l55 70h87l-102 -135h-80z" />
    <glyph glyph-name="ccaron" unicode="&#x10d;" horiz-adv-x="513" 
d="M272 -10q-98 0 -169 69l-1 1q-69 71 -69 169q0 99 69 170q71 69 170 69q103 0 169 -69q15 -14 25 -28l12 -18l-98 -73l-14 19q-39 52 -94 52q-47 0 -82 -36.5t-35 -85.5t35 -85.5t82 -36.5q56 0 94 54l13 18l102 -73l-15 -19q-2 -3 -8 -9q-10 -12 -17 -19
q-69 -69 -169 -69zM131 661h86l56 -70l55 70h87l-102 -135h-80z" />
    <glyph glyph-name="Dcaron" unicode="&#x10e;" horiz-adv-x="703" 
d="M304 0h-239v712h239q151 0 258 -104.5t107 -251.5t-107 -251.5t-258 -104.5zM198 131h106q96 0 164 66t68 159t-68 159t-164 66h-106v-450zM136 915h86l56 -70l55 70h87l-102 -135h-80z" />
    <glyph glyph-name="dcaron" unicode="&#x10f;" horiz-adv-x="802" 
d="M629 734h108l-108 -140h-67zM269 -8q-98 0 -169 69q-70 72 -70 169t70 169q69 69 169 69q63 0 113 -45l5 -4v316h121v-734h-121v36l-5 -5q-41 -40 -113 -40zM269 351q-48 0 -83 -36t-35 -85t35 -85t83 -36t83 36t35 85t-35 85t-83 36z" />
    <glyph glyph-name="Emacron" unicode="&#x112;" horiz-adv-x="591" 
d="M550 0h-460v712h469v-130h-335v-105h292v-133h-292v-212h326v-132zM491 808h-322v79h322v-79z" />
    <glyph glyph-name="emacron" unicode="&#x113;" horiz-adv-x="509" 
d="M255 -11h-1q-44 0 -87 20q-37 16 -72 52q-53 58 -61 140q-2 18 -2 28q0 28 8 62q14 63 55 105q30 33 72 53q39 19 88 19t88 -19q44 -21 72 -53q41 -44 56 -105q7 -27 7 -62v-23h-336l1 -7q10 -47 41.5 -77t70.5 -30h1q41 3 80 36l11 9l83 -72l-15 -13q-23 -21 -40 -30h-1
q-54 -32 -119 -33zM255 364q-29 0 -56 -19t-43 -50l-4 -8h207l-4 8q-37 69 -100 69zM413 554h-322v79h322v-79z" />
    <glyph glyph-name="Ebreve" unicode="&#x114;" horiz-adv-x="591" 
d="M550 0h-460v712h469v-130h-335v-105h292v-133h-292v-212h326v-132zM327 778q-38 0 -71 27q-34 26 -34 68v10h71v-10q0 -9 10 -18t24 -9q13 0 22.5 8t11.5 16l1 2v11h69v-10q0 -42 -34 -68q-33 -27 -70 -27z" />
    <glyph glyph-name="ebreve" unicode="&#x115;" horiz-adv-x="509" 
d="M255 -11h-1q-44 0 -87 20q-37 16 -72 52q-53 58 -61 140q-2 18 -2 28q0 28 8 62q14 63 55 105q30 33 72 53q39 19 88 19t88 -19q44 -21 72 -53q41 -44 56 -105q7 -27 7 -62v-23h-336l1 -7q10 -47 41.5 -77t70.5 -30h1q41 3 80 36l11 9l83 -72l-15 -13q-23 -21 -40 -30h-1
q-54 -32 -119 -33zM255 364q-29 0 -56 -19t-43 -50l-4 -8h207l-4 8q-37 69 -100 69zM255 524q-38 0 -71 27q-34 26 -34 68v10h71v-10q0 -9 10 -18t24 -9q13 0 22.5 8t11.5 16l1 2v11h69v-10q0 -42 -34 -68q-33 -27 -70 -27z" />
    <glyph glyph-name="Eogonek" unicode="&#x118;" horiz-adv-x="574" 
d="M571 -27l81 -79l-15 -16q-42 -46 -77 -60q-43 -16 -88 -8q-30 5 -57 29t-35 55q-14 48 5 91q2 5 8 15h-303v712h469v-130h-335v-105h292v-133h-292v-212h326v-132h-1l-16 -16q-40 -42 -34 -53q2 -5 8 -5q22 0 48 29z" />
    <glyph glyph-name="eogonek" unicode="&#x119;" horiz-adv-x="509" 
d="M478 199h-117h-210q8 -41 38 -70t67 -29q37 3 75 33l15 12l89 -77l-19 -18q-23 -20 -40 -30q-24 -14 -50 -22l-6 -6q-27 -28 -35 -41t-3 -23q4 -9 15 -9q24 0 57 33l13 14l76 -75l-11 -13q-44 -47 -81 -62q-30 -13 -62 -13q-15 0 -29 3q-31 7 -58 31q-27 26 -37 55
q-15 58 14 109l-13 6q-38 18 -71 52q-53 61 -61 140q-2 18 -2 29q0 30 8 62q14 59 55 105q29 32 71 53q42 19 90 19q47 0 88 -19q43 -20 72 -53q41 -45 56 -105q7 -28 7 -62q0 -20 -1 -29zM163 290h186q-36 64 -93 64q-28 0 -53 -18t-40 -46z" />
    <glyph glyph-name="Ecaron" unicode="&#x11a;" horiz-adv-x="591" 
d="M550 0h-460v712h469v-130h-335v-105h292v-133h-292v-212h326v-132zM189 915h86l56 -70l55 70h87l-102 -135h-80z" />
    <glyph glyph-name="ecaron" unicode="&#x11b;" horiz-adv-x="509" 
d="M257 -11h-1q-44 0 -87 20q-37 16 -72 52q-53 58 -61 140q-2 18 -2 28q0 28 8 62q14 63 55 105q30 33 72 53q39 19 88 19t88 -19q44 -21 72 -53q41 -44 56 -105q7 -27 7 -62v-23h-336l1 -7q10 -47 41.5 -77t70.5 -30h1q41 3 80 36l11 9l83 -72l-15 -13q-23 -21 -40 -30h-1
q-54 -32 -119 -33zM257 364q-29 0 -56 -19t-43 -50l-4 -8h207l-4 8q-37 69 -100 69zM118 661h86l56 -70l55 70h87l-102 -135h-80z" />
    <glyph glyph-name="Gcircumflex" unicode="&#x11c;" horiz-adv-x="774" 
d="M408 -11q-154 0 -263 109.5t-109 263.5t109 263t263 109q75 0 144 -29q70 -30 120 -81l19 -19l-99 -87l-17 16q-65 67 -167 67q-99 0 -169 -70t-70 -169q0 -100 70 -170.5t169 -70.5q102 0 175 75v148h-195v133h326v-328l-5 -6q-54 -73 -133.5 -113.5t-167.5 -40.5z
M545 780h-86l-56 70l-55 -70h-87l102 135h80z" />
    <glyph glyph-name="gcircumflex" unicode="&#x11d;" horiz-adv-x="548" 
d="M266 -266q-75 0 -132 36q-16 8 -44 33l-16 16l90 79l13 -11q44 -33 89 -36v0q51 1 87.5 39t36.5 90v58l-5 -5q-24 -23 -48 -31t-57 -10h-17q-95 3 -160 68q-70 72 -70 169t70 169q71 69 169 69q70 0 113 -43l5 -4v38h121v-479q0 -102 -73 -173q-69 -72 -172 -72zM272 351
q-48 0 -83 -36t-35 -86q0 -49 35 -85t83 -36t83 36t35 85q0 50 -35 86t-83 36zM416 526h-86l-56 70l-55 -70h-87l102 135h80z" />
    <glyph glyph-name="Gbreve" unicode="&#x11e;" horiz-adv-x="772" 
d="M406 -11q-154 0 -263 109.5t-109 263.5t109 263t263 109q75 0 144 -29q70 -30 120 -81l19 -19l-99 -87l-17 16q-65 67 -167 67q-99 0 -169 -70t-70 -169q0 -100 70 -170.5t169 -70.5q102 0 175 75v148h-195v133h326v-328l-5 -6q-54 -73 -133.5 -113.5t-167.5 -40.5z
M406 778q-38 0 -71 27q-34 26 -34 68v10h71v-10q0 -9 10 -18t24 -9q13 0 22.5 8t11.5 16l1 2v11h69v-10q0 -42 -34 -68q-33 -27 -70 -27z" />
    <glyph glyph-name="gbreve" unicode="&#x11f;" 
d="M266 -266q-75 0 -132 36q-16 8 -44 33l-16 16l90 79l13 -11q44 -33 89 -36v0q51 1 87.5 39t36.5 90v58l-5 -5q-24 -23 -48 -31t-57 -10h-17q-95 3 -160 68q-70 72 -70 169t70 169q71 69 169 69q70 0 113 -43l5 -4v38h121v-479q0 -102 -73 -173q-69 -72 -172 -72zM272 351
q-48 0 -83 -36t-35 -86q0 -49 35 -85t83 -36t83 36t35 85q0 50 -35 86t-83 36zM275 524q-38 0 -71 27q-34 26 -34 68v10h71v-10q0 -9 10 -18t24 -9q13 0 22.5 8t11.5 16l1 2v11h69v-10q0 -42 -34 -68q-33 -27 -70 -27z" />
    <glyph glyph-name="Gcedilla" unicode="&#x122;" horiz-adv-x="780" 
d="M397 -138h-157l98 126q-117 23 -201 113q-100 109 -100 256q0 155 110 265.5t266 110.5q75 0 145 -29q66 -27 121 -82l19 -19l-100 -89l-17 17q-68 68 -168 68q-101 0 -171.5 -70.5t-70.5 -171.5t71 -172t171 -71q103 0 176 75v150h-197v134h329v-331l-5 -6
q-48 -66 -122 -107q-65 -37 -139 -46z" />
    <glyph glyph-name="imacron" unicode="&#x12b;" horiz-adv-x="310" 
d="M217 0h-130v458h130v-458zM316 554h-322v79h322v-79z" />
    <glyph glyph-name="Ibreve" unicode="&#x12c;" horiz-adv-x="325" 
d="M229 0h-134v712h134v-712zM163 778q-38 0 -71 27q-34 26 -34 68v10h71v-10q0 -9 10 -18t24 -9q13 0 22.5 8t11.5 16l1 2v11h69v-10q0 -42 -34 -68q-33 -27 -70 -27z" />
    <glyph glyph-name="dotlessi" unicode="&#x131;" horiz-adv-x="260" 
d="M195 0h-130v458h130v-458z" />
    <glyph glyph-name="Lslash" unicode="&#x141;" horiz-adv-x="721" 
d="M705 0h-494v175l-106 -110l-89 85l195 204v359h130v-223l154 162l89 -86l-243 -255v-186h364v-125z" />
    <glyph glyph-name="lslash" unicode="&#x142;" horiz-adv-x="365" 
d="M244 1h-123v204l-22 -23l-90 84l112 118v351h123v-223l22 24l90 -85l-112 -117v-333z" />
    <glyph glyph-name="Nacute" unicode="&#x143;" horiz-adv-x="759" 
d="M669 0h-129l-316 467v-467h-134v712h130l315 -466v466h134v-712zM440 916h108l-108 -140h-67z" />
    <glyph glyph-name="nacute" unicode="&#x144;" horiz-adv-x="543" 
d="M497 0h-126v245q0 40 -28 68t-69 28q-39 0 -68 -28.5t-29 -67.5v-245h-125v458h125v-33q42 42 97 42q92 0 158 -64q65 -67 65 -158v-245zM316 662h108l-108 -140h-67z" />
    <glyph glyph-name="Ncaron" unicode="&#x147;" horiz-adv-x="759" 
d="M669 0h-129l-316 467v-467h-134v712h130l315 -466v466h134v-712zM241 915h86l56 -70l55 70h87l-102 -135h-80z" />
    <glyph glyph-name="ncaron" unicode="&#x148;" horiz-adv-x="543" 
d="M497 0h-126v245q0 40 -28 68t-69 28q-39 0 -68 -28.5t-29 -67.5v-245h-125v458h125v-33q42 42 97 42q92 0 158 -64q65 -67 65 -158v-245zM139 661h86l56 -70l55 70h87l-102 -135h-80z" />
    <glyph glyph-name="Omacron" unicode="&#x14c;" horiz-adv-x="813" 
d="M406 -10q-154 0 -263 108.5t-109 262.5t109 263.5t263 109.5t263.5 -109t109.5 -264q0 -154 -109 -262.5t-264 -108.5zM406 601q-98 0 -168 -70t-70 -170q0 -99 70 -169t168 -70t168 70t70 169q0 100 -70 170t-168 70zM562 808h-322v79h322v-79z" />
    <glyph glyph-name="omacron" unicode="&#x14d;" horiz-adv-x="548" 
d="M274 -11q-97 0 -170 70q-70 73 -70 170q0 98 70 170q72 69 170 69q102 0 169 -69q71 -71 71 -170t-71 -170q-70 -70 -169 -70zM274 354q-50 0 -86 -36.5t-36 -88.5t36 -88.5t86 -36.5q51 0 87 36.5t36 88.5t-36 88.5t-87 36.5zM435 554h-322v79h322v-79z" />
    <glyph glyph-name="Obreve" unicode="&#x14e;" horiz-adv-x="813" 
d="M406 -10q-154 0 -263 108.5t-109 262.5t109 263.5t263 109.5t263.5 -109t109.5 -264q0 -154 -109 -262.5t-264 -108.5zM406 601q-98 0 -168 -70t-70 -170q0 -99 70 -169t168 -70t168 70t70 169q0 100 -70 170t-168 70zM404 778q-38 0 -71 27q-34 26 -34 68v10h71v-10
q0 -9 10 -18t24 -9q13 0 22.5 8t11.5 16l1 2v11h69v-10q0 -42 -34 -68q-33 -27 -70 -27z" />
    <glyph glyph-name="obreve" unicode="&#x14f;" horiz-adv-x="548" 
d="M274 -11q-97 0 -170 70q-70 73 -70 170q0 98 70 170q72 69 170 69q102 0 169 -69q71 -71 71 -170t-71 -170q-70 -70 -169 -70zM274 354q-50 0 -86 -36.5t-36 -88.5t36 -88.5t86 -36.5q51 0 87 36.5t36 88.5t-36 88.5t-87 36.5zM278 524q-38 0 -71 27q-34 26 -34 68v10h71
v-10q0 -9 10 -18t24 -9q13 0 22.5 8t11.5 16l1 2v11h69v-10q0 -42 -34 -68q-33 -27 -70 -27z" />
    <glyph glyph-name="Ohungarumlaut" unicode="&#x150;" horiz-adv-x="813" 
d="M406 -10q-154 0 -263 108.5t-109 262.5t109 263.5t263 109.5t263.5 -109t109.5 -264q0 -154 -109 -262.5t-264 -108.5zM406 601q-98 0 -168 -70t-70 -170q0 -99 70 -169t168 -70t168 70t70 169q0 100 -70 170t-168 70zM506 916h108l-108 -140h-67zM368 916h108l-108 -140
h-67z" />
    <glyph glyph-name="ohungarumlaut" unicode="&#x151;" horiz-adv-x="568" 
d="M274 -11q-97 0 -170 70q-70 73 -70 170q0 98 70 170q72 69 170 69q102 0 169 -69q71 -71 71 -170t-71 -170q-70 -70 -169 -70zM274 354q-50 0 -86 -36.5t-36 -88.5t36 -88.5t86 -36.5q51 0 87 36.5t36 88.5t-36 88.5t-87 36.5zM373 662h108l-108 -140h-67zM235 662h108
l-108 -140h-67z" />
    <glyph glyph-name="OE" unicode="&#x152;" horiz-adv-x="1040" 
d="M406 -10q-154 0 -263 108.5t-109 262.5q0 75 29 145q29 67 80 118t118 80q70 29 145 29t144 -29v9h470v-130h-335v-135h292v-134h-292v-182h327v-133h-462v20q-69 -29 -144 -29zM406 600q-98 0 -168 -70t-70 -169t70 -169t168 -70q81 0 144 49v380q-61 49 -144 49z" />
    <glyph glyph-name="oe" unicode="&#x153;" horiz-adv-x="873" 
d="M620 -12h-1q-43 0 -88 20q-39 19 -71 52l-9 10l-11 -11q-70 -70 -169 -70q-97 0 -170 70q-70 73 -70 170q0 98 70 170q71 69 170 69q100 0 169 -69l13 -15l7 9q29 32 71 53q39 19 89 19q49 0 88 -19q43 -21 71 -53q41 -44 56 -104q7 -27 7 -62q0 -17 -1 -26h-330l1 -3
q9 -44 39.5 -73t68.5 -29v0q41 3 78 34l13 10l85 -74l-17 -15q-23 -21 -40 -30q-54 -32 -119 -33zM271 349q-49 0 -83.5 -35t-34.5 -85t34.5 -85t83.5 -35t83.5 35t34.5 85t-34.5 85t-83.5 35zM620 357q-28 0 -54 -18t-42 -48l-2 -4h196l-2 4q-16 31 -42 48.5t-54 17.5z" />
    <glyph glyph-name="Racute" unicode="&#x154;" horiz-adv-x="673" 
d="M663 0h-158l-253 348h-57v-348h-130v712h255q74 0 128 -54t54 -128q0 -53 -28.5 -97.5t-75.5 -67.5zM195 478h125q21 0 36.5 15t15.5 37t-15.5 37t-36.5 15h-125v-104zM304 916h108l-108 -140h-67z" />
    <glyph glyph-name="racute" unicode="&#x155;" horiz-adv-x="356" 
d="M191 0h-126v458h126v-37q48 48 126 48h30l-30 -125h-19q-44 0 -75.5 -30t-31.5 -71v-243zM237 662h108l-108 -140h-67z" />
    <glyph glyph-name="Rcaron" unicode="&#x158;" horiz-adv-x="674" 
d="M664 0h-158l-253 348h-57v-348h-130v712h255q74 0 128 -54t54 -128q0 -53 -28.5 -97.5t-75.5 -67.5zM196 478h125q21 0 36.5 15t15.5 37t-15.5 37t-36.5 15h-125v-104zM106 915h86l56 -70l55 70h87l-102 -135h-80z" />
    <glyph glyph-name="rcaron" unicode="&#x159;" horiz-adv-x="375" 
d="M210 0h-126v458h126v-37q48 48 126 48h30l-30 -125h-19q-44 0 -75.5 -30t-31.5 -71v-243zM65 661h86l56 -70l55 70h87l-102 -135h-80z" />
    <glyph glyph-name="Sacute" unicode="&#x15a;" horiz-adv-x="626" 
d="M332 -6q-32 0 -72 8q-114 23 -209 106l-19 17l88 100l19 -17q71 -62 147 -77h1q25 -5 45 -5q37 0 67 14q52 22 52 73q0 32 -34 53q-33 20 -93 31q-24 4 -77.5 18t-83.5 31q-46 28 -72 71q-25 43 -25 96q0 58 35 111q34 44 88 70q55 26 119 26q17 0 53 -4q103 -19 188 -90
l19 -16l-85 -103l-19 16q-80 65 -157 65q-33 0 -62 -13q-46 -21 -46 -61q0 -31 27 -49t94 -33q6 -1 22 -5q95 -18 137 -43q50 -26 78 -72q27 -43 27 -99q0 -68 -36 -119q-32 -44 -93 -74q-51 -26 -123 -26zM356 916h108l-108 -140h-67z" />
    <glyph glyph-name="sacute" unicode="&#x15b;" horiz-adv-x="440" 
d="M232 -4q-17 0 -47 5q-79 16 -134 65l-15 12l75 83l14 -13q52 -44 103 -44q25 0 41 8q22 9 22 30q0 26 -66 37q-77 16 -104 31q-32 18 -50 48t-18 67q0 39 24 74q19 27 60 48q33 16 80 16q12 0 32 -2q69 -11 124 -54l15 -12l-71 -82l-14 11q-41 33 -83 33q-21 0 -36 -7
q-20 -11 -20 -25q0 -11 12.5 -19.5t49.5 -16.5q75 -18 104 -30q32 -18 50 -42q22 -31 22 -75t-23 -76q-24 -34 -64 -53q-36 -17 -83 -17zM259 662h108l-108 -140h-67z" />
    <glyph glyph-name="Scedilla" unicode="&#x15e;" horiz-adv-x="632" 
d="M562 306q28 -45 28 -100q0 -66 -37 -120q-30 -44 -93 -75q-36 -19 -80 -24l-60 -124h-156l98 130q-113 23 -211 107l-19 17l89 101l19 -17q73 -62 148 -78q19 -5 48 -5q37 0 67 14q52 24 52 74q0 33 -34 54q-32 20 -94 31q-106 18 -162 50q-49 29 -73 72q-26 43 -26 96
q0 59 35 111l1 1q32 44 88 71q55 27 121 27q23 0 53 -5q101 -17 190 -90l20 -16l-86 -104l-20 16q-80 65 -158 65q-33 0 -62 -13q-47 -21 -47 -62q0 -31 27 -49t94 -33q124 -27 162 -49q51 -29 78 -73z" />
    <glyph glyph-name="scedilla" unicode="&#x15f;" horiz-adv-x="448" 
d="M385 219q23 -34 23 -76q0 -45 -24 -78q-22 -33 -64 -53q-16 -8 -36 -12l-61 -130h-158l103 134q-65 18 -114 61l-17 14l79 86l16 -14q53 -44 100 -44q22 0 40 9q20 8 20 27q0 23 -63 34q-80 16 -105 31q-32 18 -51 49q-18 30 -18 67q0 42 24 76q18 27 61 48q37 17 81 17
q12 0 32 -2q68 -11 125 -55l17 -14l-74 -85l-16 13q-42 32 -81 32q-17 0 -35 -8t-18 -22q0 -19 59 -33q80 -19 104 -30q31 -16 51 -42z" />
    <glyph glyph-name="Scaron" unicode="&#x160;" horiz-adv-x="626" 
d="M332 -6q-32 0 -72 8q-114 23 -209 106l-19 17l88 100l19 -17q71 -62 147 -77h1q25 -5 45 -5q37 0 67 14q52 22 52 73q0 32 -34 53q-33 20 -93 31q-24 4 -77.5 18t-83.5 31q-46 28 -72 71q-25 43 -25 96q0 58 35 111q34 44 88 70q55 26 119 26q17 0 53 -4q103 -19 188 -90
l19 -16l-85 -103l-19 16q-80 65 -157 65q-33 0 -62 -13q-46 -21 -46 -61q0 -31 27 -49t94 -33q6 -1 22 -5q95 -18 137 -43q50 -26 78 -72q27 -43 27 -99q0 -68 -36 -119q-32 -44 -93 -74q-51 -26 -123 -26zM172 915h86l56 -70l55 70h87l-102 -135h-80z" />
    <glyph glyph-name="scaron" unicode="&#x161;" horiz-adv-x="440" 
d="M232 -4q-17 0 -47 5q-79 16 -134 65l-15 12l75 83l14 -13q52 -44 103 -44q25 0 41 8q22 9 22 30q0 26 -66 37q-77 16 -104 31q-32 18 -50 48t-18 67q0 39 24 74q19 27 60 48q33 16 80 16q12 0 32 -2q69 -11 124 -54l15 -12l-71 -82l-14 11q-41 33 -83 33q-21 0 -36 -7
q-20 -11 -20 -25q0 -11 12.5 -19.5t49.5 -16.5q75 -18 104 -30q32 -18 50 -42q22 -31 22 -75t-23 -76q-24 -34 -64 -53q-36 -17 -83 -17zM78 661h86l56 -70l55 70h87l-102 -135h-80z" />
    <glyph glyph-name="Tcaron" unicode="&#x164;" horiz-adv-x="516" 
d="M325 0h-134v580h-175v132h484v-132h-175v-580zM116 915h86l56 -70l55 70h87l-102 -135h-80z" />
    <glyph glyph-name="tcaron" unicode="&#x165;" horiz-adv-x="495" 
d="M337 680h108l-108 -140h-67zM367 0h-120q-68 0 -115 47t-47 115v190h-64v103h64v180h119v-180h133v-103h-133v-188q0 -19 13.5 -33.5t30.5 -14.5h87z" />
    <glyph glyph-name="Umacron" unicode="&#x16a;" horiz-adv-x="690" 
d="M347 -10q-115 0 -196 81t-81 196v445h133v-445q0 -60 42.5 -103t101.5 -43q60 0 102 43t42 103v445h134v-445q0 -115 -81 -196q-83 -81 -197 -81zM509 808h-322v79h322v-79z" />
    <glyph glyph-name="umacron" unicode="&#x16b;" horiz-adv-x="527" 
d="M260 -11q-91 0 -151 60q-63 60 -63 149v260h126v-260q0 -35 25.5 -60t62.5 -25t63 25t26 60v260h126v-260q0 -87 -64 -149q-62 -60 -151 -60zM424 554h-322v79h322v-79z" />
    <glyph glyph-name="Ubreve" unicode="&#x16c;" horiz-adv-x="690" 
d="M347 -10q-115 0 -196 81t-81 196v445h133v-445q0 -60 42.5 -103t101.5 -43q60 0 102 43t42 103v445h134v-445q0 -115 -81 -196q-83 -81 -197 -81zM353 778q-38 0 -71 27q-34 26 -34 68v10h71v-10q0 -9 10 -18t24 -9q13 0 22.5 8t11.5 16l1 2v11h69v-10q0 -42 -34 -68
q-33 -27 -70 -27z" />
    <glyph glyph-name="ubreve" unicode="&#x16d;" horiz-adv-x="527" 
d="M260 -11q-91 0 -151 60q-63 60 -63 149v260h126v-260q0 -35 25.5 -60t62.5 -25t63 25t26 60v260h126v-260q0 -87 -64 -149q-62 -60 -151 -60zM259 524q-38 0 -71 27q-34 26 -34 68v10h71v-10q0 -9 10 -18t24 -9q13 0 22.5 8t11.5 16l1 2v11h69v-10q0 -42 -34 -68
q-33 -27 -70 -27z" />
    <glyph glyph-name="Uring" unicode="&#x16e;" horiz-adv-x="690" 
d="M347 -10q114 0 197 81q81 81 81 196v445h-134v-445q0 -60 -42 -103t-102 -43q-59 0 -101.5 43t-42.5 103v445h-133v-445q0 -115 81 -196t196 -81zM346 951q37 0 63 -25t26 -62t-26 -62.5t-63 -25.5t-63 25.5t-26 62.5t26 62t63 25zM346 836q11 0 19.5 8t8.5 19
q0 12 -8.5 20t-19.5 8t-19.5 -8t-8.5 -20q0 -11 8.5 -19t19.5 -8z" />
    <glyph glyph-name="uring" unicode="&#x16f;" horiz-adv-x="527" 
d="M260 -11q89 0 151 60q64 62 64 149v260h-126v-260q0 -35 -26 -60t-63 -25t-62.5 25t-25.5 60v260h-126v-260q0 -89 63 -149q60 -60 151 -60zM262 697q37 0 63 -25t26 -62t-26 -62.5t-63 -25.5t-63 25.5t-26 62.5t26 62t63 25zM262 582q11 0 19.5 8t8.5 19q0 12 -8.5 20
t-19.5 8t-19.5 -8t-8.5 -20q0 -11 8.5 -19t19.5 -8z" />
    <glyph glyph-name="Ydieresis" unicode="&#x178;" horiz-adv-x="681" 
d="M408 0h-135v352l-257 360h164l161 -225l161 225h163l-257 -360v-352zM422 782q-23 0 -42 17q-17 19 -17 42t17 40t42 17q24 0 41 -17t17 -40q0 -25 -17 -42t-41 -17zM259 782q-23 0 -40 17t-17 42q0 23 17 40t40 17q24 0 41.5 -17t17.5 -40q0 -26 -17 -41l-1 -1
q-15 -17 -41 -17z" />
    <glyph glyph-name="Zacute" unicode="&#x179;" horiz-adv-x="588" 
d="M533 0h-467v120l315 467h-316v125h467v-131l-307 -456h308v-125zM349 916h108l-108 -140h-67z" />
    <glyph glyph-name="zacute" unicode="&#x17a;" horiz-adv-x="418" 
d="M393 0h-362v105l214 248h-215v105h362v-105l-209 -245h210v-108zM257 662h108l-108 -140h-67z" />
    <glyph glyph-name="Zdotaccent" unicode="&#x17b;" horiz-adv-x="588" 
d="M533 0h-467v120l315 467h-316v125h467v-131l-307 -456h308v-125zM302 777q-33 0 -56 23t-23 55q0 34 23 55q23 23 56 23q32 0 55 -23t23 -55t-23 -55t-55 -23z" />
    <glyph glyph-name="zdotaccent" unicode="&#x17c;" horiz-adv-x="418" 
d="M393 0h-362v105l214 248h-215v105h362v-105l-209 -245h210v-108zM213 523q-33 0 -56 23t-23 55q0 34 23 55q23 23 56 23q32 0 55 -23t23 -55t-23 -55t-55 -23z" />
    <glyph glyph-name="Zcaron" unicode="&#x17d;" horiz-adv-x="588" 
d="M533 0h-467v120l315 467h-316v125h467v-131l-307 -456h308v-125zM165 915h86l56 -70l55 70h87l-102 -135h-80z" />
    <glyph glyph-name="zcaron" unicode="&#x17e;" horiz-adv-x="422" 
d="M393 0h-362v105l214 248h-215v105h362v-105l-209 -245h210v-108zM72 661h86l56 -70l55 70h87l-102 -135h-80z" />
    <glyph glyph-name="gacute" unicode="&#x1f5;" horiz-adv-x="548" 
d="M266 -266q-75 0 -132 36q-16 8 -44 33l-16 16l90 79l13 -11q44 -33 89 -36v0q51 1 87.5 39t36.5 90v58l-5 -5q-24 -23 -48 -31t-57 -10h-17q-95 3 -160 68q-70 72 -70 169t70 169q71 69 169 69q70 0 113 -43l5 -4v38h121v-479q0 -102 -73 -173q-69 -72 -172 -72zM272 351
q-48 0 -83 -36t-35 -86q0 -49 35 -85t83 -36t83 36t35 85q0 50 -35 86t-83 36zM318 662h108l-108 -140h-67z" />
    <glyph glyph-name="circumflex" unicode="&#x2c6;" horiz-adv-x="382" 
d="M333 526h-86l-56 70l-55 -70h-87l102 135h80z" />
    <glyph glyph-name="caron" unicode="&#x2c7;" horiz-adv-x="382" 
d="M49 661h86l56 -70l55 70h87l-102 -135h-80z" />
    <glyph glyph-name="breve" unicode="&#x2d8;" horiz-adv-x="309" 
d="M155 524q-38 0 -71 27q-34 26 -34 68v10h71v-10q0 -9 10 -18t24 -9q13 0 22.5 8t11.5 16l1 2v11h69v-10q0 -42 -34 -68q-33 -27 -70 -27z" />
    <glyph glyph-name="dotaccent" unicode="&#x2d9;" horiz-adv-x="225" 
d="M113 523q-33 0 -56 23t-23 55q0 34 23 55q23 23 56 23q32 0 55 -23t23 -55t-23 -55t-55 -23z" />
    <glyph glyph-name="ring" unicode="&#x2da;" horiz-adv-x="278" 
d="M139 697q37 0 63 -25t26 -62t-26 -62.5t-63 -25.5t-63 25.5t-26 62.5t26 62t63 25zM139 582q11 0 19.5 8t8.5 19q0 12 -8.5 20t-19.5 8t-19.5 -8t-8.5 -20q0 -11 8.5 -19t19.5 -8z" />
    <glyph glyph-name="ogonek" unicode="&#x2db;" horiz-adv-x="332" 
d="M154 -195q-16 0 -29 3q-31 7 -58 31q-26 24 -36 55q-13 49 5.5 89.5t67.5 90.5l13 13l81 -81l-13 -13q-27 -28 -35 -41t-3 -23q5 -9 15 -9q25 0 56 33l13 14l76 -74l-11 -13q-44 -47 -81 -62q-29 -13 -61 -13z" />
    <glyph glyph-name="tilde" unicode="&#x2dc;" horiz-adv-x="335" 
d="M246 632l55 -36l-5 -8q-36 -55 -91 -55q-28 0 -65 26q-14 8 -21 8q-12 0 -29 -23l-5 -7l-59 38q19 30 38 43q23 19 56 19q21 0 40 -11q24 -15 41 -24q15 -8 45 30z" />
    <glyph glyph-name="hungarumlaut" unicode="&#x2dd;" horiz-adv-x="413" 
d="M255 662h108l-108 -140h-67zM117 662h108l-108 -140h-67z" />
    <glyph glyph-name="endash" unicode="&#x2013;" horiz-adv-x="545" 
d="M495 169h-445v116h445v-116z" />
    <glyph glyph-name="emdash" unicode="&#x2014;" horiz-adv-x="863" 
d="M813 169h-763v116h763v-116z" />
    <glyph glyph-name="quotesinglbase" unicode="&#x201a;" horiz-adv-x="184" 
d="M134 -174h-84v162h84v-162z" />
    <glyph glyph-name="quotedblbase" unicode="&#x201e;" horiz-adv-x="284" 
d="M130 -172h-84v162h84v-162zM238 -172h-84v162h84v-162z" />
    <glyph glyph-name="dagger" unicode="&#x2020;" horiz-adv-x="421" 
d="M272 1h-124v210h-98v124h98v123h124v-123h99v-124h-99v-210z" />
    <glyph glyph-name="bullet" unicode="&#x2022;" horiz-adv-x="262" 
d="M132 135q-40 0 -68.5 28t-28.5 67q0 42 28 68q28 28 69 28q39 0 67 -28t28 -68q0 -39 -28 -67t-67 -28z" />
    <glyph glyph-name="ellipsis" unicode="&#x2026;" horiz-adv-x="634" 
d="M124 -10q-33 0 -56 23t-23 55q0 34 23 55q23 23 56 23q32 0 55 -23t23 -55t-23 -55t-55 -23zM320 -10q-33 0 -56 23t-23 55q0 34 23 55q23 23 56 23q32 0 55 -23t23 -55t-23 -55t-55 -23zM511 -10q-33 0 -56 23t-23 55q0 34 23 55q23 23 56 23q32 0 55 -23t23 -55
t-23 -55t-55 -23z" />
    <glyph glyph-name="perthousand" unicode="&#x2030;" horiz-adv-x="988" 
d="M131 0h144l274 712h-143zM609 237q44 -44 44 -103t-44 -103q-44 -42 -104 -42q-62 0 -105.5 42.5t-43.5 102.5t43.5 102.5t105.5 42.5q60 0 104 -42zM458 134q0 -20 14 -33.5t33 -13.5t32.5 14t13.5 33t-13.5 33t-32.5 14q-21 0 -33 -14q-14 -14 -14 -33zM917 237
q44 -44 44 -103t-44 -103q-44 -42 -104 -42q-62 0 -105.5 42.5t-43.5 102.5t43.5 102.5t105.5 42.5q60 0 104 -42zM766 134q0 -20 14 -33.5t33 -13.5t32.5 14t13.5 33t-13.5 33t-32.5 14q-21 0 -33 -14q-14 -14 -14 -33zM280 682q44 -42 44 -103q0 -60 -44 -102t-104 -42
q-61 0 -105 42.5t-44 101.5q0 60 43.5 102.5t105.5 42.5q60 0 104 -42zM129 580q0 -20 13.5 -33.5t33.5 -13.5q19 0 32.5 14t13.5 33t-13.5 32.5t-32.5 13.5t-34 -13q-13 -15 -13 -33z" />
    <glyph glyph-name="fraction" unicode="&#x2044;" horiz-adv-x="433" 
d="M149 0h-143l274 712h144z" />
    <glyph glyph-name="Euro" unicode="&#x20ac;" horiz-adv-x="645" 
d="M541 126l20 6l57 -120l-27 -9q-54 -16 -109 -16q-62 0 -121 21q-58 20 -106 56q-50 40 -81 87q-28 41 -45 91h-104v103h88v39h-88v94h104q38 113 135.5 183.5t217.5 70.5q54 0 110 -17l28 -8l-57 -120l-20 5q-30 8 -61 8q-64 0 -120.5 -33t-88.5 -89h180v-94h-196v-39
h196v-103h-180q32 -57 88.5 -90t120.5 -33q34 0 59 7z" />
    <glyph glyph-name="trademark" unicode="&#x2122;" horiz-adv-x="324" 
d="M117 427h-44v95h-30v43h104v-43h-30v-95zM281 427h-42v57l-21 -27l-19 28v-58h-44v138h37l26 -36l26 36h37v-138z" />
    <glyph glyph-name="minus" unicode="&#x2212;" horiz-adv-x="413" 
d="M363 171h-313v116h313v-116z" />
    <glyph glyph-name="ibreve" horiz-adv-x="259" 
d="M194 0h-130v458h130v-458zM130 524q-38 0 -71 27q-34 26 -34 68v10h71v-10q0 -9 10 -18t24 -9q13 0 22.5 8t11.5 16l1 2v11h69v-10q0 -42 -34 -68q-33 -27 -70 -27z" />
    <glyph glyph-name="Imacron" horiz-adv-x="322" 
d="M226 0h-134v712h134v-712zM322 808h-322v79h322v-79z" />
    <glyph glyph-name="S_2" horiz-adv-x="627" 
 />
    </font>
</defs>
</svg>
